<svg width="41" height="24" fill="none" xmlns="http://www.w3.org/2000/svg"><g clip-path="url(#clip0_319_10807)"><path d="M15.155 23.883h-.002l-.095-.004a.048.048 0 01-.045-.05.047.047 0 01.049-.044c.031 0 .063.003.095.003a.047.047 0 01-.002.094zm-.378-.019h-.003l-.19-.014a.047.047 0 01-.043-.05.047.047 0 01.05-.044l.188.014a.047.047 0 01.045.05.048.048 0 01-.047.044zm-.472-.038H14.3a6.052 6.052 0 01-.189-.02.047.047 0 01-.041-.052.048.048 0 01.052-.041l.188.019a.047.047 0 01-.005.094zm-.47-.053h-.006l-.187-.025a.047.047 0 11.014-.093l.186.025a.047.047 0 01.041.053.049.049 0 01-.048.04zm-.467-.067c-.003 0-.005 0-.008-.002l-.186-.03a.048.048 0 01-.04-.055.049.049 0 01.056-.039c.061.01.124.022.186.031a.046.046 0 01.038.054.048.048 0 01-.046.04zm-.466-.084h-.01l-.185-.038a.048.048 0 01-.037-.056.048.048 0 01.056-.037c.061.014.124.026.184.037.026.005.043.03.037.056a.045.045 0 01-.045.038zm-.462-.098h-.01a12.339 12.339 0 01-.186-.044.047.047 0 01-.035-.056.047.047 0 01.057-.035l.184.043a.047.047 0 01.036.057.048.048 0 01-.046.035zm-.46-.11l-.012-.003-.184-.049a.047.047 0 01-.033-.057.048.048 0 01.058-.033l.182.049c.025.006.04.032.034.057a.046.046 0 01-.045.035zm-.456-.127l-.013-.002-.182-.055a.048.048 0 01-.03-.06.048.048 0 01.059-.03l.18.055c.025.007.04.033.033.058a.05.05 0 01-.046.034zm-.451-.14a.05.05 0 01-.016-.003l-.18-.06a.047.047 0 01-.029-.061.048.048 0 01.06-.03l.18.061a.048.048 0 01.03.06.049.049 0 01-.045.032zm-.447-.155a.048.048 0 01-.017-.003c-.058-.022-.119-.043-.178-.066a.047.047 0 11.033-.088c.06.022.119.045.178.065a.047.047 0 01-.016.092zm-.442-.168a.045.045 0 01-.018-.004 6.512 6.512 0 01-.176-.072.046.046 0 01-.026-.06.047.047 0 01.062-.026c.058.023.116.048.175.07a.048.048 0 01-.017.091zm-.437-.182c-.006 0-.012 0-.019-.004l-.173-.076a.047.047 0 01-.024-.062.048.048 0 01.063-.024l.172.076c.024.01.035.04.025.063a.049.049 0 01-.044.027zm-.43-.195a.052.052 0 01-.02-.005l-.172-.082a.047.047 0 01-.022-.063.047.047 0 01.064-.022l.17.082c.024.012.034.04.023.064a.052.052 0 01-.044.026zm-.425-.21a.044.044 0 01-.022-.005c-.056-.03-.113-.058-.168-.088a.048.048 0 01-.02-.064.048.048 0 01.064-.02 9 9 0 00.168.087c.023.012.032.04.02.063a.048.048 0 01-.042.028zm-.418-.221a.049.049 0 01-.022-.006c-.055-.03-.111-.06-.166-.092a.048.048 0 01-.018-.064.048.048 0 01.064-.018l.165.092a.046.046 0 01.018.064.047.047 0 01-.04.024zm32.007-.181h-.002a12.933 12.933 0 01-.19-.008.048.048 0 01-.045-.049.047.047 0 01.05-.045l.188.008a.047.047 0 01.046.049.047.047 0 01-.047.045zm-.472-.024h-.002a10.71 10.71 0 01-.189-.013.047.047 0 01-.044-.05.047.047 0 01.051-.044c.063.005.126.01.188.013a.048.048 0 01.045.05.049.049 0 01-.049.044zm-31.945-.03a.046.046 0 01-.025-.007 8.916 8.916 0 01-.162-.098.046.046 0 01-.016-.065.047.047 0 01.066-.015l.16.097c.024.013.03.042.017.065a.044.044 0 01-.04.022zm31.474-.006h-.004a13.664 13.664 0 01-.189-.02.048.048 0 01-.041-.051.048.048 0 01.052-.041l.187.018a.046.046 0 01.043.051.047.047 0 01-.047.043zm-.468-.051h-.006a11.23 11.23 0 01-.188-.025.048.048 0 01-.04-.053.048.048 0 01.053-.04l.186.024a.047.047 0 01-.006.093zm-.468-.065l-.008-.001a5.846 5.846 0 01-.187-.031.048.048 0 01-.038-.055.049.049 0 01.054-.039l.186.03a.048.048 0 01.04.054.049.049 0 01-.047.042zm-.465-.082l-.01-.001-.186-.038a.048.048 0 01-.037-.056.048.048 0 01.056-.036l.185.036c.026.005.043.03.038.056a.046.046 0 01-.047.039zM7.66 21.532a.05.05 0 01-.025-.007 9.535 9.535 0 01-.16-.104.047.047 0 01-.013-.065.047.047 0 01.066-.013l.158.103a.047.047 0 01-.026.086zm30.014-.052l-.01-.001c-.062-.014-.123-.03-.184-.045a.047.047 0 01-.034-.057.047.047 0 01.058-.034c.06.015.122.03.182.043a.046.046 0 01.035.057.05.05 0 01-.047.037zm-.457-.116l-.013-.002a8.026 8.026 0 01-.181-.052.047.047 0 01-.033-.059.047.047 0 01.059-.032l.181.051c.026.007.04.033.033.058a.048.048 0 01-.046.036zm-29.95-.094a.044.044 0 01-.027-.008l-.155-.109a.047.047 0 01-.012-.066.047.047 0 01.066-.01l.155.107a.048.048 0 01.012.066.048.048 0 01-.04.02zm29.497-.04a6.312 6.312 0 01-.194-.061.047.047 0 11.03-.089l.178.06a.047.047 0 01-.014.09zm-.446-.152a.045.045 0 01-.016-.003 7.443 7.443 0 01-.178-.067.047.047 0 01-.026-.061.047.047 0 01.061-.026l.177.066a.048.048 0 01.028.06.054.054 0 01-.046.031zm-29.437-.082a.047.047 0 01-.029-.01 6.442 6.442 0 01-.151-.114.047.047 0 01-.009-.066.047.047 0 01.067-.008l.15.113a.047.047 0 01.01.066.048.048 0 01-.038.019zm28.997-.091a.04.04 0 01-.018-.004l-.174-.076a.046.046 0 01-.024-.062.047.047 0 01.063-.024c.056.026.114.05.172.075.024.01.035.038.026.062a.05.05 0 01-.045.028zm-.43-.194a.056.056 0 01-.02-.005 8.982 8.982 0 01-.171-.083.047.047 0 01-.021-.064.048.048 0 01.063-.02l.169.083c.024.011.033.04.022.063a.045.045 0 01-.042.026zM6.507 20.71a.048.048 0 01-.03-.01l-.147-.119a.047.047 0 11.06-.073c.048.04.097.08.146.118a.047.047 0 01.008.066.05.05 0 01-.037.018zm28.522-.213a.051.051 0 01-.023-.005 6.362 6.362 0 01-.166-.093.046.046 0 01-.017-.064.047.047 0 01.064-.017l.164.092a.048.048 0 01.02.064.048.048 0 01-.042.023zM6.14 20.41a.047.047 0 01-.03-.012 8.707 8.707 0 01-.144-.123.048.048 0 11.062-.072l.143.124c.02.017.022.047.006.066a.05.05 0 01-.037.017zm28.48-.15a.039.039 0 01-.025-.007c-.054-.033-.108-.068-.161-.102a.047.047 0 01-.015-.065.047.047 0 01.066-.014c.052.034.105.068.159.1.022.014.03.043.015.065a.044.044 0 01-.04.024zm-28.834-.162a.048.048 0 01-.032-.013l-.14-.129a.047.047 0 01-.002-.067.048.048 0 01.068-.002l.138.129c.019.017.02.047.003.066a.052.052 0 01-.035.016zM34.225 20a.05.05 0 01-.027-.008 6.453 6.453 0 01-.155-.11.048.048 0 01-.01-.066.048.048 0 01.066-.01l.153.109a.047.047 0 01-.027.085zm-28.781-.23a.05.05 0 01-.033-.013l-.135-.134a.047.047 0 01.001-.067.048.048 0 01.067.001l.134.133a.046.046 0 010 .067.053.053 0 01-.034.013zm28.402-.05a.049.049 0 01-.03-.011c-.05-.039-.1-.08-.148-.12a.047.047 0 01-.006-.066.048.048 0 01.066-.006c.048.04.098.079.147.118.02.016.023.046.007.066a.046.046 0 01-.036.018zm-28.734-.287a.044.044 0 01-.034-.015l-.129-.139a.047.047 0 11.07-.064l.128.138a.047.047 0 01-.002.067.045.045 0 01-.033.013zm28.37-.017a.044.044 0 01-.03-.012 6.048 6.048 0 01-.142-.129.047.047 0 01-.002-.067.048.048 0 01.068-.002c.045.043.092.085.139.127.02.017.02.047.003.067a.05.05 0 01-.036.016zm-28.715-.292h-.05a.046.046 0 01-.047-.049c0-.025.022-.046.047-.046h.008l-.09-.103a.046.046 0 01.006-.066.047.047 0 01.066.005c.04.047.081.096.123.143.006.006.01.014.01.021.021 0 .042 0 .063-.002a.047.047 0 01.05.046.047.047 0 01-.046.049l-.14.002zm-.333-.017H4.43a3.26 3.26 0 01-.19-.025.048.048 0 01-.04-.054.048.048 0 01.054-.04c.062.01.124.018.185.024a.048.048 0 01.043.052.046.046 0 01-.047.043zm.755-.012a.046.046 0 01-.046-.04.046.046 0 01.04-.053c.062-.009.124-.019.184-.031a.047.047 0 01.056.037.048.048 0 01-.037.055 3.155 3.155 0 01-.19.032H5.19zm27.95-.003a.044.044 0 01-.034-.015 6.14 6.14 0 01-.132-.136.047.047 0 01.069-.065c.044.045.087.09.132.134a.048.048 0 010 .067.055.055 0 01-.035.015zm-29.172-.064h-.011a4.545 4.545 0 01-.186-.05.048.048 0 01-.032-.058.048.048 0 01.059-.032c.06.018.12.034.18.048a.047.047 0 01.036.056.046.046 0 01-.046.036zm1.683-.034a.049.049 0 01-.045-.033.049.049 0 01.031-.059 2.1 2.1 0 00.175-.061.048.048 0 01.062.026.048.048 0 01-.027.061 2.79 2.79 0 01-.196.066zm-2.135-.104a.054.054 0 01-.017-.003 2.899 2.899 0 01-.177-.074.046.046 0 01-.024-.062c.01-.023.04-.034.063-.023.057.025.115.049.172.071.025.01.037.037.028.061a.05.05 0 01-.045.03zm2.572-.076a.047.047 0 01-.042-.025.047.047 0 01.02-.064c.055-.03.11-.06.16-.093a.047.047 0 11.051.08 2.47 2.47 0 01-.166.096.035.035 0 01-.023.006zm26.728-.067a.049.049 0 01-.036-.016 6.288 6.288 0 01-.125-.144.047.047 0 01.072-.06c.04.048.082.095.123.142a.047.047 0 01-.005.067c-.007.008-.018.011-.03.011zM4.49 18.724a.046.046 0 01-.037-.018l-.118-.148a.047.047 0 01.008-.066.047.047 0 01.066.008l.118.148c.016.02.013.05-.008.066a.043.043 0 01-.03.01zm-1.405-.032a.05.05 0 01-.023-.006 3.644 3.644 0 01-.165-.097.048.048 0 01-.016-.065.049.049 0 01.066-.015c.052.033.106.064.16.094a.048.048 0 01.02.064.046.046 0 01-.042.025zm3.395-.136a.049.049 0 01-.037-.017.046.046 0 01.007-.066 2.27 2.27 0 00.138-.122.047.047 0 11.066.068 2.619 2.619 0 01-.144.128.06.06 0 01-.03.01zm-3.792-.12a.047.047 0 01-.028-.01 5.758 5.758 0 01-.15-.115.047.047 0 11.059-.074c.047.04.097.078.147.114a.05.05 0 01.01.067.042.042 0 01-.038.018zm29.825-.052a.05.05 0 01-.037-.017c-.04-.05-.077-.101-.115-.152a.048.048 0 01.01-.066.048.048 0 01.066.01l.113.15c.017.02.013.05-.008.066a.043.043 0 01-.029.01zM4.2 18.352a.048.048 0 01-.038-.018 5.827 5.827 0 01-.112-.153.048.048 0 01.01-.066.048.048 0 01.067.01l.112.152c.015.02.011.05-.01.066a.062.062 0 01-.029.01zm2.613-.13a.046.046 0 01-.036-.076c.038-.048.075-.098.11-.149a.048.048 0 01.067-.012.048.048 0 01.012.066 2.031 2.031 0 01-.115.153.052.052 0 01-.038.017zm-4.49-.084a.044.044 0 01-.032-.012 4.457 4.457 0 01-.139-.129.046.046 0 010-.067.047.047 0 01.066 0c.046.043.091.085.138.126.02.017.02.047.003.067a.052.052 0 01-.036.015zm29.914-.134a.046.046 0 01-.039-.021l-.104-.159a.047.047 0 01.014-.065.047.047 0 01.065.015l.104.156a.047.047 0 01-.04.074zm-28.312-.035a.046.046 0 01-.038-.021 9.374 9.374 0 01-.107-.157.047.047 0 01.014-.066.047.047 0 01.065.014c.034.052.07.104.105.155a.047.047 0 01-.012.066.05.05 0 01-.027.009zm3.148-.139a.047.047 0 01-.042-.07c.03-.053.057-.109.083-.165a.047.047 0 01.086.039 2.623 2.623 0 01-.085.17.047.047 0 01-.042.026zm-5.089-.02a.044.044 0 01-.034-.016 5.942 5.942 0 01-.129-.14.048.048 0 01.004-.066.049.049 0 01.067.004l.127.137a.047.047 0 01-.001.067.045.045 0 01-.034.013zm30-.204a.047.047 0 01-.04-.024c-.032-.053-.064-.11-.095-.164a.047.047 0 01.018-.064.048.048 0 01.065.018l.093.162a.046.046 0 01-.017.064.037.037 0 01-.023.008zM3.67 17.574a.047.047 0 01-.041-.024 4.676 4.676 0 01-.094-.166.048.048 0 01.084-.044c.03.055.061.11.092.162a.046.046 0 01-.017.064.04.04 0 01-.024.008zm-1.994-.12a.045.045 0 01-.037-.017 5.852 5.852 0 01-.118-.149.047.047 0 01.009-.066.048.048 0 01.066.008c.038.05.077.1.116.148.016.02.013.05-.007.066a.04.04 0 01-.03.01zm5.586-.056a.043.043 0 01-.015-.003.047.047 0 01-.03-.059 2.75 2.75 0 00.054-.177.047.047 0 01.091.024 2.757 2.757 0 01-.056.183.047.047 0 01-.044.032zm24.498-.205a.049.049 0 01-.042-.026 9.924 9.924 0 01-.085-.17.048.048 0 01.022-.063.049.049 0 01.064.022c.027.057.055.112.083.168a.046.046 0 01-.02.063.04.04 0 01-.021.006zm-28.31-.037a.047.047 0 01-.042-.027 5.65 5.65 0 01-.077-.175.046.046 0 01.026-.061.047.047 0 01.062.026c.023.057.049.114.074.17a.046.046 0 01-.023.062.034.034 0 01-.02.005zm-2.06-.076a.047.047 0 01-.038-.02 9.42 9.42 0 01-.107-.158.047.047 0 01.013-.064.047.047 0 01.065.013l.105.154a.047.047 0 01-.011.066.045.045 0 01-.027.009zm5.988-.137H7.37a.047.047 0 01-.038-.056c.011-.06.02-.121.028-.183a.048.048 0 01.053-.04.047.047 0 01.041.052 3.92 3.92 0 01-.03.188.047.047 0 01-.046.04zm24.18-.174a.047.047 0 01-.044-.029 6.556 6.556 0 01-.074-.174.047.047 0 01.026-.061.048.048 0 01.061.025l.073.173a.047.047 0 01-.042.066zM3.273 16.72a.047.047 0 01-.045-.031 5.75 5.75 0 01-.06-.18.049.049 0 01.032-.06.049.049 0 01.06.031c.017.06.037.119.058.177a.048.048 0 01-.03.06l-.015.003zm-2.14-.036a.048.048 0 01-.04-.023 9.067 9.067 0 01-.096-.164.046.046 0 01.018-.064.047.047 0 01.065.018c.03.054.062.108.094.162a.047.047 0 01-.016.065.077.077 0 01-.024.006zm6.301-.21h-.003a.047.047 0 01-.044-.05 3.73 3.73 0 00.006-.186c0-.027.022-.047.049-.046.026 0 .047.021.046.048 0 .064-.004.128-.007.19a.047.047 0 01-.047.044zm23.946-.143a.047.047 0 01-.044-.03 8.93 8.93 0 01-.064-.18.048.048 0 01.09-.03c.02.058.041.118.063.176a.047.047 0 01-.028.06.043.043 0 01-.017.004zm-30.476-.06a.049.049 0 01-.043-.025 7.096 7.096 0 01-.085-.17.048.048 0 01.021-.063.048.048 0 01.064.022c.026.056.055.112.083.168a.046.046 0 01-.02.063.035.035 0 01-.02.006zm2.232-.002a.046.046 0 01-.045-.036 6.431 6.431 0 01-.044-.185.046.046 0 01.036-.055.046.046 0 01.056.036c.013.06.028.121.043.181a.047.047 0 01-.034.058h-.012zm4.301-.266a.047.047 0 01-.047-.045 6.494 6.494 0 00-.012-.187.047.047 0 01.044-.05.047.047 0 01.051.043c.005.063.01.127.011.19a.047.047 0 01-.045.048l-.002.001zm23.79-.118a.048.048 0 01-.045-.033c-.02-.06-.037-.12-.055-.18a.047.047 0 01.09-.026l.055.178a.049.049 0 01-.032.06l-.013.001zm-30.525-.04a.047.047 0 01-.044-.028 4.517 4.517 0 01-.073-.175.047.047 0 01.027-.061.047.047 0 01.061.026l.072.174c.01.023 0 .051-.024.062a.07.07 0 01-.02.003zm2.34-.037a.048.048 0 01-.047-.04 4.126 4.126 0 01-.026-.188.048.048 0 01.041-.053.048.048 0 01.053.042c.008.06.016.123.027.184a.047.047 0 01-.039.054h-.01zm4.353-.274a.048.048 0 01-.047-.04c-.009-.061-.017-.123-.028-.185a.046.046 0 01.04-.053.046.046 0 01.053.038l.029.188a.047.047 0 01-.041.053h-.006zm23.703-.101a.047.047 0 01-.045-.036l-.046-.184a.047.047 0 01.035-.056.047.047 0 01.057.034 7.8 7.8 0 00.045.182.047.047 0 01-.034.058.033.033 0 01-.012.002zm-30.57-.026a.047.047 0 01-.044-.03 5.77 5.77 0 01-.06-.18.048.048 0 01.03-.06.048.048 0 01.06.03c.018.058.038.119.059.177a.047.047 0 01-.03.06.04.04 0 01-.015.003zm2.46-.068a.048.048 0 01-.048-.044 4.264 4.264 0 01-.01-.19.047.047 0 01.095-.004c.002.062.005.125.01.188a.047.047 0 01-.044.05h-.003zm4.327-.268a.047.047 0 01-.047-.038l-.041-.182a.046.046 0 01.035-.057.046.046 0 01.057.035l.042.185a.046.046 0 01-.036.056h-.01zm23.678-.097a.048.048 0 01-.046-.038l-.036-.186a.047.047 0 01.038-.055.047.047 0 01.054.038l.037.184a.047.047 0 01-.037.056h-.01zM.387 14.957a.047.047 0 01-.045-.034 1.849 1.849 0 01-.018-.068l-.03-.116a.047.047 0 01.036-.057.046.046 0 01.056.035l.029.114a.733.733 0 00.018.067.046.046 0 01-.033.058l-.013.002zm2.591-.088a.048.048 0 01-.047-.048c.002-.063.004-.127.008-.19a.047.047 0 01.095.005 6.015 6.015 0 00-.009.187.048.048 0 01-.047.046zm4.22-.255a.048.048 0 01-.046-.034 3.952 3.952 0 00-.058-.178.048.048 0 01.09-.03l.059.18a.047.047 0 01-.031.059.027.027 0 01-.015.003zm23.712-.104a.047.047 0 01-.047-.04 4.997 4.997 0 01-.027-.188.046.046 0 01.04-.052.047.047 0 01.054.04c.008.063.018.125.027.186a.047.047 0 01-.04.054h-.007zM.28 14.498a.047.047 0 01-.047-.037l-.035-.187a.048.048 0 01.039-.055.048.048 0 01.055.039c.01.061.021.124.034.184a.048.048 0 01-.037.056h-.01zm2.735-.099h-.008a.048.048 0 01-.04-.054c.01-.063.022-.127.038-.189a.046.046 0 01.056-.035.046.046 0 01.036.057 1.91 1.91 0 00-.036.18.045.045 0 01-.046.041zm4.025-.229a.047.047 0 01-.044-.029 4.656 4.656 0 00-.074-.17.046.046 0 01.023-.063.046.046 0 01.063.024c.026.056.052.116.076.174a.047.047 0 01-.026.062.064.064 0 01-.018.002zm23.808-.127a.048.048 0 01-.047-.042l-.02-.189a.047.047 0 01.043-.05.047.047 0 01.052.042c.005.062.012.124.019.186a.048.048 0 01-.042.052l-.005.001zM.203 14.035a.048.048 0 01-.048-.041 6.005 6.005 0 01-.023-.188.047.047 0 01.094-.01l.022.185a.047.047 0 01-.04.053H.202zm2.93-.09a.047.047 0 01-.045-.063c.022-.06.046-.12.073-.18a.048.048 0 01.062-.023c.024.01.035.039.024.062-.025.057-.05.114-.07.172a.046.046 0 01-.044.031zm3.704-.2a.046.046 0 01-.041-.025 5.08 5.08 0 00-.093-.162.047.047 0 11.081-.049c.032.053.065.109.096.165a.047.047 0 01-.019.065.058.058 0 01-.024.005zm23.97-.17a.047.047 0 01-.048-.045l-.011-.188a.047.047 0 01.044-.05.05.05 0 01.05.045c.002.062.006.125.01.188a.047.047 0 01-.045.05c.001 0 0 0 0 0zM.154 13.566a.047.047 0 01-.047-.044 4.028 4.028 0 01-.01-.19.046.046 0 01.045-.049.05.05 0 01.05.045c.002.063.006.126.01.187a.047.047 0 01-.044.05l-.004.001zm3.18-.047a.043.043 0 01-.024-.007.047.047 0 01-.017-.064c.032-.055.067-.11.104-.161a.048.048 0 01.066-.012.048.048 0 01.012.066c-.035.05-.069.103-.1.155a.051.051 0 01-.042.023zm3.25-.173a.045.045 0 01-.038-.02 2.582 2.582 0 00-.114-.146.046.046 0 01.006-.066.046.046 0 01.067.007c.04.048.08.099.118.15a.05.05 0 01-.01.067.053.053 0 01-.029.008zm-2.974-.209a.05.05 0 01-.031-.011.048.048 0 01-.005-.067c.043-.048.087-.095.133-.14a.047.047 0 11.066.068 2.474 2.474 0 00-.128.134.043.043 0 01-.035.016zm27.175-.033a.048.048 0 01-.048-.046 6.243 6.243 0 01-.003-.189c0-.026.021-.047.048-.047.025 0 .047.02.047.047l.003.188a.046.046 0 01-.046.048h-.001zm-30.649-.01a.047.047 0 01-.047-.046v-.19c0-.026.023-.047.05-.046.026 0 .046.022.046.048l-.001.128v.06a.047.047 0 01-.048.047zm6.14-.104a.05.05 0 01-.034-.013 1.878 1.878 0 00-.138-.123.047.047 0 01-.007-.066.048.048 0 01.067-.006c.048.04.097.083.144.128a.047.047 0 010 .067.047.047 0 01-.032.013zm-2.32-.174a.048.048 0 01-.038-.018.047.047 0 01.01-.066c.051-.039.105-.076.16-.109a.048.048 0 01.065.015.047.047 0 01-.015.065 2.297 2.297 0 00-.153.104.05.05 0 01-.03.01zm1.948-.115a.046.046 0 01-.024-.007 1.914 1.914 0 00-.162-.088.047.047 0 01-.022-.063.047.047 0 01.063-.021c.058.027.115.058.17.092.024.013.03.042.017.065a.054.054 0 01-.042.022zm24.879-.068c-.001 0-.001 0 0 0a.048.048 0 01-.048-.048l.005-.19c0-.026.023-.046.05-.045.026 0 .046.023.045.049l-.005.188a.047.047 0 01-.047.046zM.148 12.624H.145a.046.046 0 01-.045-.049l.012-.19a.047.047 0 01.05-.043.047.047 0 01.043.051 6.353 6.353 0 00-.011.187c0 .024-.02.044-.046.044zm4.217-.045a.047.047 0 01-.044-.028.048.048 0 01.025-.063c.06-.025.121-.048.182-.066a.047.047 0 01.059.03.047.047 0 01-.032.06 1.725 1.725 0 00-.172.062.032.032 0 01-.018.005zm1.11-.07c-.006 0-.01 0-.014-.002a1.642 1.642 0 00-.18-.041.048.048 0 01-.038-.055.049.049 0 01.055-.038c.063.01.127.025.19.043.025.007.04.033.032.058a.046.046 0 01-.046.035zm-.656-.054a.049.049 0 01-.048-.041.048.048 0 01.041-.053c.064-.008.13-.012.194-.012.027 0 .048.02.048.047a.047.047 0 01-.048.047c-.06 0-.122.005-.183.012H4.82zm25.98-.293h-.002a.046.046 0 01-.044-.05l.01-.188a.047.047 0 01.051-.044.047.047 0 01.044.05 6.21 6.21 0 00-.012.188.046.046 0 01-.046.044zM.186 12.155H.18a.047.047 0 01-.042-.052l.022-.189a.047.047 0 01.053-.04.047.047 0 01.04.053l-.021.185a.048.048 0 01-.047.043zm30.649-.462h-.005a.047.047 0 01-.043-.051l.02-.189a.048.048 0 01.052-.041.047.047 0 01.041.052l-.019.186a.045.045 0 01-.046.043zM.247 11.688H.24a.048.048 0 01-.04-.055c.01-.062.02-.124.032-.186a.047.047 0 01.093.017 6.26 6.26 0 00-.031.184.048.048 0 01-.047.04zm.085-.463h-.01a.048.048 0 01-.036-.056l.04-.185a.046.046 0 01.058-.035.046.046 0 01.035.056c-.015.06-.028.123-.041.183a.046.046 0 01-.046.037zm30.554 0h-.006a.048.048 0 01-.04-.054l.02-.146.005-.041a.047.047 0 01.054-.04.047.047 0 01.04.054l-.006.041-.02.145a.048.048 0 01-.047.04zm-8.978-.365a.047.047 0 01-.048-.047c0-.026.021-.047.048-.047h.19a.047.047 0 11-.001.093l-.19.001zm-.285 0c-.063-.002-.126-.002-.19-.002a.046.046 0 01-.046-.049c0-.026.021-.046.048-.046l.189.002c.026 0 .047.022.047.047a.046.046 0 01-.047.047zm.758-.004a.048.048 0 01-.047-.047.047.047 0 01.046-.048l.189-.003c.026 0 .047.02.048.046a.046.046 0 01-.046.048l-.19.004zm-1.23-.005h-.001l-.19-.006a.047.047 0 01-.045-.049.047.047 0 01.05-.045l.188.006c.026 0 .046.022.046.048a.049.049 0 01-.048.046zm1.703-.008a.047.047 0 01-.002-.094l.189-.008c.026 0 .048.02.049.046a.047.047 0 01-.046.049l-.189.007h-.001zm-2.176-.007h-.002l-.19-.009a.046.046 0 01-.044-.049.046.046 0 01.05-.044l.188.008a.047.047 0 01.046.05.048.048 0 01-.048.044zm2.649-.013a.048.048 0 01-.048-.045.05.05 0 01.045-.05c.062-.002.126-.006.188-.01a.047.047 0 01.05.044.047.047 0 01-.044.05 5.887 5.887 0 01-.19.01h-.001zm-3.122-.012h-.002a78.31 78.31 0 00-.19-.011.048.048 0 01-.044-.05c0-.025.024-.045.05-.044l.188.011a.047.047 0 01.045.05.046.046 0 01-.047.044zm3.594-.017a.048.048 0 01-.047-.044.047.047 0 01.044-.05l.188-.013a.048.048 0 01.051.043.048.048 0 01-.043.051c-.064.005-.126.01-.19.013H23.8zm-4.066-.014h-.004l-.19-.015a.047.047 0 01-.043-.05.047.047 0 01.051-.044l.189.015a.047.047 0 01.043.05.046.046 0 01-.046.044zM.44 10.766c-.004 0-.007 0-.012-.002a.047.047 0 01-.034-.057c.016-.06.032-.122.05-.183a.048.048 0 01.058-.033c.025.006.04.033.033.058l-.05.181a.047.047 0 01-.045.036zm30.513-.008h-.007a.046.046 0 01-.04-.054l.032-.187a.049.049 0 01.055-.038.047.047 0 01.039.054l-.031.185a.049.049 0 01-.048.04zm-6.683 0a.047.047 0 01-.047-.043.047.047 0 01.043-.05l.189-.018a.046.046 0 01.051.043.047.047 0 01-.043.05l-.188.018h-.005zm-5.01-.017h-.004l-.188-.018a.048.048 0 01-.043-.052.048.048 0 01.052-.043c.063.007.125.013.189.018a.047.047 0 01.042.051.049.049 0 01-.047.044zm5.482-.027a.048.048 0 01-.047-.042.047.047 0 01.042-.052l.188-.02a.047.047 0 01.052.042.047.047 0 01-.042.051l-.189.02a.009.009 0 01-.004.001zm-5.952-.021h-.006a13.423 13.423 0 01-.188-.022.047.047 0 01-.042-.052.048.048 0 01.052-.041l.188.02a.047.047 0 01.042.052.045.045 0 01-.046.043zm6.422-.03a.048.048 0 01-.048-.042.048.048 0 01.042-.053l.188-.023a.048.048 0 01.053.04.048.048 0 01-.041.054c-.063.007-.125.016-.189.022l-.005.001zm-6.893-.026h-.005a11.659 11.659 0 01-.188-.025.047.047 0 01-.04-.052.048.048 0 01.052-.041l.188.024a.047.047 0 01.04.053.047.047 0 01-.047.04zm7.363-.035a.046.046 0 01-.047-.04.047.047 0 01.04-.053c.063-.009.126-.017.188-.027a.048.048 0 01.055.04.048.048 0 01-.04.054l-.188.026h-.008zm-7.832-.028l-.006-.001a13.93 13.93 0 01-.188-.028.048.048 0 01-.04-.053.048.048 0 01.054-.04l.187.027a.047.047 0 01.04.054.046.046 0 01-.047.04zm8.3-.04a.047.047 0 01-.007-.093l.187-.03a.047.047 0 01.054.04.047.047 0 01-.04.053l-.187.03h-.007zm-8.767-.031l-.007-.001-.187-.031a.047.047 0 11.016-.093l.187.03a.046.046 0 01.039.054.05.05 0 01-.048.041zm9.233-.044a.048.048 0 01-.008-.094l.188-.033a.047.047 0 11.017.092l-.187.034h-.01zm-9.7-.035l-.008-.001-.187-.034a.047.047 0 11.017-.092c.062.01.124.022.186.034a.046.046 0 01.038.054.045.045 0 01-.046.039zm10.167-.05a.046.046 0 01-.047-.038.047.047 0 01.038-.055c.062-.01.124-.023.186-.035a.048.048 0 01.056.036.048.048 0 01-.037.056c-.062.012-.124.025-.187.036h-.01zm-10.632-.038h-.01l-.185-.038a.047.047 0 01-.037-.055.047.047 0 01.056-.037l.186.037a.047.047 0 01-.01.093zm-15.88-.023l-.015-.001a.048.048 0 01-.031-.06c.019-.06.038-.12.06-.18a.048.048 0 01.09.031 3.86 3.86 0 00-.06.178.049.049 0 01-.045.032zm30.465-.018l-.01-.001a.047.047 0 01-.038-.056l.037-.186a.048.048 0 01.056-.036c.026.005.042.03.037.055l-.037.184a.044.044 0 01-.045.04zm-3.49-.012a.047.047 0 01-.046-.037.047.047 0 01.037-.056l.185-.039a.046.046 0 01.056.036.046.046 0 01-.036.056 12.767 12.767 0 01-.195.04zm-11.558-.041l-.01-.001-.186-.04a.047.047 0 11.02-.093l.185.04c.026.006.042.03.037.056a.046.046 0 01-.046.038zm12.021-.059a.048.048 0 01-.046-.036.047.047 0 01.036-.057l.183-.042a.047.047 0 11.022.091l-.184.043-.011.001zm-12.483-.044h-.01l-.185-.044a.047.047 0 11.022-.091l.183.043a.046.046 0 01.035.056.046.046 0 01-.045.036zm12.943-.063a.047.047 0 01-.046-.036.046.046 0 01.035-.056l.184-.046a.048.048 0 01.058.034.048.048 0 01-.035.058l-.183.045h-.013zm-13.403-.048c-.004 0-.007 0-.011-.002l-.184-.046a.047.047 0 11.024-.091l.183.045c.025.007.04.033.034.058a.046.046 0 01-.046.036zM28.93 9.96a.047.047 0 01-.046-.035.047.047 0 01.035-.058l.182-.048a.047.047 0 01.058.033.047.047 0 01-.033.058l-.183.048-.013.002zm-14.321-.052c-.004 0-.009 0-.012-.002l-.183-.05a.048.048 0 11.026-.091l.181.05c.026.006.04.033.033.057a.046.046 0 01-.045.036zM.73 9.87c-.005 0-.012 0-.018-.003a.047.047 0 01-.026-.062c.023-.058.049-.117.075-.174a.047.047 0 01.062-.024c.024.01.035.039.024.063a3.88 3.88 0 00-.073.171.046.046 0 01-.044.03zm28.657-.033a.047.047 0 01-.046-.034.048.048 0 01.033-.058l.182-.052a.048.048 0 01.059.032.047.047 0 01-.032.059l-.183.051-.013.002zm1.747-.002l-.01-.001a.047.047 0 01-.036-.057l.042-.184a.047.047 0 01.092.022l-.042.183a.047.047 0 01-.046.037zm-16.98-.052l-.014-.002a10.27 10.27 0 01-.182-.053.048.048 0 01-.032-.058.048.048 0 01.059-.032l.18.052c.026.008.04.033.033.059a.045.045 0 01-.045.034zm15.687-.078a.047.047 0 01-.045-.034.047.047 0 01.032-.058l.181-.055a.047.047 0 01.058.031.047.047 0 01-.03.059l-.182.055c-.005.002-.01.002-.014.002zM13.7 9.648l-.014-.002-.18-.056a.048.048 0 01-.032-.059.048.048 0 01.06-.031l.18.056a.047.047 0 01.031.058.044.044 0 01-.044.034zm16.594-.081a.049.049 0 01-.046-.033.048.048 0 01.031-.06l.18-.057a.047.047 0 11.03.09c-.06.018-.121.038-.18.058l-.015.002zM13.25 9.506l-.016-.002-.18-.06a.048.048 0 01-.03-.06.048.048 0 01.06-.03l.179.06a.047.047 0 01.03.06.044.044 0 01-.043.032zM.926 9.44a.046.046 0 01-.042-.068c.029-.056.06-.113.09-.167a.048.048 0 01.064-.02.048.048 0 01.019.065c-.03.055-.06.11-.087.165a.051.051 0 01-.044.025zm29.817-.021a.046.046 0 01-.044-.032.046.046 0 01.029-.06l.179-.061a.048.048 0 01.06.03.048.048 0 01-.029.06l-.179.06-.016.003zm.503-.044c-.004 0-.008 0-.012-.002a.047.047 0 01-.034-.057c.004-.02.01-.04.016-.06l-.01.004a.047.047 0 01-.06-.028.047.047 0 01.028-.06l.072-.026.004-.012a.047.047 0 01.058-.033c.01.003.017.008.023.014l.021-.007a.048.048 0 01.06.028.047.047 0 01-.028.06l-.06.022-.032.123a.05.05 0 01-.046.034zM12.8 9.356l-.016-.003-.179-.062a.046.046 0 01-.028-.06.047.047 0 01.06-.029l.179.062a.048.048 0 01.029.06.05.05 0 01-.046.032zm-.447-.159c-.005 0-.011 0-.016-.003l-.178-.066a.047.047 0 11.033-.088l.177.066c.025.01.037.036.029.06a.048.048 0 01-.045.031zm19.28-.096a.048.048 0 01-.045-.03.046.046 0 01.027-.06l.177-.067a.047.047 0 11.034.089l-.178.067-.016.001zm-19.723-.07a.054.054 0 01-.017-.003l-.176-.068a.047.047 0 11.035-.088l.176.069c.025.01.037.037.027.061a.051.051 0 01-.045.03zm-10.755 0a.046.046 0 01-.024-.007.046.046 0 01-.015-.065c.033-.054.068-.108.102-.16a.047.047 0 01.065-.014.047.047 0 01.014.065 8.902 8.902 0 00-.102.158.045.045 0 01-.04.022zm30.918-.1a.046.046 0 01-.044-.03.047.047 0 01.027-.061l.175-.07a.048.048 0 01.062.025.047.047 0 01-.026.061l-.176.07a.038.038 0 01-.018.004zm-.703-.008l-.013-.002a.047.047 0 01-.032-.058l.053-.181a.047.047 0 01.06-.032.047.047 0 01.03.059l-.053.179a.045.045 0 01-.045.035zm-19.9-.065a.041.041 0 01-.018-.004l-.175-.072a.047.047 0 01-.025-.06.047.047 0 01.061-.026l.175.071c.024.01.035.038.025.062a.045.045 0 01-.042.029zm21.042-.106a.046.046 0 01-.044-.029.046.046 0 01.026-.061l.137-.058.037-.016a.048.048 0 01.062.025.048.048 0 01-.024.062l-.037.016-.138.058-.02.003zm-21.478-.076a.048.048 0 01-.02-.004l-.174-.075a.048.048 0 01-.024-.063.048.048 0 01.062-.024l.174.074c.023.01.035.038.024.063a.045.045 0 01-.042.029zM1.422 8.64a.047.047 0 01-.029-.01.047.047 0 01-.01-.065l.117-.151a.047.047 0 01.067-.008c.02.016.023.046.007.066-.039.048-.076.098-.114.148a.046.046 0 01-.038.02zm31.524-.074a.047.047 0 01-.02-.09l.173-.078c.024-.01.052 0 .062.023.01.024 0 .052-.023.063l-.174.077a.036.036 0 01-.018.005zm-22.344-.08c-.007 0-.013 0-.02-.003l-.171-.078a.046.046 0 01-.024-.062.048.048 0 01.062-.023l.173.077c.023.01.034.038.023.062a.05.05 0 01-.043.027zm20.908-.012c-.004 0-.01 0-.014-.002a.047.047 0 01-.03-.06l.06-.178a.047.047 0 01.088.03l-.06.178a.046.046 0 01-.044.032zm1.866-.104a.047.047 0 01-.02-.09 6.84 6.84 0 00.171-.082.048.048 0 01.064.022.047.047 0 01-.022.063l-.172.08a.034.034 0 01-.02.007zM10.17 8.292c-.007 0-.013 0-.02-.005l-.172-.078a.046.046 0 01-.024-.062.048.048 0 01.062-.024l.173.079c.024.01.034.038.024.062a.046.046 0 01-.043.028zm-8.45-.018a.044.044 0 01-.032-.012.047.047 0 01-.004-.067l.13-.14a.047.047 0 11.07.065 4.48 4.48 0 00-.128.138.053.053 0 01-.037.016zm32.083-.11a.048.048 0 01-.022-.09l.169-.084a.047.047 0 01.063.02.046.046 0 01-.02.063l-.17.086a.035.035 0 01-.02.005zM9.739 8.097a.05.05 0 01-.02-.004l-.172-.078a.046.046 0 01-.024-.062.048.048 0 01.062-.024l.173.078c.024.01.034.04.024.063a.047.047 0 01-.043.027zm21.925-.068c-.006 0-.01 0-.016-.003a.046.046 0 01-.029-.06l.066-.177a.046.046 0 01.06-.028c.025.01.037.036.028.06l-.065.177a.049.049 0 01-.044.031zm2.56-.08a.048.048 0 01-.042-.025.047.047 0 01.02-.065 5.27 5.27 0 00.165-.09.048.048 0 01.065.02.047.047 0 01-.02.064l-.166.09a.066.066 0 01-.023.005zM2.05 7.936a.048.048 0 01-.033-.082c.046-.044.094-.086.142-.128a.048.048 0 11.063.072 4.37 4.37 0 00-.14.125.043.043 0 01-.032.013zm7.257-.034a.04.04 0 01-.019-.004l-.173-.076a.048.048 0 01-.025-.063.048.048 0 01.063-.024l.173.076c.024.01.035.039.024.063a.046.046 0 01-.043.028zm25.33-.184a.047.047 0 01-.04-.024.046.046 0 01.017-.064c.055-.03.11-.063.163-.094a.047.047 0 11.047.081 9.3 9.3 0 01-.164.095.047.047 0 01-.023.006zM8.873 7.713a.045.045 0 01-.019-.003l-.173-.074a.049.049 0 01-.026-.062.049.049 0 01.063-.026l.174.075c.024.01.035.038.025.062a.046.046 0 01-.044.028zm-6.461-.08a.047.047 0 01-.03-.085c.051-.038.103-.076.155-.112a.048.048 0 01.066.011.048.048 0 01-.011.066c-.052.035-.102.073-.152.11a.047.047 0 01-.028.01zm29.417-.044a.053.053 0 01-.017-.003.047.047 0 01-.026-.061l.07-.176a.047.047 0 01.062-.026c.024.01.036.038.026.061l-.07.175a.05.05 0 01-.044.03zM8.437 7.53c-.005 0-.012 0-.018-.003l-.175-.07a.047.047 0 11.035-.088l.176.07c.025.01.036.039.026.062a.048.048 0 01-.044.03zm26.607-.053a.047.047 0 01-.026-.088l.16-.1a.048.048 0 01.066.014.047.047 0 01-.015.065l-.16.101a.04.04 0 01-.025.008zm-32.242-.11a.05.05 0 01-.04-.022.047.047 0 01.015-.065 3.57 3.57 0 01.166-.096.048.048 0 01.064.02.048.048 0 01-.018.063c-.054.03-.11.062-.162.094a.056.056 0 01-.025.006zm5.195-.01c-.006 0-.012 0-.017-.002a8.28 8.28 0 00-.177-.065.047.047 0 01-.029-.06.048.048 0 01.06-.029l.179.066c.025.01.037.037.027.06a.046.046 0 01-.043.03zm27.445-.136a.05.05 0 01-.04-.02.047.047 0 01.013-.066l.155-.105a.048.048 0 01.067.011.047.047 0 01-.012.066 5.865 5.865 0 01-.157.107.056.056 0 01-.026.007zM7.552 7.2a4.931 4.931 0 00-.194-.061.047.047 0 11.03-.09l.179.06a.047.047 0 01-.015.091zm24.457-.048c-.007 0-.013 0-.018-.003a.049.049 0 01-.026-.063l.075-.173a.048.048 0 01.062-.025c.024.01.035.04.025.063l-.075.172a.047.047 0 01-.043.03zm-28.79-.005a.047.047 0 01-.043-.028.046.046 0 01.023-.062c.058-.026.116-.052.175-.076a.048.048 0 01.062.025.047.047 0 01-.026.062 4.436 4.436 0 00-.171.074.047.047 0 01-.02.005zm3.883-.089c-.005 0-.009 0-.014-.002a7.55 7.55 0 00-.18-.05.047.047 0 01-.034-.058.047.047 0 01.058-.033c.06.016.121.034.183.052.025.007.04.034.032.058a.049.049 0 01-.045.033zm-3.444-.085a.047.047 0 01-.044-.032.046.046 0 01.03-.06l.183-.056a.047.047 0 11.027.09 5.62 5.62 0 00-.196.058zm32.171-.021a.046.046 0 01-.038-.02.046.046 0 01.01-.065l.152-.112a.047.047 0 01.066.009c.017.02.012.05-.01.066l-.152.113a.054.054 0 01-.028.009zM6.645 6.937l-.011-.001-.183-.042a.047.047 0 11.02-.091l.185.041a.047.047 0 01-.01.093zm-2.53-.088a.048.048 0 01-.047-.037.046.046 0 01.036-.056c.062-.013.125-.025.188-.036a.048.048 0 01.055.038.048.048 0 01-.039.055 3.98 3.98 0 00-.184.036h-.01zm2.068-.009h-.009c-.061-.012-.124-.021-.184-.03a.047.047 0 11.014-.094l.187.03a.05.05 0 01.04.055.048.048 0 01-.048.04zm-.468-.066H5.71a4.257 4.257 0 00-.187-.016.047.047 0 11.007-.093c.063.005.126.01.19.017a.048.048 0 01.042.052.048.048 0 01-.047.04zm-1.133 0a.048.048 0 01-.047-.043.047.047 0 01.041-.052 6.23 6.23 0 01.19-.017.047.047 0 11.007.093c-.062.005-.125.01-.186.017l-.005.001zm.661-.029c-.063 0-.126-.002-.188 0a.047.047 0 01-.049-.047c0-.026.021-.047.047-.048a4.27 4.27 0 01.19 0 .047.047 0 01.046.049c0 .025-.02.046-.046.046zM32.2 6.721a.05.05 0 01-.02-.004.047.047 0 01-.024-.062l.08-.172a.047.047 0 01.063-.023.046.046 0 01.022.063l-.08.17a.043.043 0 01-.041.028zm4.005-.056a.046.046 0 01-.037-.018.046.046 0 01.008-.066l.146-.119a.047.047 0 11.06.072l-.147.12a.049.049 0 01-.03.011zm.363-.304a.046.046 0 01-.035-.016.048.048 0 01.004-.067l.14-.125a.047.047 0 11.064.07l-.14.127a.056.056 0 01-.033.011zM32.4 6.294a.047.047 0 01-.043-.068l.083-.17a.048.048 0 01.064-.02c.024.01.033.039.022.062l-.084.17a.045.045 0 01-.042.026zm4.513-.253a.047.047 0 01-.033-.081c.044-.044.09-.089.132-.133a.048.048 0 01.067-.001.047.047 0 01.001.067l-.134.134a.045.045 0 01-.033.014zm-4.301-.169a.046.046 0 01-.022-.006.047.047 0 01-.02-.063c.028-.055.057-.112.087-.167a.047.047 0 01.083.043c-.03.055-.059.112-.087.167a.044.044 0 01-.041.026zm4.63-.17a.048.048 0 01-.033-.012.047.047 0 01-.003-.067c.043-.046.085-.093.125-.14a.048.048 0 01.067-.004c.02.017.022.047.005.067l-.127.141a.05.05 0 01-.035.015zm-4.41-.248a.047.047 0 01-.042-.07l.092-.165a.048.048 0 01.064-.02.047.047 0 01.02.065l-.092.166a.048.048 0 01-.041.024zm4.719-.108a.053.053 0 01-.03-.01.046.046 0 01-.007-.066l.118-.146a.047.047 0 01.074.057c-.038.05-.078.1-.118.148a.048.048 0 01-.037.017zm-4.49-.304a.056.056 0 01-.024-.006.047.047 0 01-.018-.064l.094-.164a.048.048 0 01.065-.018c.022.013.03.041.017.064a31.74 31.74 0 00-.093.163.044.044 0 01-.041.025zm4.777-.07a.047.047 0 01-.039-.075c.037-.052.073-.103.106-.153a.047.047 0 01.079.052 5.58 5.58 0 01-.108.156.044.044 0 01-.038.02zm-4.541-.339a.043.043 0 01-.024-.006.047.047 0 01-.017-.064l.097-.163a.047.047 0 01.065-.016c.023.014.03.043.016.065l-.095.163a.052.052 0 01-.042.021zm4.798-.056a.043.043 0 01-.024-.007.047.047 0 01-.017-.064 3.17 3.17 0 00.09-.163.047.047 0 01.064-.02c.022.012.032.04.02.063-.029.055-.06.112-.093.167a.044.044 0 01-.04.024zm-4.556-.348a.047.047 0 01-.04-.072l.098-.161a.047.047 0 01.066-.015.047.047 0 01.015.065l-.099.16a.045.045 0 01-.04.023zm4.769-.073a.047.047 0 01-.044-.066c.025-.057.048-.116.069-.172a.047.047 0 01.06-.029.046.046 0 01.029.06c-.021.06-.045.12-.07.179a.047.047 0 01-.044.028zm-4.52-.329a.04.04 0 01-.025-.007.047.047 0 01-.015-.065l.042-.067.061-.094a.047.047 0 01.065-.013.047.047 0 01.014.065l-.06.09a1.252 1.252 0 01-.042.068.046.046 0 01-.04.023zm4.67-.117h-.01a.048.048 0 01-.036-.058c.015-.06.028-.12.038-.181a.047.047 0 01.055-.039.047.047 0 01.039.055c-.01.062-.024.125-.04.188a.046.046 0 01-.045.035zm-4.402-.27a.046.046 0 01-.037-.075c.037-.049.077-.1.118-.15a.047.047 0 01.066-.006c.02.016.024.046.007.066-.04.05-.08.099-.116.147a.05.05 0 01-.038.018zm4.472-.194h-.002a.047.047 0 01-.046-.05l.002-.081c0-.034 0-.07-.003-.103a.05.05 0 01.045-.05.047.047 0 01.05.045 2.028 2.028 0 010 .193c0 .026-.02.046-.046.046zm-4.171-.17a.049.049 0 01-.031-.011.047.047 0 01-.005-.067c.04-.047.084-.095.127-.142a.048.048 0 01.067-.003c.02.018.021.048.003.067a7.84 7.84 0 00-.126.14.049.049 0 01-.035.016zm4.137-.3a.047.047 0 01-.047-.039 1.952 1.952 0 00-.042-.179.047.047 0 01.09-.026c.019.061.033.124.045.188a.047.047 0 01-.038.054c-.003.002-.006.002-.008.002zm-3.816-.046a.05.05 0 01-.033-.013.047.047 0 01-.001-.067l.134-.134a.048.048 0 01.068 0 .048.048 0 01-.001.068 4.17 4.17 0 00-.133.133.052.052 0 01-.034.013zm.34-.33a.047.047 0 01-.032-.081c.047-.044.095-.086.141-.127a.05.05 0 01.067.003.048.048 0 01-.004.067c-.046.04-.092.083-.14.126a.044.044 0 01-.032.013zm3.334-.072a.047.047 0 01-.043-.027 1.633 1.633 0 00-.086-.162.047.047 0 01.081-.05c.033.055.064.113.091.172a.046.046 0 01-.024.063.04.04 0 01-.02.004zm-2.978-.236a.048.048 0 01-.037-.017.047.047 0 01.007-.066c.051-.042.101-.081.15-.118a.048.048 0 01.066.008.048.048 0 01-.009.066 5.577 5.577 0 00-.147.116.045.045 0 01-.03.01zm2.723-.159a.049.049 0 01-.036-.016 1.3 1.3 0 00-.13-.128.047.047 0 11.062-.072c.049.043.095.089.139.138a.048.048 0 01-.005.067.043.043 0 01-.03.011zm-2.342-.122a.047.047 0 01-.04-.022.047.047 0 01.014-.065c.053-.035.11-.068.166-.098a.048.048 0 01.065.019.048.048 0 01-.02.064 2.74 2.74 0 00-.158.094.05.05 0 01-.027.008zm1.977-.174a.055.055 0 01-.024-.005 1.465 1.465 0 00-.164-.08.047.047 0 11.035-.088c.06.025.12.054.176.085a.048.048 0 01-.023.088zm-1.557-.04a.048.048 0 01-.045-.03.048.048 0 01.027-.062c.06-.023.12-.044.183-.063a.047.047 0 01.058.032.047.047 0 01-.032.059 2.41 2.41 0 00-.191.064zm1.115-.121h-.01a1.869 1.869 0 00-.182-.026.047.047 0 01-.043-.051.047.047 0 01.05-.044c.066.006.13.014.193.027.026.004.043.03.037.055a.047.047 0 01-.045.039zm-.66-.005a.047.047 0 01-.007-.093c.064-.01.129-.018.192-.023a.047.047 0 11.007.093 2.307 2.307 0 00-.184.022l-.008.001zm4.252 20.373c-.002 0-.002 0 0 0-.033 0-.065 0-.096-.002a.046.046 0 01-.047-.048c0-.025.022-.046.048-.046l.095.002c.027 0 .048.022.047.048a.048.048 0 01-.047.046z" fill="#85C74C"/><path d="M29.613 16.852a.353.353 0 11-.001-.705.353.353 0 01.001.706zm0-.559a.209.209 0 00-.208.208.209.209 0 00.416 0 .208.208 0 00-.208-.208zM8.798 5.764a.353.353 0 11.353-.352.353.353 0 01-.353.352zm0-.56a.209.209 0 00-.209.208.209.209 0 00.417 0 .208.208 0 00-.208-.207z" fill="#FFC057"/><path d="M4.775 20.84h-.187v-.262a.053.053 0 00-.053-.053.053.053 0 00-.053.053v.26h-.187a.053.053 0 100 .106h.187v.262c0 .029.024.052.053.052.03 0 .053-.023.053-.052v-.262h.187a.052.052 0 00.053-.052.053.053 0 00-.053-.052zm27.82-17.842h-.28v-.392a.08.08 0 00-.08-.08.08.08 0 00-.08.08v.392h-.279a.08.08 0 100 .158h.28v.393a.08.08 0 00.08.079.08.08 0 00.079-.08v-.392h.28a.08.08 0 100-.158zm-21.57-.472l-.856-.13a.118.118 0 11.036-.234l.856.13a.118.118 0 11-.036.234zm1.251-.916a.118.118 0 01-.1-.135l.131-.851a.118.118 0 01.136-.099c.065.01.11.07.099.135l-.13.851a.118.118 0 01-.136.1zm-.831.181a.117.117 0 01-.078-.047l-.498-.675a.118.118 0 01.025-.166.12.12 0 01.167.025l.497.674a.118.118 0 01-.025.166.115.115 0 01-.088.023z" fill="#85C74C"/><path d="M27.417 21.816c2.236 0 4.05-1.804 4.05-4.03 0-2.227-1.814-4.032-4.05-4.032-2.237 0-4.05 1.805-4.05 4.031 0 2.227 1.813 4.031 4.05 4.031z" fill="#F7F7F7"/><path d="M22.677 20.643l-11.51-.97a.433.433 0 01-.398-.47l1.367-16.05a.473.473 0 01.512-.43l11.472.967c.24.02.418.23.397.469l-1.37 16.088a.436.436 0 01-.47.396z" fill="#F7F7F7"/><path d="M26.862 14.015c.605-3.738-1.963-7.254-5.734-7.854-3.772-.599-7.32 1.946-7.925 5.684-.604 3.737 1.963 7.253 5.735 7.853 3.771.599 7.32-1.945 7.924-5.683z" fill="#B9D1DF"/><path d="M13.665 15.893s-.673 1.407-.655 1.858c.018.45 1.893.56 1.893.56l.728-2.093-1.966-.325z" fill="#EAA769"/><path d="M16.323 12.394s-1.22.36-1.893 1.713a39.339 39.339 0 00-.947 2.003l2.53.577s.692-1.858.71-1.985c.018-.144-.4-2.308-.4-2.308z" fill="#3B6A88"/><path d="M23.639 21.845h-7.371c.109-.253.436-.866.71-1.353.2-.38.363-.668.363-.668-1.2-2.489-1.365-6.854-1.2-7.251.181-.397 2.092-.776 2.092-.776s2.312-.288 2.567-.343c.2-.054 1.31.451 2.002.776.182.09.346.162.437.217.819.397.855 5.736.91 6.295.054.56-.51 3.103-.51 3.103z" fill="#457B9D"/><path d="M23.639 21.845h-1.875c.583-.794 1.201-2.309 1.31-2.958.055-.343-1.128-1.533-1.62-3.5-.509-1.966.856-2.67.856-2.67l.473-.468c.182.09.346.162.437.216.82.397.856 5.736.91 6.296.073.54-.491 3.084-.491 3.084zm-2.893-1.768s-1.584.83-3.786.415c.2-.379.364-.667.364-.667s2.348.45 3.422.252z" fill="#3B6A88"/><path d="M17.323 15.207s.073-.397.219-.667c.163-.271.491-.704.527-.956.019-.253.146-.343.31-.199.145.126.182.487.054.704-.109.216-.09.415-.072.415.018 0 .764-.47.964-.614.2-.144 1.02-.523 1.183-.487.164.036.146.18 0 .289-.145.108-.691.415-.855.54-.182.127-.437.344-.4.38.036.036.691-.361.891-.451.2-.09.783-.27.892-.253.11.018.128.18-.054.325 0 0 .127.09-.037.252-.164.163-1.201.938-1.165.957.037.018.82-.073.929-.073.109.018.018.199-.182.307-.2.108-.82.307-1.056.397-.237.09-.8.397-1.074.379-.291 0-.473-.09-.473-.09l-.6-1.155z" fill="#FFB774"/><path d="M17.324 15.206s-1.839.704-2.894 1.263c-1.056.54-1.966 1.335-1.092 2.236.855.902 3.967-1.695 4.586-2.362l-.6-1.137z" fill="#FFB774"/><path d="M20.127 9.507c.073.072.855 2.092.946 2.435 0 0-.2.866-1.547.902-1.347.036-1.438-1.1-1.438-1.1s-.018-.938-.127-1.353l2.166-.884z" fill="#EAA769"/><path d="M14.903 6.891s.237 1.515.637 2.381l.474.018-.091-3.03-1.02.631z" fill="#000"/><path d="M16.068 9.308s-.492-.415-.71-.144c-.219.27-.128.812.273 1.118.4.307.637 0 .637 0l-.2-.974z" fill="#EAA769"/><path d="M15.63 6.765c-.218.487.146 2.741.4 3.68.201.72.93 1.659 2.385 1.497.928-.109 1.911-1.3 1.893-1.858-.036-.848-.273-1.425-.346-1.84 0 0-.255-1.606-.819-2.291-.4-.433-3.112-.072-3.513.812z" fill="url(#paint0_linear_319_10807)"/><path d="M20.727 5.7c.018.145-.4 0-.419 0 .765 1.642.273 2.977.273 2.977h-.673c-.055-.956-.382-1.912-.819-2.4-.182-.198-.364-.342-.564-.36-.692-.09-1.893 1.1-2.039.992-.145-.108.255-.685.273-.722-.036.037-1.128 1.173-1.256 1.083-.127-.09.128-.541.128-.56-.018.037-.655.903-.928.65s-.019-.92-.019-.956c-.018.036-.345.631-.455.36-.145-.342.328-1.352 1.11-1.875.838-.56 1.894-.361 1.948-.361-.036-.018-.546-.253-.182-.343.382-.108 1.529.307 1.565.325-.018-.018-.455-.451-.2-.487.255-.036.856.469.892.487-.018-.036-.364-.631-.018-.397.4.27.51.956.51.956.327.072.855.487.873.631z" fill="#000"/><path d="M20.6 8.676h-.674c-.054-.956-.382-1.912-.819-2.399 1.002.198 1.22-.56 1.22-.56.746 1.642.273 2.96.273 2.96z" fill="#000"/><path d="M19.708 8.822s.4-.559.765-.378c.364.18.436.721.09 1.154-.345.433-.728.217-.728.217l-.127-.993z" fill="#FFB774"/><path opacity=".4" d="M16.323 9.253c-.018 0-.018 0-.018-.018-.018-.018-.018-.036 0-.054l2.02-1.714c.018-.018.036-.018.055 0 .018.018.018.036 0 .054l-2.04 1.732h-.018zm.691-.143c-.018 0-.018 0-.018-.019-.018-.018-.018-.036 0-.054l1.383-1.173c.018-.018.037-.018.055 0 .018.018.018.036 0 .055L17.05 9.09c-.018.018-.037.018-.037.018zm.529-.091c-.019 0-.019 0-.019-.018-.018-.018-.018-.036 0-.054l.765-.631c.018-.019.036-.019.054 0 .019.018.019.036 0 .054L17.58 9c-.018 0-.036.018-.036.018zm-.82-.613c-.018 0-.018 0-.018-.018-.018-.018-.018-.036 0-.054l1.056-.902c.018-.018.036-.018.054 0 .018.018.018.036 0 .054l-1.055.902c-.019.018-.019.018-.037.018z" fill="#DE6B71"/><path d="M15.686 7.973c.073.054.2.108.236.108.2.036.437 0 .638-.072.254-.09.4-.343.163-.487-.109-.072-.327.09-.436.144a2.1 2.1 0 01-.565.199c-.127 0-.109.054-.036.108zm3.53-.559a.716.716 0 01-.2.162c-.182.09-.418.127-.637.109-.273-.018-.491-.217-.31-.415.092-.09.347-.018.456 0 .2.036.4.036.6.036.146-.018.128.036.091.108z" fill="#000"/><path d="M17.47 10.247h-.037c-.055 0-.11-.036-.145-.09-.128-.163-.055-.776-.037-.902 0-.036.037-.054.055-.054.036 0 .054.036.054.054-.036.27-.054.721.018.811.019.018.037.036.073.036a.28.28 0 00.182-.072.056.056 0 01.073 0 .054.054 0 010 .072c-.018.073-.11.145-.236.145z" fill="#EAA769"/><path d="M16.031 9.344c-.018 0-.054-.018-.054-.054 0-.036.018-.054.036-.072l.582-.126-.527-.18c-.037-.019-.055-.037-.037-.073.018-.036.037-.054.073-.036l.728.252c.018 0 .036.037.036.055 0 .018-.018.054-.054.054l-.783.18z" fill="#000"/><path d="M18.416 11.003a.248.248 0 010 .162c-.019.145-.128.253-.292.29a.404.404 0 01-.255-.037.388.388 0 01-.181-.252.531.531 0 01.054-.343.324.324 0 01.218-.163c.128-.018.255.018.328.127.073.054.11.126.128.216z" fill="#AD3B42"/><path d="M18.434 11.166c-.018.144-.128.253-.292.289a.404.404 0 01-.254-.036c.09-.127.254-.29.546-.253z" fill="#FF7882"/><path d="M18.307 10.787a.837.837 0 01-.546.036.325.325 0 01.218-.163.338.338 0 01.328.127z" fill="#fff"/><path d="M18.926 8.568c.036.217-.055.415-.237.451-.164.036-.346-.126-.382-.343-.037-.216.054-.414.236-.45.164-.018.346.126.383.342z" fill="#000"/><path d="M25.732 15.261c-.036-.036-.4-.36-.455-.396-.51.577-1.019 1.226-1.22 1.84l1.002.775c.036-.018-2.075 3.572-2.494 4.383h1.693c.637-.757 1.984-2.399 2.457-3.265.82-1.55.219-2.128-.983-3.337z" fill="#FFB774"/><path d="M22.82 12.286c-.983-.253-1.601 1.731-1.037 2.922.346.721 2.366 2.074 2.366 2.074.4-.45 1.347-1.75 1.857-2.327-1.347-1.299-2.403-2.471-3.186-2.67z" fill="#457B9D"/><path d="M13.483 12.556a.705.705 0 01-.346-1.01.726.726 0 01.437-.325.757.757 0 01.62.126c.017.018.017.036 0 .054-.019.018-.037.018-.055 0a.606.606 0 00-.546-.108.568.568 0 00-.383.289.64.64 0 00-.073.487c.055.18.182.342.364.414.019.018.037.037.019.055 0 .018-.018.018-.037.018z" fill="#fff"/><path d="M13.83 13.349a.564.564 0 01-.292-.09.478.478 0 01-.2-.325.563.563 0 01.09-.38c.073-.107.2-.18.328-.197.018 0 .037.018.037.036s-.018.036-.037.036c-.109.018-.218.072-.273.162a.374.374 0 00-.073.307c.019.108.073.216.164.27.091.072.2.09.31.072.109-.018.218-.072.273-.162.018-.018.036-.018.054 0 .018.018.018.036 0 .054a.483.483 0 01-.327.199c0 .018-.037.018-.055.018zm1.127-1.317c-.018 0-.018 0-.036-.018s-.018-.036 0-.054a.426.426 0 00.072-.595.474.474 0 00-.29-.163.395.395 0 00-.31.09.468.468 0 00-.164.29c0 .017-.018.035-.036.035-.019 0-.037-.018-.037-.036a.534.534 0 01.182-.343.462.462 0 01.364-.108.542.542 0 01.346.18.489.489 0 01-.073.704s0 .018-.018.018zm-.236.919a.403.403 0 01-.273-.108c-.018-.018-.018-.036 0-.054.018-.018.037-.018.055 0 .127.126.328.108.455-.018s.11-.325-.018-.45c-.019-.019-.019-.037 0-.055.018-.018.036-.018.054 0 .164.144.164.397.018.56a.364.364 0 01-.29.125zm-.783-2.866c-.019 0-.019 0-.037-.018a.397.397 0 01-.018-.288c.073-.18.255-.253.437-.199.091.036.182.126.2.217 0 .018 0 .036-.018.036s-.036 0-.036-.018a.245.245 0 00-.164-.163.27.27 0 00-.346.145c-.037.072-.018.162.018.234 0 .018 0 .036-.036.054.018 0 .018 0 0 0z" fill="#fff"/><path d="M13.974 10.5c-.036 0-.073 0-.109-.018-.055-.036-.11-.072-.127-.144a.212.212 0 01.018-.18c.054-.127.2-.163.327-.109.019 0 .019.036.019.054 0 .018-.037.018-.055.018a.2.2 0 00-.237.072.153.153 0 000 .127.482.482 0 00.091.108.156.156 0 00.128 0c.018 0 .036 0 .036.018s0 .036-.018.036-.036.018-.073.018zm.637-.235c-.018 0-.036-.018-.036-.036s.018-.036.036-.036a.166.166 0 00.128-.054c.036-.036.054-.072.036-.127 0-.09-.09-.162-.182-.162a.166.166 0 00-.127.054c-.018.018-.037.018-.055 0-.018-.018-.018-.036 0-.054.037-.054.11-.072.164-.072.127 0 .255.09.255.234.018.127-.073.235-.219.253zm-.236.307a.177.177 0 01-.182-.144c0-.018 0-.036.019-.036.018 0 .036 0 .036.018.018.072.073.108.146.09.036 0 .054-.018.072-.054.019-.036.019-.054.019-.09 0-.018 0-.036.018-.036s.036 0 .036.018a.14.14 0 01-.036.144.327.327 0 01-.128.09c.019 0 .037 0 0 0zm8.81-.236c-.019 0-.019 0-.037-.018s-.018-.036 0-.054a.558.558 0 00.164-.47.571.571 0 00-1.056-.216c-.018.019-.036.019-.054.019-.018-.019-.018-.037-.018-.055a.71.71 0 01.473-.306.663.663 0 01.728.559c.018.198-.037.397-.182.523 0 .018-.018.018-.018.018z" fill="#fff"/><path d="M21.619 10.174c-.018 0-.018 0-.018-.018a.45.45 0 01-.146-.325c0-.253.182-.469.437-.469a.44.44 0 01.328.126.45.45 0 01.145.325c0 .018-.018.036-.036.036s-.037-.018-.037-.036a.315.315 0 00-.127-.253.372.372 0 00-.273-.108c-.2 0-.364.18-.364.397a.32.32 0 00.127.253c.018.018.018.036 0 .054-.018 0-.036.018-.036.018zm1.274.992c-.146 0-.31-.072-.383-.217-.018-.018 0-.036.019-.054.018-.018.036 0 .054.018.11.18.346.235.528.126a.318.318 0 00.164-.234.415.415 0 00-.291-.47c-.019 0-.037-.017-.037-.053 0-.018.018-.036.055-.036a.562.562 0 01.291.198.384.384 0 01.055.343.557.557 0 01-.2.288.486.486 0 01-.255.09zm-.838-.162a.328.328 0 01-.273-.127.364.364 0 01.037-.505c.018-.018.036-.018.055 0 .018.018.018.037 0 .055-.128.09-.128.27-.037.396.091.127.273.127.4.037.019-.018.037-.018.055 0 .018.018.018.036 0 .054a.385.385 0 01-.237.09z" fill="#fff"/></g><defs><linearGradient id="paint0_linear_319_10807" x1="18.313" y1="11.711" x2="17.6" y2="6.352" gradientUnits="userSpaceOnUse"><stop offset=".404" stop-color="#FFB774"/><stop offset=".74" stop-color="#F4BE97"/><stop offset=".815" stop-color="#F2BD9F"/><stop offset="1" stop-color="#F5AD9D"/></linearGradient><clipPath id="clip0_319_10807"><path fill="#fff" d="M0 0h41v24H0z"/></clipPath></defs></svg>