<svg width="41" height="24" fill="none" xmlns="http://www.w3.org/2000/svg"><g clip-path="url(#clip0_319_10715)"><path d="M28.29 22.934c2.237 0 4.05-1.805 4.05-4.031s-1.813-4.031-4.05-4.031c-2.236 0-4.05 1.805-4.05 4.03 0 2.227 1.814 4.032 4.05 4.032z" fill="#F7F7F7"/><path d="M15.155 23.883h-.002l-.095-.004a.048.048 0 01-.045-.05.047.047 0 01.049-.044c.031 0 .063.003.095.003a.047.047 0 01-.002.094zm-.378-.019h-.003l-.19-.014a.047.047 0 01-.043-.05.047.047 0 01.05-.044l.188.014a.047.047 0 01.045.05.048.048 0 01-.047.044zm-.472-.038H14.3a6.027 6.027 0 01-.189-.02.047.047 0 01-.041-.052.048.048 0 01.052-.041l.188.019a.048.048 0 01.042.052.047.047 0 01-.047.042zm-.47-.053h-.006l-.187-.025a.047.047 0 11.014-.093l.186.025a.047.047 0 01.041.053.049.049 0 01-.048.04zm-.467-.067c-.003 0-.005 0-.008-.002l-.186-.03a.048.048 0 01-.04-.055.049.049 0 01.056-.039c.061.01.124.022.186.031a.046.046 0 01.038.054.048.048 0 01-.046.04zm-.466-.084h-.01l-.185-.038a.048.048 0 01-.037-.056.048.048 0 01.056-.037c.061.014.124.026.184.037.026.005.043.03.037.056a.045.045 0 01-.045.038zm-.462-.098h-.01a12.339 12.339 0 01-.186-.044.047.047 0 01-.035-.056.047.047 0 01.057-.035l.184.043a.047.047 0 01.036.057.048.048 0 01-.046.035zm-.46-.11l-.012-.003-.184-.049a.047.047 0 01-.033-.057.048.048 0 01.058-.033l.182.049c.025.006.04.032.034.057a.046.046 0 01-.045.035zm-.456-.127l-.013-.002-.182-.055a.048.048 0 01-.03-.06.048.048 0 01.059-.03l.18.055c.025.007.04.033.033.058a.05.05 0 01-.046.034zm-.451-.14a.05.05 0 01-.016-.003l-.18-.06a.047.047 0 01-.029-.061.048.048 0 01.06-.03l.18.061a.048.048 0 01.03.06.049.049 0 01-.045.032zm-.447-.155a.048.048 0 01-.017-.003c-.058-.022-.119-.043-.178-.066a.047.047 0 11.033-.088c.06.022.119.045.178.065a.047.047 0 01-.016.092zm-.442-.168a.045.045 0 01-.018-.004 6.512 6.512 0 01-.176-.072.046.046 0 01-.026-.06.047.047 0 01.062-.026c.058.023.116.048.175.07a.048.048 0 01-.017.091zm-.437-.182c-.006 0-.012 0-.019-.004l-.173-.076a.047.047 0 01-.024-.062c.01-.024.04-.034.063-.024l.172.076c.024.01.035.04.025.063a.049.049 0 01-.044.027zm-.43-.195a.052.052 0 01-.02-.005l-.172-.082a.047.047 0 01-.022-.063.047.047 0 01.064-.022l.17.082c.024.012.034.04.023.064a.052.052 0 01-.044.026zm-.425-.21a.044.044 0 01-.022-.005c-.056-.03-.113-.058-.168-.088a.048.048 0 01-.02-.064.048.048 0 01.064-.02 9 9 0 00.168.087c.023.012.032.04.02.063a.048.048 0 01-.042.028zm-.418-.221a.049.049 0 01-.022-.006c-.055-.03-.111-.06-.166-.092a.048.048 0 01-.018-.064.048.048 0 01.064-.018l.165.092a.046.046 0 01.018.064.047.047 0 01-.04.024zm32.007-.181h-.002a12.797 12.797 0 01-.19-.008.047.047 0 01-.045-.049.047.047 0 01.05-.045l.188.008a.047.047 0 01.046.049.047.047 0 01-.047.045zm-.472-.024h-.002a11.933 11.933 0 01-.189-.013.047.047 0 01-.044-.05.047.047 0 01.051-.044c.063.005.126.01.188.013a.048.048 0 01.044.05.049.049 0 01-.048.044zm-31.945-.03a.046.046 0 01-.025-.007c-.055-.032-.108-.065-.162-.098a.046.046 0 01-.016-.065.047.047 0 01.066-.015l.16.097c.023.013.03.042.017.065a.045.045 0 01-.04.022zm31.474-.006h-.004a13.387 13.387 0 01-.189-.02.047.047 0 01-.041-.051.047.047 0 01.052-.041l.187.018a.047.047 0 01.043.051.047.047 0 01-.048.043zm-.468-.051h-.006a11.512 11.512 0 01-.188-.025.048.048 0 01-.04-.053.048.048 0 01.053-.04l.186.024a.047.047 0 01-.006.093zm-.468-.065l-.008-.001a5.991 5.991 0 01-.187-.031.048.048 0 01-.038-.055.049.049 0 01.054-.039l.186.03a.048.048 0 01.04.054.049.049 0 01-.047.042zm-.465-.082l-.01-.001-.186-.038a.048.048 0 01-.037-.056.048.048 0 01.056-.036c.06.012.123.025.185.036.026.005.043.03.038.056a.046.046 0 01-.047.039zM7.66 21.532a.05.05 0 01-.025-.007 9.536 9.536 0 01-.16-.104.047.047 0 01-.012-.065.047.047 0 01.065-.013l.158.103a.047.047 0 01-.026.086zm30.014-.052l-.01-.001c-.062-.014-.123-.03-.184-.045a.047.047 0 11.024-.091c.06.015.122.03.182.043a.046.046 0 01.036.057.05.05 0 01-.048.037zm-.457-.116l-.013-.002a8.344 8.344 0 01-.181-.052.047.047 0 11.026-.09l.18.05a.048.048 0 01-.013.093zm-29.95-.094a.044.044 0 01-.027-.008l-.155-.109a.047.047 0 01-.012-.066.047.047 0 01.066-.01l.155.107a.048.048 0 01.012.066.048.048 0 01-.04.02zm29.497-.04l-.014-.001a6.312 6.312 0 01-.18-.06.047.047 0 11.03-.089l.178.06a.047.047 0 01-.014.09zm-.446-.152a.045.045 0 01-.017-.003 7.275 7.275 0 01-.177-.067.047.047 0 01-.026-.061.047.047 0 01.062-.026l.176.066a.047.047 0 01.028.06.054.054 0 01-.046.031zm-29.437-.082a.047.047 0 01-.029-.01c-.05-.037-.102-.075-.151-.114a.047.047 0 01-.009-.066.047.047 0 01.067-.008l.15.113a.047.047 0 01.01.066.048.048 0 01-.038.019zm28.997-.091a.04.04 0 01-.018-.004 13.69 13.69 0 01-.174-.076.046.046 0 01-.024-.062.047.047 0 01.063-.024c.056.026.114.05.172.075.024.01.035.038.026.062a.05.05 0 01-.045.028zm-.43-.194a.053.053 0 01-.02-.005 8.461 8.461 0 01-.171-.083.047.047 0 01-.021-.064.048.048 0 01.063-.02l.169.083c.024.011.033.04.022.063a.045.045 0 01-.042.026zM6.507 20.71a.049.049 0 01-.03-.01l-.147-.119a.047.047 0 11.06-.073c.048.04.097.08.146.118a.047.047 0 01.008.066.05.05 0 01-.037.018zm28.521-.213a.052.052 0 01-.022-.005 6.355 6.355 0 01-.166-.093.047.047 0 11.047-.081l.164.092a.048.048 0 01.02.064.047.047 0 01-.043.023zM6.141 20.41a.047.047 0 01-.03-.012 8.666 8.666 0 01-.144-.123.048.048 0 11.062-.072l.143.124c.02.017.022.047.006.066a.05.05 0 01-.037.017zm28.48-.15a.04.04 0 01-.025-.007c-.054-.033-.108-.068-.161-.102a.047.047 0 11.05-.079c.053.034.106.068.16.1.022.014.03.043.015.065a.044.044 0 01-.04.024zm-28.834-.162a.048.048 0 01-.032-.013l-.14-.129a.047.047 0 11.066-.069l.138.129c.019.017.02.047.003.066a.052.052 0 01-.035.016zM34.225 20a.05.05 0 01-.027-.008 6.883 6.883 0 01-.155-.11.048.048 0 01-.01-.066.048.048 0 01.066-.01l.153.109a.047.047 0 01-.027.085zm-28.781-.23a.05.05 0 01-.033-.013l-.135-.134a.047.047 0 01.001-.067.048.048 0 01.067.001l.134.133a.046.046 0 010 .067.053.053 0 01-.034.013zm28.401-.05a.05.05 0 01-.03-.011l-.147-.12a.047.047 0 01-.007-.066.048.048 0 01.067-.006c.048.04.097.079.147.118.02.016.023.046.007.066a.046.046 0 01-.037.018zm-28.733-.287a.044.044 0 01-.034-.015l-.129-.139a.047.047 0 11.07-.064l.128.138a.047.047 0 01-.002.067.045.045 0 01-.033.013zm28.37-.017a.044.044 0 01-.03-.012 6.724 6.724 0 01-.142-.129.047.047 0 01-.002-.067.048.048 0 01.068-.002c.045.043.092.085.139.127.02.017.02.047.004.067a.05.05 0 01-.037.016zm-28.715-.292h-.05a.046.046 0 01-.047-.049c0-.025.022-.046.047-.046h.008l-.09-.103a.046.046 0 01.006-.066.047.047 0 01.066.005c.04.047.081.096.123.143.006.006.01.014.01.021.021 0 .042 0 .063-.002a.05.05 0 01.05.046.047.047 0 01-.046.049l-.14.002zm-.333-.017H4.43a3.26 3.26 0 01-.19-.025.048.048 0 01-.04-.054.048.048 0 01.054-.04c.062.01.124.018.185.024a.048.048 0 01.043.052.046.046 0 01-.047.043zm.755-.012a.046.046 0 01-.046-.04.046.046 0 01.04-.053 2.97 2.97 0 00.184-.031.047.047 0 01.056.037.048.048 0 01-.037.055 3.148 3.148 0 01-.19.032H5.19zm27.95-.003a.045.045 0 01-.034-.015 6.14 6.14 0 01-.132-.136.047.047 0 01.069-.065c.044.045.087.09.132.134a.048.048 0 010 .067.055.055 0 01-.035.015zm-29.172-.064h-.011a4.55 4.55 0 01-.186-.05.048.048 0 01-.032-.058.048.048 0 01.059-.032c.06.018.12.034.18.048a.047.047 0 01.036.056.046.046 0 01-.046.036zm1.683-.034a.049.049 0 01-.045-.033.049.049 0 01.031-.059 2.1 2.1 0 00.175-.061.048.048 0 01.062.026.048.048 0 01-.027.061 2.79 2.79 0 01-.196.066zm-2.135-.104a.054.054 0 01-.017-.003 2.894 2.894 0 01-.177-.074.046.046 0 01-.024-.062.048.048 0 01.063-.023c.057.025.114.049.172.071.025.01.037.037.028.061a.05.05 0 01-.045.03zm2.572-.076a.047.047 0 01-.042-.025.047.047 0 01.02-.064c.055-.03.11-.06.16-.093a.047.047 0 11.051.08 2.47 2.47 0 01-.166.096.035.035 0 01-.023.006zm26.728-.067a.049.049 0 01-.036-.016 6.288 6.288 0 01-.125-.144.046.046 0 01.006-.066.047.047 0 01.067.006l.122.142a.047.047 0 01-.005.067.04.04 0 01-.03.011zM4.49 18.724a.045.045 0 01-.037-.018l-.118-.148a.047.047 0 01.008-.066.047.047 0 01.066.008l.118.148c.016.02.013.05-.008.066a.043.043 0 01-.03.01zm-1.405-.032a.05.05 0 01-.023-.006 3.65 3.65 0 01-.165-.097.048.048 0 01-.016-.065.049.049 0 01.066-.015c.052.033.106.064.16.094a.048.048 0 01.02.064.046.046 0 01-.042.025zm3.395-.136a.049.049 0 01-.037-.017.046.046 0 01.007-.066 2.27 2.27 0 00.138-.122.047.047 0 11.066.068 2.619 2.619 0 01-.144.128.06.06 0 01-.03.01zm-3.792-.12a.047.047 0 01-.028-.01 5.774 5.774 0 01-.15-.115.047.047 0 01-.008-.066.047.047 0 01.066-.008c.048.04.098.078.148.115.02.015.025.045.01.066a.042.042 0 01-.038.018zm29.825-.052a.05.05 0 01-.037-.017c-.04-.05-.077-.101-.115-.152a.047.047 0 01.01-.066.048.048 0 01.067.01l.112.15c.017.02.013.05-.008.066a.043.043 0 01-.029.01zM4.2 18.352a.048.048 0 01-.038-.018 5.76 5.76 0 01-.112-.153.048.048 0 01.01-.066.048.048 0 01.067.01l.112.152c.015.02.011.05-.01.066a.062.062 0 01-.029.01zm2.613-.13a.046.046 0 01-.036-.076c.038-.048.075-.098.11-.149a.048.048 0 01.067-.012.048.048 0 01.012.066 2.028 2.028 0 01-.115.153.052.052 0 01-.038.017zm-4.49-.084a.044.044 0 01-.032-.012 4.457 4.457 0 01-.139-.129.046.046 0 010-.067.047.047 0 01.066 0c.046.043.091.085.138.126.02.017.02.047.003.067a.052.052 0 01-.036.015zm29.914-.134a.047.047 0 01-.039-.021 9.618 9.618 0 01-.104-.159.047.047 0 01.08-.05l.103.156a.048.048 0 01-.04.074zm-28.312-.035a.046.046 0 01-.038-.021 9.137 9.137 0 01-.107-.157.047.047 0 01.014-.066.047.047 0 01.065.014c.034.052.07.104.105.155a.047.047 0 01-.012.066.05.05 0 01-.027.009zm3.148-.139a.047.047 0 01-.042-.07c.03-.053.057-.109.083-.165a.048.048 0 01.062-.024c.024.01.035.039.024.062a2.614 2.614 0 01-.085.172.047.047 0 01-.042.025zm-5.089-.02a.044.044 0 01-.034-.016 5.942 5.942 0 01-.129-.14.048.048 0 01.004-.066.049.049 0 01.067.004l.127.137a.047.047 0 01-.001.067.045.045 0 01-.034.013zm30-.204a.047.047 0 01-.04-.024c-.032-.053-.063-.11-.095-.164a.047.047 0 01.018-.064.048.048 0 01.065.018l.093.162a.046.046 0 01-.017.064.037.037 0 01-.023.008zM3.67 17.574a.047.047 0 01-.041-.024 4.692 4.692 0 01-.094-.166.048.048 0 01.084-.044c.03.055.061.11.092.162a.046.046 0 01-.017.064.04.04 0 01-.024.008zm-1.994-.12a.045.045 0 01-.037-.017 5.852 5.852 0 01-.118-.149.047.047 0 01.009-.066.048.048 0 01.066.008c.038.05.077.1.116.148.016.02.013.05-.007.066a.04.04 0 01-.03.01zm5.586-.056a.043.043 0 01-.015-.003.047.047 0 01-.03-.059 2.59 2.59 0 00.054-.177.047.047 0 01.091.024 2.75 2.75 0 01-.056.183.047.047 0 01-.044.032zm24.498-.205a.049.049 0 01-.042-.026 11.653 11.653 0 01-.085-.17.048.048 0 01.022-.063.048.048 0 01.064.022c.027.057.055.112.083.168a.046.046 0 01-.02.063.04.04 0 01-.021.006zm-28.31-.037a.047.047 0 01-.042-.027 5.675 5.675 0 01-.077-.175.046.046 0 01.026-.061.047.047 0 01.062.026c.023.057.049.114.074.17a.046.046 0 01-.023.062.034.034 0 01-.02.005zm-2.06-.076a.047.047 0 01-.038-.02 9.36 9.36 0 01-.107-.158.047.047 0 01.013-.064.047.047 0 01.065.013l.105.154a.047.047 0 01-.011.066.045.045 0 01-.027.009zm5.988-.137H7.37a.047.047 0 01-.038-.056c.011-.06.02-.121.028-.183a.048.048 0 01.053-.04.047.047 0 01.041.052 3.92 3.92 0 01-.03.188.047.047 0 01-.046.04zm24.18-.174a.047.047 0 01-.044-.029 5.459 5.459 0 01-.074-.174.047.047 0 01.026-.061.048.048 0 01.061.025l.073.173a.047.047 0 01-.042.066zM3.273 16.72a.047.047 0 01-.045-.031l-.06-.18a.049.049 0 01.032-.06.049.049 0 01.06.031c.017.06.037.119.058.177a.048.048 0 01-.03.06l-.015.003zm-2.14-.036a.048.048 0 01-.04-.023 9.073 9.073 0 01-.096-.164.046.046 0 01.018-.064.047.047 0 01.065.018c.03.054.062.108.094.162a.047.047 0 01-.016.065.077.077 0 01-.024.006zm6.301-.21h-.003a.047.047 0 01-.044-.05 3.73 3.73 0 00.006-.186c0-.027.022-.047.049-.046.026 0 .047.021.046.048a4.18 4.18 0 01-.007.19.047.047 0 01-.047.044zm23.946-.143a.047.047 0 01-.044-.03 10.387 10.387 0 01-.064-.18.048.048 0 01.09-.031c.02.06.041.119.063.177a.047.047 0 01-.027.06.044.044 0 01-.018.004zm-30.476-.06a.049.049 0 01-.043-.025 7.1 7.1 0 01-.085-.17.048.048 0 01.021-.063.048.048 0 01.064.022c.026.056.055.112.083.168a.046.046 0 01-.02.063.035.035 0 01-.02.006zm2.232-.002a.046.046 0 01-.045-.036 6.533 6.533 0 01-.044-.185.046.046 0 01.036-.055.046.046 0 01.056.036c.013.06.028.121.043.181a.047.047 0 01-.034.058h-.012zm4.301-.266a.047.047 0 01-.047-.045 6.423 6.423 0 00-.012-.187.047.047 0 01.044-.05.047.047 0 01.051.043c.005.063.01.127.011.19a.047.047 0 01-.045.048l-.002.001zm23.79-.118a.048.048 0 01-.045-.033c-.02-.06-.037-.12-.055-.18a.047.047 0 01.032-.06.047.047 0 01.059.033l.053.179a.049.049 0 01-.03.06l-.014.001zm-30.525-.04a.047.047 0 01-.044-.028 4.514 4.514 0 01-.073-.175.047.047 0 01.027-.061.047.047 0 01.061.026l.072.174c.01.023 0 .051-.024.062a.07.07 0 01-.02.003zm2.34-.037a.048.048 0 01-.047-.04 4.14 4.14 0 01-.026-.188.048.048 0 01.041-.053.048.048 0 01.053.042c.008.06.016.123.027.184a.047.047 0 01-.039.054h-.01zm4.353-.274a.048.048 0 01-.047-.04c-.009-.061-.017-.123-.028-.185a.046.046 0 01.04-.053.047.047 0 01.053.038l.029.188a.047.047 0 01-.041.053h-.006zm23.703-.101a.046.046 0 01-.045-.036l-.046-.184a.047.047 0 01.035-.056.047.047 0 01.057.034c.014.062.03.122.045.182a.047.047 0 01-.034.058.035.035 0 01-.012.002zm-30.57-.026a.047.047 0 01-.044-.03 5.78 5.78 0 01-.06-.18.048.048 0 01.03-.06.048.048 0 01.06.03 6.5 6.5 0 00.059.177.047.047 0 01-.03.06.04.04 0 01-.015.003zm2.46-.068a.048.048 0 01-.048-.044 4.28 4.28 0 01-.01-.19.048.048 0 01.095-.003c.002.061.005.124.01.187a.047.047 0 01-.044.05h-.003zm4.327-.268a.047.047 0 01-.047-.038l-.041-.182a.046.046 0 01.035-.057.046.046 0 01.057.035l.042.185a.046.046 0 01-.036.056h-.01zm23.678-.097a.048.048 0 01-.046-.038 5.556 5.556 0 01-.036-.186.047.047 0 01.093-.017c.01.061.023.124.035.184a.047.047 0 01-.037.056h-.009zM.387 14.957a.047.047 0 01-.045-.034 1.845 1.845 0 01-.018-.068l-.03-.116a.047.047 0 01.036-.057.046.046 0 01.056.035l.029.114a1.7 1.7 0 00.018.067.046.046 0 01-.033.058l-.013.002zm2.591-.088a.048.048 0 01-.047-.048c.002-.063.004-.127.008-.19a.047.047 0 01.095.005 6.06 6.06 0 00-.009.187.048.048 0 01-.047.046zm4.22-.255a.048.048 0 01-.046-.034 3.902 3.902 0 00-.058-.178.048.048 0 01.09-.03l.059.18a.047.047 0 01-.031.059.027.027 0 01-.015.003zm23.712-.104a.047.047 0 01-.047-.04 4.997 4.997 0 01-.027-.188.046.046 0 01.04-.052.046.046 0 01.054.04c.008.063.018.125.027.186a.047.047 0 01-.04.054h-.007zM.28 14.498a.047.047 0 01-.047-.037l-.035-.187a.048.048 0 01.039-.055.048.048 0 01.055.039c.01.061.021.124.034.184a.048.048 0 01-.037.056h-.01zm2.735-.099h-.008a.048.048 0 01-.04-.054c.01-.063.022-.127.038-.189a.046.046 0 01.056-.035.046.046 0 01.036.057 1.91 1.91 0 00-.036.18.045.045 0 01-.046.041zm4.025-.229a.047.047 0 01-.044-.029 4.673 4.673 0 00-.074-.17.046.046 0 01.023-.063.046.046 0 01.063.024c.026.056.052.116.076.174a.047.047 0 01-.026.062.064.064 0 01-.018.002zm23.808-.127a.048.048 0 01-.047-.042 9.317 9.317 0 01-.02-.189.046.046 0 01.043-.05.047.047 0 01.052.042c.005.062.012.124.019.186a.047.047 0 01-.042.052l-.005.001zM.203 14.035a.048.048 0 01-.048-.041 6.005 6.005 0 01-.023-.188.047.047 0 01.094-.01l.022.185a.047.047 0 01-.04.053H.202zm2.93-.09a.047.047 0 01-.045-.063c.022-.06.046-.12.073-.18a.047.047 0 01.086.039 2.38 2.38 0 00-.07.172.046.046 0 01-.044.031zm3.704-.2a.046.046 0 01-.041-.025 5.061 5.061 0 00-.093-.162.047.047 0 11.081-.049c.032.053.065.109.096.165a.047.047 0 01-.019.065.057.057 0 01-.024.005zm23.97-.17a.047.047 0 01-.048-.045l-.011-.188a.048.048 0 01.044-.05c.026 0 .049.02.05.045.002.062.006.125.01.188a.047.047 0 01-.045.05c.001 0 0 0 0 0zM.154 13.566a.047.047 0 01-.047-.044 4.028 4.028 0 01-.01-.19.046.046 0 01.045-.049.05.05 0 01.05.045c.002.063.006.126.01.187a.047.047 0 01-.044.05l-.004.001zm3.18-.047a.043.043 0 01-.024-.007.047.047 0 01-.017-.064c.032-.055.067-.11.104-.161a.048.048 0 01.066-.012.048.048 0 01.012.066c-.035.05-.069.103-.1.155a.051.051 0 01-.042.023zm3.25-.173a.045.045 0 01-.038-.02 2.586 2.586 0 00-.114-.146.046.046 0 01.006-.066.046.046 0 01.067.007c.04.048.08.099.118.15a.05.05 0 01-.01.067.053.053 0 01-.029.008zm-2.974-.209a.05.05 0 01-.031-.011.048.048 0 01-.005-.067c.043-.048.087-.095.133-.14a.047.047 0 11.066.068 2.482 2.482 0 00-.128.134.043.043 0 01-.035.016zm27.174-.033a.048.048 0 01-.047-.046 6.243 6.243 0 01-.003-.189c0-.026.021-.047.048-.047.025 0 .047.02.047.047l.003.188a.046.046 0 01-.046.048h-.002zm-30.648-.01a.047.047 0 01-.047-.046v-.19c0-.026.023-.047.05-.046.026 0 .046.022.046.048l-.001.128v.06a.047.047 0 01-.048.047zm6.14-.104a.05.05 0 01-.034-.013 1.876 1.876 0 00-.138-.123.047.047 0 01-.007-.066.048.048 0 01.067-.006c.048.04.097.083.144.128a.047.047 0 010 .067.047.047 0 01-.032.013zm-2.32-.174a.048.048 0 01-.038-.018.047.047 0 01.01-.066c.051-.039.105-.076.16-.109a.048.048 0 01.065.015.047.047 0 01-.015.065 2.294 2.294 0 00-.153.104.05.05 0 01-.03.01zm1.948-.115a.046.046 0 01-.024-.007 1.917 1.917 0 00-.162-.088.047.047 0 01-.022-.063.047.047 0 01.063-.021c.058.027.115.058.17.092.024.013.03.042.017.065a.054.054 0 01-.042.022zm24.879-.068c-.001 0-.001 0 0 0a.048.048 0 01-.048-.048l.005-.19a.047.047 0 01.05-.045c.026 0 .046.023.045.049l-.005.188a.047.047 0 01-.047.046zM.148 12.624H.145a.046.046 0 01-.045-.049l.012-.19a.047.047 0 01.05-.043.047.047 0 01.043.051 6.353 6.353 0 00-.011.187c0 .024-.02.044-.046.044zm4.217-.045a.047.047 0 01-.044-.028.048.048 0 01.025-.063 1.95 1.95 0 01.182-.066.047.047 0 01.059.03.047.047 0 01-.032.06 1.723 1.723 0 00-.172.062.032.032 0 01-.018.005zm1.11-.07c-.006 0-.01 0-.014-.002a1.642 1.642 0 00-.18-.041.048.048 0 01-.038-.055.049.049 0 01.055-.038c.063.01.127.025.19.043.025.007.04.033.032.058a.046.046 0 01-.046.035zm-.656-.054a.049.049 0 01-.048-.041.048.048 0 01.041-.053 1.49 1.49 0 01.194-.012c.027 0 .048.02.048.047a.047.047 0 01-.048.047c-.06 0-.122.005-.183.012H4.82zm25.98-.293h-.002a.046.046 0 01-.045-.05l.012-.188a.047.047 0 01.05-.044.047.047 0 01.044.05 6.23 6.23 0 00-.012.188.046.046 0 01-.046.044zM.186 12.155H.18a.047.047 0 01-.042-.052l.022-.189a.047.047 0 01.053-.04.047.047 0 01.04.053l-.021.185a.048.048 0 01-.047.043zm30.649-.462h-.005a.047.047 0 01-.043-.051l.02-.189a.048.048 0 01.052-.041.047.047 0 01.041.052l-.019.186a.045.045 0 01-.046.043zM.247 11.688H.24a.048.048 0 01-.04-.055c.01-.062.02-.124.032-.186a.047.047 0 01.093.017 6.267 6.267 0 00-.031.184.048.048 0 01-.047.04zm.085-.463h-.01a.048.048 0 01-.036-.056l.04-.185a.046.046 0 01.058-.035.046.046 0 01.035.056c-.015.06-.028.123-.041.183a.046.046 0 01-.046.037zm30.554 0h-.006a.047.047 0 01-.04-.054l.02-.146.005-.041a.047.047 0 01.094.014l-.006.041a25.88 25.88 0 00-.02.145.048.048 0 01-.047.04zm-8.978-.365a.047.047 0 01-.048-.047c0-.026.021-.047.048-.047h.19a.047.047 0 11-.001.093l-.19.001zm-.285 0c-.063-.002-.126-.002-.19-.002a.046.046 0 01-.046-.049c0-.026.021-.046.048-.046l.189.002c.026 0 .047.022.047.047a.046.046 0 01-.047.047zm.758-.004a.048.048 0 01-.047-.047.047.047 0 01.046-.048l.189-.003c.026 0 .047.02.048.046a.046.046 0 01-.046.048l-.19.004zm-1.23-.005h-.001l-.19-.006a.047.047 0 01-.045-.049.047.047 0 01.05-.045l.188.006c.026 0 .046.022.046.048a.049.049 0 01-.048.046zm1.703-.008a.047.047 0 01-.002-.094l.189-.008c.026 0 .048.02.049.046a.047.047 0 01-.046.049l-.189.007h-.001zm-2.176-.007h-.002l-.19-.009a.046.046 0 01-.044-.049.046.046 0 01.05-.044l.188.008a.047.047 0 01.046.05.048.048 0 01-.048.044zm2.649-.013a.048.048 0 01-.048-.045.05.05 0 01.045-.05c.062-.002.126-.006.188-.01a.047.047 0 01.05.044.047.047 0 01-.044.05 5.887 5.887 0 01-.19.01h-.001zm-3.122-.012h-.002a78.31 78.31 0 00-.19-.011.048.048 0 01-.044-.05c0-.025.024-.045.05-.044l.188.011a.047.047 0 01.045.05.046.046 0 01-.047.044zm3.594-.017a.048.048 0 01-.047-.044.047.047 0 01.044-.05l.188-.013a.047.047 0 01.008.094c-.064.005-.126.01-.19.013H23.8zm-4.066-.014h-.004l-.19-.015a.047.047 0 01-.043-.05.047.047 0 01.051-.044l.188.015a.047.047 0 01.044.05.046.046 0 01-.046.044zM.44 10.766c-.004 0-.007 0-.012-.002a.047.047 0 01-.034-.057c.016-.06.032-.122.05-.183a.048.048 0 01.058-.033c.025.006.04.033.033.058l-.05.181a.047.047 0 01-.045.036zm30.513-.008h-.007a.046.046 0 01-.04-.054l.032-.187a.049.049 0 01.055-.038.047.047 0 01.039.054l-.031.185a.049.049 0 01-.048.04zm-6.683 0a.048.048 0 01-.047-.043.047.047 0 01.043-.05l.189-.018a.046.046 0 01.051.043.047.047 0 01-.043.05l-.188.018h-.005zm-5.01-.017h-.004l-.188-.018a.048.048 0 01-.043-.052.048.048 0 01.052-.043c.063.007.125.013.189.018a.047.047 0 01.042.051.049.049 0 01-.047.044zm5.482-.027a.048.048 0 01-.047-.042.047.047 0 01.042-.052l.188-.02a.048.048 0 01.052.042.048.048 0 01-.042.051l-.188.02-.005.001zm-5.952-.021h-.006a13.423 13.423 0 01-.188-.022.047.047 0 01-.042-.052.048.048 0 01.052-.041l.188.02a.047.047 0 01.042.052.045.045 0 01-.046.043zm6.422-.03a.048.048 0 01-.048-.042.048.048 0 01.042-.053l.188-.023a.048.048 0 01.053.04.048.048 0 01-.041.054c-.063.007-.125.016-.189.022l-.005.001zm-6.893-.026h-.005a11.659 11.659 0 01-.188-.025.047.047 0 01-.04-.052.048.048 0 01.052-.041l.188.024a.047.047 0 01.04.053.047.047 0 01-.047.04zm7.363-.035a.046.046 0 01-.047-.04.047.047 0 01.04-.053l.189-.027a.048.048 0 01.054.04.048.048 0 01-.04.054l-.188.026h-.008zm-7.832-.028l-.006-.001a13.93 13.93 0 01-.188-.028.048.048 0 01-.04-.053.048.048 0 01.054-.04l.187.027a.047.047 0 01.04.054.046.046 0 01-.047.04zm8.3-.04a.047.047 0 01-.007-.093l.186-.03a.047.047 0 01.055.04.047.047 0 01-.04.053l-.187.03h-.007zm-8.767-.031l-.007-.001-.187-.031a.047.047 0 11.016-.093l.187.03a.046.046 0 01.039.054.05.05 0 01-.048.041zm9.234-.044a.048.048 0 01-.008-.094l.186-.033a.047.047 0 11.018.093l-.187.033h-.01zm-9.7-.035l-.01-.001-.186-.034a.047.047 0 11.017-.092c.062.01.124.022.186.034a.046.046 0 01.038.054.045.045 0 01-.046.039zm10.166-.05a.047.047 0 01-.008-.093 11.9 11.9 0 00.185-.035.048.048 0 01.056.036.048.048 0 01-.037.056 10.45 10.45 0 01-.187.036h-.01zm-10.632-.038h-.01l-.185-.038a.047.047 0 11.02-.092l.185.037a.047.047 0 01-.01.093zm-15.88-.023a.07.07 0 01-.015-.001.048.048 0 01-.031-.06c.019-.06.038-.12.06-.18a.048.048 0 01.09.031 3.72 3.72 0 00-.06.178.049.049 0 01-.045.032zm30.465-.018l-.01-.001a.047.047 0 01-.038-.056l.037-.186a.048.048 0 01.056-.036c.026.005.042.03.037.055l-.037.184a.044.044 0 01-.045.04zm-3.49-.012a.047.047 0 01-.046-.037.046.046 0 01.037-.056l.185-.039a.046.046 0 01.056.036.046.046 0 01-.036.056 12.236 12.236 0 01-.195.04zm-11.558-.041l-.01-.001-.186-.04a.047.047 0 11.02-.093l.185.04c.026.006.042.03.037.056a.046.046 0 01-.046.038zm12.021-.059a.048.048 0 01-.046-.036.047.047 0 01.036-.057l.183-.042a.047.047 0 11.022.091l-.184.043-.011.001zm-12.483-.044h-.01l-.185-.044a.047.047 0 11.022-.091l.183.043a.046.046 0 01.035.056.046.046 0 01-.045.036zm12.943-.063a.047.047 0 01-.046-.036.046.046 0 01.035-.056l.184-.046a.048.048 0 01.058.034.048.048 0 01-.035.058l-.183.045h-.013zm-13.403-.048c-.003 0-.007 0-.011-.002l-.184-.046a.047.047 0 11.024-.091l.183.045c.025.007.04.033.034.058a.046.046 0 01-.046.036zM28.93 9.96a.048.048 0 01-.046-.035.047.047 0 01.035-.058l.182-.048a.047.047 0 01.058.033.047.047 0 01-.033.058l-.183.048-.013.002zm-14.321-.052c-.004 0-.009 0-.012-.002l-.183-.05a.048.048 0 11.026-.091l.181.05c.026.006.04.033.033.057a.046.046 0 01-.045.036zM.73 9.87c-.005 0-.012 0-.018-.003a.047.047 0 01-.026-.062c.023-.058.049-.117.075-.174a.047.047 0 01.062-.024c.024.01.035.039.024.063-.026.056-.05.114-.073.171a.046.046 0 01-.044.03zm28.657-.033a.047.047 0 01-.046-.034.048.048 0 01.033-.058l.182-.052a.047.047 0 11.027.09l-.183.053-.013.001zm1.747-.002l-.01-.001a.047.047 0 01-.036-.057l.042-.184a.047.047 0 01.092.022l-.042.183a.047.047 0 01-.046.037zm-16.98-.052l-.014-.002a10.04 10.04 0 01-.182-.053.048.048 0 01-.032-.058.048.048 0 01.059-.032l.18.052c.026.008.04.033.033.059a.045.045 0 01-.045.034zm15.687-.078a.047.047 0 01-.045-.034.047.047 0 01.032-.058l.18-.055a.048.048 0 01.06.031.047.047 0 01-.032.059l-.181.055c-.005.002-.01.002-.014.002zM13.7 9.648l-.014-.002-.18-.056a.048.048 0 01-.032-.059.048.048 0 01.06-.031l.18.056a.047.047 0 01.031.058.044.044 0 01-.044.034zm16.594-.081a.049.049 0 01-.046-.033.048.048 0 01.03-.06c.062-.018.121-.038.18-.057a.047.047 0 01.06.03.047.047 0 01-.03.06c-.06.018-.12.038-.18.058l-.014.002zM13.25 9.506l-.016-.002-.18-.06a.048.048 0 01-.03-.06.048.048 0 01.06-.03l.179.06a.047.047 0 01.03.06.044.044 0 01-.043.032zM.926 9.44a.046.046 0 01-.042-.068c.029-.056.06-.113.09-.167a.048.048 0 01.064-.02.048.048 0 01.019.065c-.03.055-.06.11-.087.165a.051.051 0 01-.044.025zm29.817-.021a.047.047 0 01-.044-.032.046.046 0 01.029-.06l.179-.061a.048.048 0 01.06.03.048.048 0 01-.029.06l-.179.06-.016.003zm.503-.044c-.004 0-.008 0-.012-.002a.047.047 0 01-.034-.057c.004-.02.01-.04.016-.06l-.01.004a.047.047 0 01-.06-.028.047.047 0 01.028-.06l.072-.026.004-.012a.047.047 0 01.058-.033c.01.003.017.008.023.014l.021-.007a.048.048 0 01.06.028.047.047 0 01-.028.06l-.06.022-.032.123a.05.05 0 01-.046.034zM12.8 9.356l-.016-.003-.179-.062a.046.046 0 01-.028-.06.047.047 0 01.06-.029l.179.062a.048.048 0 01.029.06.05.05 0 01-.046.032zm-.447-.159c-.005 0-.011 0-.016-.003l-.178-.066a.047.047 0 11.033-.088l.177.066c.025.01.037.036.029.06a.048.048 0 01-.045.031zm19.28-.096a.048.048 0 01-.045-.03.046.046 0 01.027-.06 9.33 9.33 0 00.177-.067.047.047 0 11.034.089l-.177.067-.017.001zm-19.723-.07a.053.053 0 01-.017-.003l-.176-.068a.047.047 0 11.035-.088l.176.069c.025.01.037.037.027.061a.051.051 0 01-.045.03zm-10.755 0a.046.046 0 01-.024-.007.046.046 0 01-.015-.065c.033-.054.068-.108.102-.16a.047.047 0 01.065-.014.047.047 0 01.014.065 8.96 8.96 0 00-.102.158.045.045 0 01-.04.022zm30.918-.1a.046.046 0 01-.044-.03.047.047 0 01.027-.061l.175-.07a.048.048 0 01.062.025.047.047 0 01-.026.061l-.176.07a.039.039 0 01-.018.004zm-.703-.008l-.013-.002a.047.047 0 01-.032-.058c.017-.06.035-.121.054-.181a.047.047 0 01.058-.032.047.047 0 01.032.059l-.054.179a.045.045 0 01-.045.035zm-19.9-.065a.041.041 0 01-.018-.004l-.175-.072a.047.047 0 01-.025-.06.047.047 0 01.061-.026l.175.071c.024.01.035.038.025.062a.045.045 0 01-.042.029zm21.042-.106a.046.046 0 01-.044-.029.046.046 0 01.026-.061l.137-.058.037-.016a.048.048 0 01.038.087l-.037.016-.138.058-.02.003zm-21.478-.076a.048.048 0 01-.02-.004l-.174-.075a.048.048 0 01-.024-.063.048.048 0 01.062-.024l.174.074c.023.01.035.038.024.063a.045.045 0 01-.042.029zM1.422 8.64a.047.047 0 01-.029-.01.047.047 0 01-.01-.065l.117-.151a.047.047 0 01.067-.008c.02.016.023.046.007.066-.039.048-.076.098-.114.148a.046.046 0 01-.038.02zm31.524-.074a.048.048 0 01-.043-.029.047.047 0 01.023-.062l.173-.077c.024-.01.052 0 .062.023.01.024 0 .052-.023.063l-.174.077a.036.036 0 01-.018.005zm-22.344-.08c-.007 0-.013 0-.02-.003l-.171-.078a.046.046 0 01-.024-.062.048.048 0 01.062-.023l.173.077c.023.01.034.038.023.062a.05.05 0 01-.043.027zm20.908-.012a.07.07 0 01-.014-.002.047.047 0 01-.03-.06l.06-.178a.047.047 0 01.088.03l-.06.178a.047.047 0 01-.044.032zm1.866-.104a.047.047 0 01-.02-.09l.171-.082a.048.048 0 01.063.022.047.047 0 01-.021.063l-.172.08a.033.033 0 01-.02.007zM10.17 8.292c-.007 0-.013 0-.02-.005l-.172-.078a.047.047 0 01-.024-.062.047.047 0 01.062-.024l.173.079c.024.01.034.038.024.062a.046.046 0 01-.043.028zm-8.45-.018a.044.044 0 01-.032-.012.047.047 0 01-.004-.067l.13-.14a.047.047 0 11.07.065 4.179 4.179 0 00-.128.138.053.053 0 01-.037.016zm32.083-.11a.047.047 0 01-.022-.09l.169-.084a.046.046 0 01.063.02.046.046 0 01-.02.063l-.17.086a.035.035 0 01-.02.005zM9.739 8.097a.05.05 0 01-.02-.004l-.172-.078a.047.047 0 01-.024-.062.048.048 0 01.062-.024l.173.078c.023.01.034.04.023.063a.047.047 0 01-.042.027zm21.925-.068c-.006 0-.01 0-.016-.003a.046.046 0 01-.029-.06l.066-.177a.047.047 0 01.06-.028c.025.01.037.036.028.06a14.07 14.07 0 00-.065.177.048.048 0 01-.044.031zm2.56-.08a.048.048 0 01-.042-.025.047.047 0 01.02-.065 5.27 5.27 0 00.165-.09.048.048 0 01.065.02.047.047 0 01-.02.064l-.166.09a.066.066 0 01-.023.005zM2.05 7.936a.048.048 0 01-.033-.082c.046-.044.094-.086.142-.128a.048.048 0 11.063.072 4.37 4.37 0 00-.14.125.043.043 0 01-.032.013zm7.257-.034a.04.04 0 01-.019-.004l-.173-.076a.048.048 0 01-.025-.063.048.048 0 01.063-.024l.173.076c.024.01.035.039.024.063a.046.046 0 01-.043.028zm25.33-.184a.047.047 0 01-.04-.024.046.046 0 01.017-.064c.055-.03.11-.063.162-.094a.047.047 0 01.065.017.046.046 0 01-.017.064 8.327 8.327 0 01-.164.095.047.047 0 01-.023.006zM8.873 7.713a.045.045 0 01-.019-.003l-.173-.074a.049.049 0 01-.026-.062.049.049 0 01.063-.026l.174.075c.024.01.035.038.025.062a.046.046 0 01-.044.028zm-6.461-.08a.047.047 0 01-.03-.085c.051-.038.103-.076.155-.112a.048.048 0 01.066.011.048.048 0 01-.011.066 4.11 4.11 0 00-.152.11.047.047 0 01-.028.01zM31.83 7.59a.056.056 0 01-.018-.003.047.047 0 01-.026-.061l.07-.176a.047.047 0 01.062-.026c.024.01.036.038.026.061l-.07.175a.05.05 0 01-.044.03zM8.437 7.53c-.005 0-.012 0-.018-.003l-.175-.07a.047.047 0 11.035-.088l.176.07c.025.01.036.039.026.062a.048.048 0 01-.044.03zm26.607-.053a.047.047 0 01-.041-.023.047.047 0 01.015-.065l.16-.1a.047.047 0 01.051.08 9.025 9.025 0 01-.16.1.04.04 0 01-.026.008zm-32.242-.11a.05.05 0 01-.04-.022.047.047 0 01.015-.065c.054-.033.11-.065.166-.096a.048.048 0 01.064.02.048.048 0 01-.018.063c-.054.03-.11.062-.162.094a.056.056 0 01-.025.006zm5.195-.01c-.006 0-.012 0-.017-.002a8.28 8.28 0 00-.177-.065.047.047 0 01-.029-.06.048.048 0 01.06-.029l.179.066c.025.01.037.037.027.06a.046.046 0 01-.043.03zm27.444-.136a.05.05 0 01-.04-.02.047.047 0 01.014-.066 9.58 9.58 0 00.155-.105.048.048 0 01.067.011.047.047 0 01-.012.066 6.204 6.204 0 01-.157.107.056.056 0 01-.027.007zM7.551 7.2a4.943 4.943 0 00-.194-.061.047.047 0 11.03-.09l.18.06a.047.047 0 01-.015.091zm24.458-.048c-.007 0-.013 0-.018-.003a.049.049 0 01-.026-.063l.075-.173a.048.048 0 01.062-.025c.024.01.035.04.025.063l-.075.172a.047.047 0 01-.043.03zm-28.79-.005a.047.047 0 01-.043-.028.046.046 0 01.023-.062c.058-.026.116-.052.175-.076a.048.048 0 01.062.025.047.047 0 01-.026.062 4.47 4.47 0 00-.171.074.047.047 0 01-.02.005zm3.883-.089c-.005 0-.009 0-.014-.002a7.525 7.525 0 00-.18-.05.047.047 0 11.024-.091c.06.016.121.034.183.052.025.007.04.034.032.058a.049.049 0 01-.045.033zm-3.444-.085a.047.047 0 01-.044-.032.046.046 0 01.03-.06l.183-.056a.047.047 0 11.027.09 5.637 5.637 0 00-.196.058zm32.171-.021a.047.047 0 01-.028-.085c.052-.037.102-.075.152-.112a.047.047 0 01.066.009c.016.02.012.05-.01.066l-.152.113a.054.054 0 01-.028.009zM6.645 6.937l-.011-.001-.183-.042a.047.047 0 11.02-.091l.185.041a.047.047 0 01-.011.093zm-2.53-.088a.048.048 0 01-.047-.037.046.046 0 01.036-.056c.062-.013.125-.025.188-.036a.048.048 0 01.055.038.048.048 0 01-.039.055 3.98 3.98 0 00-.184.036h-.01zm2.068-.009h-.009c-.061-.012-.124-.021-.184-.03a.047.047 0 11.014-.094l.187.03a.05.05 0 01.04.055.048.048 0 01-.048.04zm-.468-.066H5.71a4.254 4.254 0 00-.187-.016.047.047 0 11.007-.093c.063.005.126.01.19.017a.048.048 0 01.042.052.048.048 0 01-.047.04zm-1.133 0a.048.048 0 01-.047-.043.047.047 0 01.041-.052l.19-.017a.047.047 0 11.007.093c-.062.005-.125.01-.186.017l-.005.001zm.661-.029c-.063 0-.126-.002-.188 0a.047.047 0 01-.049-.047c0-.026.021-.047.047-.048a4.27 4.27 0 01.19 0 .047.047 0 01.046.049c0 .025-.02.046-.046.046zM32.2 6.721a.05.05 0 01-.02-.004.047.047 0 01-.024-.062l.08-.172a.047.047 0 01.063-.023.047.047 0 01.022.063l-.08.17a.043.043 0 01-.041.028zm4.005-.056a.046.046 0 01-.037-.018.047.047 0 01.008-.066l.146-.119a.047.047 0 01.066.006c.017.02.014.05-.006.066l-.147.12a.049.049 0 01-.03.011zm.363-.304a.046.046 0 01-.035-.016.048.048 0 01.004-.067l.14-.125a.048.048 0 01.067.003.047.047 0 01-.003.067l-.14.127a.056.056 0 01-.033.011zM32.4 6.294a.047.047 0 01-.043-.068l.084-.17a.047.047 0 01.063-.02c.024.01.033.039.022.062l-.084.17a.045.045 0 01-.042.026zm4.513-.253a.049.049 0 01-.034-.014.047.047 0 010-.067l.133-.133a.047.047 0 11.068.066l-.134.134a.045.045 0 01-.033.014zm-4.3-.169a.047.047 0 01-.023-.006.047.047 0 01-.02-.063l.086-.167a.047.047 0 01.084.043c-.03.055-.059.112-.087.167a.044.044 0 01-.04.026zm4.628-.17a.047.047 0 01-.035-.08c.043-.045.085-.092.125-.138a.048.048 0 01.072.062l-.127.141a.05.05 0 01-.035.015zm-4.408-.248a.051.051 0 01-.023-.005.048.048 0 01-.02-.064l.092-.166a.048.048 0 01.064-.02.047.047 0 01.02.065l-.092.166a.048.048 0 01-.041.024zm4.718-.108a.054.054 0 01-.03-.01.046.046 0 01-.007-.066l.118-.146a.047.047 0 01.074.057c-.039.05-.078.1-.118.148a.05.05 0 01-.037.017zm-4.49-.304a.054.054 0 01-.024-.006.047.047 0 01-.018-.064l.094-.164a.048.048 0 01.064-.018c.023.013.03.041.018.064l-.093.163a.044.044 0 01-.041.025zm4.777-.07a.05.05 0 01-.027-.009.047.047 0 01-.012-.066c.037-.052.073-.103.106-.153a.047.047 0 01.066-.014.047.047 0 01.013.065c-.034.052-.07.104-.108.157a.044.044 0 01-.038.02zm-4.541-.339a.044.044 0 01-.024-.006.047.047 0 01-.017-.064l.097-.163a.047.047 0 01.065-.016c.023.014.03.043.016.065l-.095.163a.052.052 0 01-.042.021zm4.798-.056a.043.043 0 01-.024-.007.047.047 0 01-.017-.064 3.1 3.1 0 00.09-.163.047.047 0 01.064-.02c.022.012.032.04.02.063-.029.055-.06.112-.093.167a.044.044 0 01-.04.024zm-4.556-.348a.047.047 0 01-.04-.072l.098-.161a.046.046 0 01.066-.015.047.047 0 01.015.065l-.099.16a.045.045 0 01-.04.023zm4.769-.073a.047.047 0 01-.044-.066c.025-.057.048-.116.069-.172a.047.047 0 01.06-.029.046.046 0 01.029.06c-.021.06-.045.12-.07.179a.048.048 0 01-.044.028zm-4.52-.329a.04.04 0 01-.025-.007.047.047 0 01-.015-.065l.043-.067.06-.094a.048.048 0 01.065-.013.047.047 0 01.014.065l-.06.09a1.252 1.252 0 01-.042.068.046.046 0 01-.04.023zm4.67-.117h-.01a.048.048 0 01-.036-.058c.015-.06.028-.12.038-.181a.047.047 0 01.055-.039.047.047 0 01.039.055 2.32 2.32 0 01-.04.188.046.046 0 01-.045.035zm-4.402-.27a.046.046 0 01-.037-.075c.037-.049.077-.1.118-.15a.047.047 0 01.066-.006c.02.016.024.046.007.066-.04.05-.08.099-.116.147a.05.05 0 01-.038.018zm4.472-.194h-.002a.047.047 0 01-.046-.05 2.244 2.244 0 000-.184.047.047 0 01.044-.05.047.047 0 01.05.045l.002.108-.002.085c0 .026-.02.046-.046.046zm-4.171-.17a.049.049 0 01-.031-.011.047.047 0 01-.005-.067c.04-.047.084-.095.127-.142a.048.048 0 01.07.064 8.255 8.255 0 00-.126.14.048.048 0 01-.035.016zm4.137-.3a.047.047 0 01-.047-.039 1.889 1.889 0 00-.042-.179.047.047 0 01.09-.026c.019.061.033.124.045.188a.047.047 0 01-.038.054c-.003.002-.006.002-.008.002zm-3.816-.046a.05.05 0 01-.033-.013.047.047 0 01-.001-.067l.134-.134a.047.047 0 11.066.068l-.132.133a.052.052 0 01-.034.013zm.34-.33a.047.047 0 01-.032-.082l.141-.126a.049.049 0 01.067.003.048.048 0 01-.004.067c-.046.04-.092.083-.14.126a.044.044 0 01-.032.013zm3.334-.072a.047.047 0 01-.043-.027 1.675 1.675 0 00-.086-.162.047.047 0 01.016-.065.048.048 0 01.065.016c.033.054.064.112.091.171a.046.046 0 01-.024.063.039.039 0 01-.02.004zm-2.978-.236a.048.048 0 01-.037-.017.047.047 0 01.007-.066 6.12 6.12 0 01.15-.118.048.048 0 01.066.008.048.048 0 01-.009.066 5.924 5.924 0 00-.147.116.045.045 0 01-.03.01zm2.723-.159a.05.05 0 01-.036-.016 1.28 1.28 0 00-.13-.128.047.047 0 11.062-.072c.049.043.095.089.139.138a.048.048 0 01-.005.067.044.044 0 01-.03.011zm-2.342-.122a.048.048 0 01-.04-.022.047.047 0 01.014-.065c.053-.035.11-.068.166-.098a.048.048 0 01.065.019.048.048 0 01-.02.064 2.74 2.74 0 00-.158.094.05.05 0 01-.027.008zm1.977-.174a.055.055 0 01-.024-.005 1.465 1.465 0 00-.164-.08.047.047 0 11.035-.088c.06.025.12.054.176.085a.048.048 0 01-.023.088zm-1.557-.04a.048.048 0 01-.045-.03.048.048 0 01.027-.062c.06-.023.12-.044.183-.063a.047.047 0 01.058.032.047.047 0 01-.032.059 2.394 2.394 0 00-.191.064zm1.115-.121h-.01a1.862 1.862 0 00-.182-.026.047.047 0 01-.043-.051.047.047 0 01.051-.044c.065.006.13.014.192.027.026.004.043.03.037.055a.047.047 0 01-.045.039zm-.66-.005a.047.047 0 01-.007-.093c.064-.01.129-.018.192-.023a.047.047 0 11.006.093c-.06.005-.121.012-.183.022l-.008.001zm4.252 20.373c-.002 0-.002 0 0 0-.033 0-.065 0-.096-.002a.046.046 0 01-.047-.048c0-.025.022-.046.048-.046l.095.002c.027 0 .048.022.047.048a.047.047 0 01-.047.046z" fill="#85C74C"/><path d="M29.613 16.852a.353.353 0 11.354-.351.353.353 0 01-.354.351zm0-.559a.209.209 0 00-.208.208.209.209 0 00.416 0 .208.208 0 00-.208-.208zM8.798 5.764a.353.353 0 11.353-.352.353.353 0 01-.353.352zm0-.56a.209.209 0 00-.209.208.209.209 0 00.417 0 .208.208 0 00-.208-.207z" fill="#FFC057"/><path d="M4.775 20.84h-.187v-.262a.053.053 0 00-.053-.053.053.053 0 00-.053.053v.26h-.187a.053.053 0 100 .106h.187v.262c0 .029.024.052.053.052.03 0 .053-.023.053-.052v-.262h.187a.052.052 0 00.053-.052.053.053 0 00-.053-.052zm27.82-17.842h-.28v-.392a.08.08 0 00-.08-.08.08.08 0 00-.079.08v.392h-.28a.08.08 0 100 .158h.28v.393a.08.08 0 00.08.079.08.08 0 00.079-.08v-.392h.28a.08.08 0 100-.158zm-20.226.629l-1.133-.172a.156.156 0 11.048-.31l1.133.172a.156.156 0 11-.048.31zm1.657-1.213a.156.156 0 01-.131-.179l.173-1.127a.157.157 0 01.18-.131.156.156 0 01.13.178l-.172 1.127a.157.157 0 01-.18.132zm-1.1.239a.156.156 0 01-.103-.063l-.66-.894a.157.157 0 01.034-.22.159.159 0 01.221.034l.659.893a.157.157 0 01-.034.22.153.153 0 01-.117.03z" fill="#85C74C"/><path d="M15.202 7.91v10.456c0 2.494 2.04 4.516 4.557 4.516h3.01c2.516 0 4.556-2.022 4.556-4.516V7.91H15.202z" fill="#457B9D"/><path d="M25.91 7.91v10.456c0 2.495-2.041 4.516-4.558 4.516h1.417c2.516 0 4.556-2.021 4.556-4.516V7.91H25.91z" fill="#B9D1DF"/><path d="M27.325 8.053v-2.59a.404.404 0 00-.405-.402H15.608a.404.404 0 00-.406.402v2.59h12.123z" fill="#F5F7F8"/><path d="M25.909 5.463v2.59h1.416v-2.59a.404.404 0 00-.406-.402h-1.416c.224 0 .406.18.406.402z" fill="#D9E7EB"/><path d="M23.491 6.783h-4.454a1.329 1.329 0 01-1.31-1.077l-.122-.645h7.317l-.122.645a1.329 1.329 0 01-1.309 1.077z" fill="#457B9D"/><path d="M24.922 5.06l-.122.646a1.329 1.329 0 01-1.31 1.077h-1.087c.641 0 1.191-.453 1.31-1.077l.121-.645h1.088z" fill="#B9D1DF"/><path d="M22.703 21.72h-2.878a.36.36 0 01-.362-.36v-.937a.36.36 0 01.362-.359h2.878c.2 0 .361.16.361.359v.938a.36.36 0 01-.361.358z" fill="#F5F7F8"/><path d="M23.065 20.423v.938a.36.36 0 01-.362.358h-1.088c.2 0 .362-.16.362-.358v-.938a.36.36 0 00-.362-.359h1.088c.2 0 .362.161.362.359z" fill="#D9E7EB"/><path d="M24.794 18.999h-7.062a.54.54 0 01-.543-.538V8.59a.54.54 0 01.543-.538h7.062c.3 0 .543.241.543.538v9.87a.54.54 0 01-.543.538z" fill="#596D76"/><path d="M25.337 8.591v9.87a.54.54 0 01-.543.538h-1.259c.3 0 .543-.24.543-.538V8.59a.54.54 0 00-.543-.538h1.259c.3 0 .543.241.543.538z" fill="#475A61"/><path d="M20.203 9.66h-.333a.61.61 0 00-.612.607v.223c0 .125.038.24.104.337a.6.6 0 00-.104.338v.222a.61.61 0 00.612.607h.333a.61.61 0 00.612-.607v-.222a.599.599 0 00-.104-.338.598.598 0 00.104-.337v-.223a.61.61 0 00-.612-.606zm-.402.607c0-.037.03-.068.069-.068h.333c.038 0 .069.03.069.068v.223a.069.069 0 01-.07.068h-.332a.069.069 0 01-.07-.068v-.223zm.47 1.12a.069.069 0 01-.068.069h-.333a.069.069 0 01-.07-.069v-.222a.07.07 0 01.07-.069h.333c.038 0 .069.03.069.069v.222zm1.731-1.727h-.333a.61.61 0 00-.612.607v1.12a.61.61 0 00.612.607h.333a.61.61 0 00.611-.607v-1.12a.61.61 0 00-.611-.606zm.069 1.727a.069.069 0 01-.07.069h-.332a.069.069 0 01-.07-.069v-1.12a.07.07 0 01.07-.068h.333c.038 0 .069.03.069.068v1.12z" fill="#FFC107"/><path d="M24.084 11.98h-.546a.27.27 0 01-.271-.268.27.27 0 01.27-.269h.547c.15 0 .272.12.272.269a.27.27 0 01-.272.269zm0 .983h-.546a.27.27 0 01-.271-.269.27.27 0 01.27-.269h.547c.15 0 .272.12.272.27a.27.27 0 01-.272.268zm0 .98h-.546a.27.27 0 01-.271-.269.27.27 0 01.27-.269h.547c.15 0 .272.12.272.27a.27.27 0 01-.272.268zm0 .98h-.546a.27.27 0 01-.271-.268.27.27 0 01.27-.27h.547c.15 0 .272.12.272.27a.27.27 0 01-.272.268zm0 .982h-.546a.27.27 0 01-.271-.268.27.27 0 01.27-.27h.547c.15 0 .272.121.272.27a.27.27 0 01-.272.268z" fill="#F5F7F8"/><path d="M18.443 17.79h5.175a.18.18 0 00.122-.312l-.787-.714a.182.182 0 00-.15-.045l-.566.086-.93-1.357a.182.182 0 00-.303.006l-.855 1.354-.748-.56a.182.182 0 00-.234.013l-.724.689v.84z" fill="#FFF3CD"/><path d="M18.443 18.057a.27.27 0 01-.271-.269V9.404a.27.27 0 01.271-.268c.15 0 .272.12.272.268v8.384a.27.27 0 01-.272.27z" fill="#FFC107"/><path d="M24.169 17.52h-5.714c-.149 0-.279.113-.283.26a.27.27 0 00.271.277h5.726a.27.27 0 00.27-.269.27.27 0 00-.27-.269z" fill="#FFC107"/><path d="M20.543 13.286H19.53a.27.27 0 01-.271-.269.27.27 0 01.271-.269h1.014c.15 0 .271.12.271.27a.27.27 0 01-.27.268zm1.411.982H19.53a.27.27 0 01-.271-.269.27.27 0 01.271-.269h2.425c.15 0 .272.12.272.27a.27.27 0 01-.272.268z" fill="#F5F7F8"/></g><defs><clipPath id="clip0_319_10715"><path fill="#fff" d="M0 0h41v24H0z"/></clipPath></defs></svg>