<svg width="41" height="24" viewBox="0 0 41 24" fill="none" xmlns="http://www.w3.org/2000/svg">
<g clip-path="url(#clip0_319_10715)">
<path d="M28.2904 22.9339C30.5274 22.9339 32.3407 21.1291 32.3407 18.9029C32.3407 16.6766 30.5274 14.8719 28.2904 14.8719C26.0536 14.8719 24.2402 16.6766 24.2402 18.9029C24.2402 21.1291 26.0536 22.9339 28.2904 22.9339Z" fill="#F7F7F7"/>
<path d="M15.1548 23.8829C15.1539 23.8829 15.1539 23.8829 15.1529 23.8829C15.1217 23.8819 15.0895 23.88 15.0582 23.8791C15.0317 23.8781 15.0118 23.8553 15.0127 23.8299C15.0137 23.8035 15.0364 23.7838 15.062 23.7847C15.0932 23.7857 15.1245 23.7876 15.1567 23.7885C15.1832 23.7895 15.2031 23.8111 15.2022 23.8375C15.2012 23.8629 15.1804 23.8829 15.1548 23.8829Z" fill="#85C74C"/>
<path d="M14.7765 23.8639C14.7756 23.8639 14.7746 23.8639 14.7737 23.8639C14.7112 23.8601 14.6477 23.8553 14.5842 23.8505C14.5577 23.8486 14.5388 23.8261 14.5407 23.7997C14.5426 23.7733 14.5653 23.7545 14.5918 23.7564C14.6543 23.7611 14.7178 23.7657 14.7794 23.7695C14.8059 23.7714 14.8248 23.793 14.8239 23.8194C14.822 23.8441 14.8012 23.8639 14.7765 23.8639ZM14.3048 23.8261C14.3029 23.8261 14.3019 23.8261 14.3001 23.8261C14.2375 23.8204 14.1741 23.814 14.1115 23.8063C14.086 23.8035 14.067 23.78 14.0699 23.7545C14.0727 23.729 14.0964 23.7102 14.122 23.713C14.1845 23.7196 14.247 23.7262 14.3095 23.7319C14.3351 23.7347 14.355 23.7573 14.3522 23.7838C14.3493 23.8083 14.3294 23.8261 14.3048 23.8261ZM13.8349 23.7733C13.833 23.7733 13.8311 23.7733 13.8292 23.7733C13.7667 23.7648 13.7032 23.7564 13.6417 23.7479C13.6161 23.7441 13.5981 23.7205 13.6019 23.6941C13.6057 23.6687 13.6294 23.6508 13.6559 23.6546C13.7175 23.663 13.7809 23.6715 13.8425 23.68C13.8681 23.6838 13.887 23.7073 13.8832 23.7328C13.8795 23.7564 13.8586 23.7733 13.8349 23.7733ZM13.3679 23.7055C13.3651 23.7055 13.3632 23.7055 13.3603 23.7045C13.2978 23.6941 13.2353 23.6838 13.1737 23.6734C13.1481 23.6687 13.1311 23.6442 13.1349 23.6187C13.1396 23.5933 13.1643 23.5763 13.1898 23.5801C13.2514 23.5904 13.3139 23.6018 13.3755 23.6112C13.4011 23.6149 13.4191 23.6395 13.4143 23.6649C13.4105 23.6885 13.3906 23.7055 13.3679 23.7055ZM12.9019 23.6225C12.899 23.6225 12.8962 23.6225 12.8924 23.6215C12.8308 23.6093 12.7683 23.597 12.7067 23.5838C12.6811 23.5782 12.665 23.5537 12.6698 23.5282C12.6754 23.5028 12.7001 23.4867 12.7257 23.4915C12.7872 23.5046 12.8498 23.5169 12.9104 23.5282C12.936 23.5329 12.953 23.5584 12.9473 23.5838C12.9445 23.6065 12.9246 23.6225 12.9019 23.6225ZM12.4396 23.5245C12.4358 23.5245 12.4329 23.5245 12.4292 23.5235C12.3676 23.5094 12.306 23.4952 12.2444 23.4801C12.2189 23.4745 12.2037 23.4481 12.2094 23.4236C12.2151 23.3981 12.2416 23.383 12.2662 23.3887C12.3268 23.4038 12.3884 23.4179 12.45 23.432C12.4756 23.4377 12.4917 23.4632 12.486 23.4886C12.4803 23.5103 12.4614 23.5245 12.4396 23.5245ZM11.9801 23.4132C11.9764 23.4132 11.9726 23.4123 11.9678 23.4113C11.9063 23.3953 11.8447 23.3793 11.7841 23.3623C11.7585 23.3557 11.7443 23.3293 11.7509 23.3048C11.7575 23.2803 11.7841 23.2652 11.8087 23.2718C11.8684 23.2878 11.9299 23.3048 11.9906 23.3208C12.0161 23.3274 12.0313 23.3529 12.0247 23.3783C12.0199 23.3991 12.001 23.4132 11.9801 23.4132ZM11.5245 23.2869C11.5198 23.2869 11.516 23.2859 11.5112 23.285C11.4506 23.2671 11.39 23.2492 11.3293 23.2303C11.3047 23.2228 11.2905 23.1964 11.2981 23.1709C11.3057 23.1464 11.3322 23.1323 11.3578 23.1398C11.4175 23.1577 11.4781 23.1766 11.5387 23.1945C11.5633 23.202 11.5785 23.2284 11.5709 23.2529C11.5633 23.2737 11.5453 23.2869 11.5245 23.2869ZM11.0727 23.1464C11.0679 23.1464 11.0632 23.1454 11.0575 23.1436C10.9978 23.1238 10.9372 23.104 10.8775 23.0832C10.8529 23.0748 10.8396 23.0484 10.8481 23.0229C10.8567 22.9984 10.8832 22.9852 10.9088 22.9937C10.9685 23.0144 11.0281 23.0342 11.0878 23.054C11.1124 23.0625 11.1257 23.0889 11.1181 23.1134C11.1115 23.1332 11.0925 23.1464 11.0727 23.1464ZM10.6255 22.9918C10.6198 22.9918 10.6151 22.9908 10.6094 22.9889C10.5507 22.9673 10.4901 22.9456 10.4313 22.923C10.4067 22.9135 10.3944 22.8862 10.4039 22.8626C10.4133 22.8381 10.4408 22.8259 10.4645 22.8353C10.5232 22.857 10.5829 22.8796 10.6416 22.9003C10.6663 22.9088 10.6786 22.9362 10.67 22.9607C10.6634 22.9795 10.6454 22.9918 10.6255 22.9918ZM10.1841 22.824C10.1784 22.824 10.1727 22.823 10.1661 22.8202C10.1074 22.7966 10.0486 22.7731 9.9899 22.7485C9.96527 22.7382 9.95391 22.7108 9.96434 22.6873C9.97474 22.6637 10.0022 22.6515 10.0259 22.6618C10.0837 22.6854 10.1424 22.7099 10.2012 22.7325C10.2258 22.742 10.2371 22.7693 10.2277 22.7938C10.2201 22.8127 10.2021 22.824 10.1841 22.824ZM9.7474 22.642C9.74076 22.642 9.73507 22.6411 9.72846 22.6382C9.67067 22.6128 9.61193 22.5873 9.55511 22.5619C9.53142 22.5515 9.52099 22.5232 9.53142 22.4997C9.54185 22.4761 9.57026 22.4657 9.59395 22.4761C9.65077 22.5016 9.70951 22.527 9.76634 22.5525C9.79003 22.5628 9.80139 22.5911 9.79096 22.6147C9.78245 22.6317 9.7654 22.642 9.7474 22.642ZM9.31639 22.4469C9.30975 22.4469 9.30311 22.445 9.29649 22.4422C9.23964 22.4148 9.18186 22.3875 9.12504 22.3601C9.10135 22.3488 9.09188 22.3205 9.10324 22.297C9.11461 22.2734 9.14304 22.264 9.16671 22.2753C9.2226 22.3026 9.28038 22.33 9.33723 22.3573C9.36089 22.3686 9.37132 22.3969 9.35996 22.4205C9.35049 22.4365 9.33344 22.4469 9.31639 22.4469ZM8.89201 22.2376C8.88443 22.2376 8.87685 22.2357 8.87021 22.2319C8.81432 22.2027 8.75747 22.1735 8.70158 22.1442C8.67885 22.132 8.66938 22.1037 8.68171 22.0801C8.69401 22.0575 8.72245 22.0481 8.74611 22.0603C8.80106 22.0896 8.85789 22.1188 8.91378 22.1471C8.93747 22.1593 8.946 22.1876 8.93464 22.2102C8.92517 22.2281 8.90905 22.2376 8.89201 22.2376ZM8.47424 22.016C8.46666 22.016 8.45815 22.0141 8.45151 22.0104C8.39658 21.9802 8.34069 21.9491 8.28574 21.918C8.26301 21.9048 8.25543 21.8765 8.26773 21.8539C8.28101 21.8312 8.30942 21.8237 8.33215 21.8359C8.38711 21.8671 8.44204 21.8982 8.49699 21.9283C8.51972 21.9406 8.52823 21.9698 8.51498 21.9924C8.50646 22.0075 8.49035 22.016 8.47424 22.016ZM40.4809 21.835C40.4802 21.835 40.4802 21.835 40.4793 21.835C40.4157 21.8331 40.3522 21.8303 40.2896 21.8275C40.2632 21.8265 40.2433 21.8039 40.2443 21.7784C40.2453 21.752 40.268 21.7323 40.2935 21.7332C40.356 21.736 40.4196 21.7389 40.4819 21.7407C40.5085 21.7417 40.5284 21.7634 40.5275 21.7898C40.5275 21.8143 40.5066 21.835 40.4809 21.835ZM40.0093 21.8115C40.0084 21.8115 40.0074 21.8115 40.0065 21.8115C39.9439 21.8077 39.8806 21.803 39.818 21.7982C39.7914 21.7964 39.7724 21.7737 39.7744 21.7473C39.7763 21.7209 39.7991 21.7021 39.8254 21.704C39.888 21.7087 39.9506 21.7134 40.0132 21.7172C40.0395 21.7191 40.0585 21.7417 40.0575 21.7671C40.0549 21.7926 40.034 21.8115 40.0093 21.8115ZM8.06407 21.7803C8.05556 21.7803 8.04702 21.7784 8.03945 21.7737C7.98449 21.7417 7.9305 21.7087 7.8765 21.6757C7.85377 21.6625 7.84716 21.6333 7.86135 21.6106C7.87461 21.588 7.90398 21.5814 7.92671 21.5955C7.97977 21.6276 8.03377 21.6606 8.08776 21.6927C8.11049 21.7059 8.11713 21.7351 8.10387 21.7577C8.09534 21.7728 8.08018 21.7803 8.06407 21.7803ZM39.5384 21.7747C39.5365 21.7747 39.5356 21.7747 39.5339 21.7747C39.4713 21.769 39.4078 21.7624 39.3452 21.7558C39.3198 21.753 39.3008 21.7294 39.3037 21.704C39.3063 21.6785 39.3301 21.6597 39.3557 21.6625C39.4173 21.6691 39.4806 21.6757 39.5432 21.6814C39.5698 21.6842 39.5888 21.7068 39.5859 21.7323C39.583 21.7568 39.5631 21.7747 39.5384 21.7747ZM39.0697 21.7238C39.0678 21.7238 39.0658 21.7238 39.0639 21.7238C39.0014 21.7162 38.9378 21.7077 38.8764 21.6992C38.8508 21.6955 38.8328 21.6719 38.8357 21.6465C38.8386 21.621 38.863 21.6031 38.8887 21.6059C38.9503 21.6144 39.0129 21.6229 39.0752 21.6304C39.1009 21.6333 39.1198 21.6568 39.116 21.6832C39.1131 21.7068 39.0922 21.7238 39.0697 21.7238ZM38.6017 21.6587C38.5988 21.6587 38.5969 21.6587 38.594 21.6578C38.5317 21.6483 38.4691 21.638 38.4075 21.6266C38.3818 21.6219 38.3648 21.5974 38.3686 21.572C38.3734 21.5465 38.3979 21.5296 38.4235 21.5333C38.4842 21.5437 38.5468 21.5541 38.6093 21.5635C38.6348 21.5673 38.6527 21.5918 38.6489 21.6172C38.6443 21.6417 38.6244 21.6587 38.6017 21.6587ZM38.1365 21.5767C38.1336 21.5767 38.1308 21.5767 38.1272 21.5758C38.0655 21.5635 38.003 21.5512 37.9413 21.538C37.9159 21.5324 37.8996 21.5079 37.9044 21.4824C37.9102 21.457 37.9349 21.4409 37.9603 21.4457C38.0209 21.4579 38.0835 21.4711 38.1451 21.4824C38.1706 21.4871 38.1876 21.5126 38.183 21.538C38.1792 21.5616 38.1593 21.5767 38.1365 21.5767ZM7.66148 21.5324C7.65294 21.5324 7.64347 21.5296 7.6359 21.5249C7.58286 21.4909 7.52887 21.456 7.47676 21.4211C7.45497 21.407 7.44929 21.3778 7.46351 21.3561C7.4777 21.3344 7.50707 21.3287 7.52887 21.3429C7.58097 21.3768 7.634 21.4117 7.68706 21.4457C7.70883 21.4598 7.71548 21.489 7.70126 21.5107C7.69179 21.5249 7.67663 21.5324 7.66148 21.5324ZM37.6752 21.4796C37.6714 21.4796 37.6675 21.4796 37.6649 21.4787C37.6033 21.4645 37.5417 21.4494 37.481 21.4343C37.4553 21.4277 37.4402 21.4023 37.4469 21.3768C37.4537 21.3514 37.4791 21.3363 37.5047 21.3429C37.5654 21.358 37.627 21.3721 37.6874 21.3862C37.7131 21.3919 37.7292 21.4174 37.7227 21.4428C37.716 21.4645 37.697 21.4796 37.6752 21.4796ZM37.2177 21.3636C37.2139 21.3636 37.2091 21.3627 37.2053 21.3617C37.1439 21.3448 37.0832 21.3278 37.0235 21.3099C36.9979 21.3023 36.9837 21.2769 36.9912 21.2514C36.9988 21.226 37.0254 21.2119 37.0499 21.2194C37.1096 21.2364 37.1703 21.2533 37.2309 21.2703C37.2566 21.2769 37.2707 21.3033 37.264 21.3278C37.2575 21.3504 37.2386 21.3636 37.2177 21.3636ZM7.2674 21.2703C7.25793 21.2703 7.24846 21.2675 7.24088 21.2618C7.18878 21.226 7.13668 21.1892 7.08554 21.1534C7.06374 21.1383 7.059 21.1091 7.07417 21.0874C7.08933 21.0657 7.1187 21.061 7.14047 21.0761C7.19163 21.1119 7.24374 21.1487 7.29488 21.1836C7.31667 21.1986 7.3214 21.2279 7.3072 21.2496C7.29677 21.2637 7.28258 21.2703 7.2674 21.2703ZM36.7648 21.2307C36.76 21.2307 36.7555 21.2298 36.7507 21.2288C36.691 21.21 36.6303 21.1902 36.5706 21.1694C36.5461 21.1609 36.5327 21.1345 36.5414 21.11C36.5497 21.0855 36.5764 21.0723 36.6011 21.0808C36.6598 21.1006 36.7205 21.1204 36.779 21.1393C36.8037 21.1468 36.8178 21.1741 36.8094 21.1986C36.8037 21.2175 36.7847 21.2307 36.7648 21.2307ZM36.3186 21.078C36.3131 21.078 36.3073 21.077 36.3025 21.0751C36.2428 21.0535 36.1831 21.0308 36.1254 21.0082C36.1009 20.9988 36.0894 20.9715 36.099 20.9469C36.1083 20.9224 36.1359 20.9111 36.1606 20.9205C36.2184 20.9431 36.2771 20.9648 36.3366 20.9865C36.3613 20.9959 36.3738 21.0223 36.3651 21.0469C36.3555 21.0657 36.3376 21.078 36.3186 21.078ZM6.88186 20.996C6.87239 20.996 6.86198 20.9931 6.85344 20.9865C6.8023 20.9488 6.75114 20.9111 6.70189 20.8725C6.68105 20.8564 6.67724 20.8272 6.69335 20.8065C6.70947 20.7857 6.73884 20.7819 6.75967 20.798C6.80892 20.8357 6.86009 20.8734 6.91029 20.9111C6.93113 20.9262 6.93585 20.9564 6.91976 20.9771C6.91029 20.9893 6.89608 20.996 6.88186 20.996ZM35.8791 20.9045C35.8734 20.9045 35.8669 20.9036 35.8611 20.9007C35.8034 20.8762 35.7446 20.8508 35.6868 20.8253C35.6631 20.815 35.6518 20.7866 35.6631 20.7631C35.6736 20.7395 35.7019 20.7282 35.7257 20.7395C35.7825 20.765 35.8403 20.7895 35.8981 20.814C35.9218 20.8244 35.9331 20.8517 35.9237 20.8762C35.9151 20.8941 35.8971 20.9045 35.8791 20.9045ZM35.449 20.7112C35.4425 20.7112 35.4348 20.7094 35.4284 20.7065C35.3713 20.6792 35.3135 20.6509 35.2576 20.6226C35.2341 20.6113 35.2255 20.5821 35.2368 20.5595C35.2483 20.5368 35.2775 20.5274 35.3003 20.5387C35.3562 20.567 35.4121 20.5943 35.4689 20.6217C35.4926 20.633 35.5022 20.6613 35.4907 20.6848C35.4833 20.7018 35.4662 20.7112 35.449 20.7112ZM6.50674 20.7094C6.49631 20.7094 6.48591 20.7056 6.47737 20.699C6.42812 20.6594 6.37792 20.6198 6.3296 20.5802C6.3097 20.5632 6.30687 20.534 6.32296 20.5142C6.33907 20.4944 6.36938 20.4906 6.38928 20.5076C6.43759 20.5472 6.48684 20.5868 6.53611 20.6254C6.55695 20.6415 6.55978 20.6716 6.54369 20.6914C6.53422 20.7027 6.52 20.7094 6.50674 20.7094ZM35.0284 20.4963C35.021 20.4963 35.0133 20.4944 35.0056 20.4906C34.9498 20.4605 34.8939 20.4294 34.84 20.3982C34.8172 20.385 34.8098 20.3568 34.8229 20.3341C34.8361 20.3115 34.8647 20.304 34.8874 20.3172C34.9414 20.3483 34.9963 20.3784 35.0512 20.4086C35.074 20.4209 35.0824 20.4501 35.0701 20.4727C35.0618 20.4878 35.0455 20.4963 35.0284 20.4963ZM6.1411 20.4086C6.13067 20.4086 6.11931 20.4048 6.11077 20.3973C6.06246 20.3568 6.01414 20.3153 5.96679 20.2738C5.94689 20.2568 5.94499 20.2267 5.96204 20.2068C5.97911 20.1871 6.00942 20.1852 6.02932 20.2021C6.07667 20.2436 6.12403 20.2851 6.17234 20.3256C6.19224 20.3426 6.19414 20.3728 6.17802 20.3916C6.16762 20.403 6.15436 20.4086 6.1411 20.4086ZM34.6201 20.2596C34.6117 20.2596 34.6031 20.2578 34.5956 20.2521C34.5417 20.2191 34.4875 20.1842 34.4345 20.1503C34.4127 20.1362 34.4062 20.1069 34.4204 20.0852C34.4345 20.0636 34.464 20.057 34.4856 20.0711C34.5379 20.105 34.5909 20.139 34.6448 20.171C34.6666 20.1852 34.6743 20.2135 34.6599 20.2361C34.6515 20.2521 34.6355 20.2596 34.6201 20.2596ZM5.7868 20.0966C5.77543 20.0966 5.76407 20.0928 5.7546 20.0843C5.70818 20.0419 5.66176 19.9985 5.61534 19.9551C5.5964 19.9372 5.59546 19.9071 5.61345 19.8882C5.63145 19.8694 5.66176 19.8684 5.6807 19.8863C5.72618 19.9287 5.7726 19.9721 5.81902 20.0145C5.83796 20.0325 5.83986 20.0617 5.82185 20.0815C5.81238 20.0909 5.79912 20.0966 5.7868 20.0966ZM34.2252 20.0013C34.2156 20.0013 34.2063 19.9985 34.1976 19.9928C34.1456 19.957 34.0936 19.9193 34.0432 19.8825C34.0224 19.8675 34.0178 19.8373 34.0329 19.8166C34.048 19.7958 34.0785 19.7911 34.0991 19.8062C34.1494 19.843 34.2005 19.8797 34.2518 19.9155C34.2734 19.9306 34.2782 19.9599 34.2631 19.9815C34.2545 19.9938 34.2394 20.0013 34.2252 20.0013ZM5.44388 19.7713C5.43158 19.7713 5.42022 19.7666 5.41072 19.7581C5.36622 19.7138 5.32074 19.6695 5.27622 19.6242C5.25823 19.6054 5.25823 19.5761 5.27717 19.5573C5.29612 19.5394 5.32549 19.5394 5.34443 19.5582C5.38799 19.6025 5.43348 19.6478 5.478 19.6912C5.49694 19.7091 5.49694 19.7393 5.478 19.7581C5.46757 19.7666 5.45621 19.7713 5.44388 19.7713ZM33.8454 19.7204C33.8349 19.7204 33.8246 19.7166 33.8159 19.71C33.7668 19.6714 33.7164 19.6308 33.6682 19.5903C33.6483 19.5733 33.6455 19.5441 33.6615 19.5243C33.6785 19.5045 33.708 19.5017 33.7279 19.5177C33.7761 19.5573 33.8255 19.5969 33.8747 19.6356C33.8955 19.6516 33.8984 19.6817 33.8823 19.7015C33.8728 19.7138 33.8596 19.7204 33.8454 19.7204ZM5.11234 19.4338C5.10004 19.4338 5.08675 19.4291 5.07824 19.4187C5.03465 19.3735 4.99204 19.3263 4.94941 19.2801C4.93141 19.2613 4.9333 19.2311 4.95224 19.2132C4.97118 19.1953 5.00152 19.1972 5.0195 19.216C5.06213 19.2622 5.10476 19.3084 5.14739 19.3537C5.1654 19.3725 5.16444 19.4027 5.14549 19.4206C5.13602 19.43 5.12466 19.4338 5.11234 19.4338ZM33.4824 19.4168C33.4711 19.4168 33.4599 19.413 33.4512 19.4046C33.404 19.3631 33.3565 19.3197 33.31 19.2764C33.2911 19.2584 33.2901 19.2283 33.3083 19.2094C33.3263 19.1906 33.3565 19.1896 33.3755 19.2075C33.421 19.25 33.4683 19.2924 33.5148 19.3339C33.5347 19.3508 33.5356 19.381 33.5186 19.4008C33.5081 19.4112 33.4958 19.4168 33.4824 19.4168ZM4.76659 19.1246C4.74952 19.1246 4.73343 19.1246 4.71639 19.1246C4.68984 19.1246 4.66901 19.1029 4.66997 19.0765C4.66997 19.051 4.69174 19.0303 4.71732 19.0303H4.71828C4.72017 19.0303 4.723 19.0303 4.7249 19.0303C4.69459 18.9954 4.66522 18.9605 4.63491 18.9266C4.61787 18.9068 4.6207 18.8766 4.6406 18.8606C4.6605 18.8436 4.6908 18.8465 4.70691 18.8662C4.74763 18.9134 4.78836 18.9615 4.83006 19.0086C4.83574 19.0152 4.83953 19.0227 4.84046 19.0303C4.8613 19.0294 4.88216 19.0294 4.903 19.0284C4.92951 19.0275 4.95131 19.0473 4.95224 19.0736C4.9532 19.1 4.9333 19.1217 4.90678 19.1227C4.8613 19.1227 4.81395 19.1246 4.76659 19.1246ZM4.43408 19.1076C4.43219 19.1076 4.43123 19.1076 4.42934 19.1076C4.36587 19.101 4.30241 19.0935 4.23894 19.0831C4.21336 19.0793 4.19537 19.0548 4.19916 19.0294C4.20295 19.0039 4.22757 18.986 4.25316 18.9897C4.31473 18.9992 4.37724 19.0067 4.43787 19.0133C4.46346 19.0161 4.48333 19.0388 4.4805 19.0652C4.47861 19.0897 4.45777 19.1076 4.43408 19.1076ZM5.18906 19.0963C5.1654 19.0963 5.14549 19.0793 5.14264 19.0558C5.13885 19.0303 5.15686 19.0058 5.18338 19.003C5.24495 18.9945 5.30652 18.9841 5.36716 18.9718C5.39274 18.9662 5.41737 18.9832 5.42305 19.0086C5.4278 19.0341 5.41168 19.0586 5.3861 19.0642C5.32359 19.0765 5.26013 19.0878 5.19664 19.0963C5.19285 19.0963 5.19095 19.0963 5.18906 19.0963ZM33.1386 19.0925C33.1264 19.0925 33.1141 19.0878 33.1055 19.0784C33.0609 19.0341 33.0166 18.9879 32.9729 18.9417C32.9549 18.9228 32.9559 18.8926 32.9748 18.8747C32.9938 18.8568 33.024 18.8578 33.042 18.8766C33.0856 18.9219 33.1292 18.9671 33.1736 19.0114C33.1918 19.0303 33.1918 19.0595 33.1736 19.0784C33.1623 19.0878 33.1501 19.0925 33.1386 19.0925ZM3.96707 19.0294C3.96328 19.0294 3.95949 19.0294 3.9557 19.0284C3.89413 19.0133 3.83162 18.9973 3.77003 18.9794C3.7454 18.9718 3.73025 18.9454 3.73783 18.9209C3.7454 18.8964 3.77192 18.8813 3.79657 18.8889C3.85625 18.9068 3.91686 18.9228 3.9775 18.937C4.00308 18.9426 4.01823 18.9681 4.01255 18.9935C4.0078 19.0152 3.98886 19.0294 3.96707 19.0294ZM5.65039 18.9954C5.63049 18.9954 5.61155 18.9822 5.60493 18.9624C5.59736 18.9379 5.61155 18.9115 5.63618 18.903C5.69588 18.8851 5.7546 18.8644 5.81144 18.8417C5.83607 18.8323 5.86355 18.8446 5.87302 18.8681C5.88249 18.8926 5.87016 18.92 5.84648 18.9294C5.78776 18.952 5.72618 18.9737 5.66461 18.9926C5.65986 18.9945 5.65514 18.9954 5.65039 18.9954ZM3.51523 18.8908C3.50955 18.8908 3.50386 18.8898 3.49816 18.8879C3.43848 18.8653 3.3788 18.8408 3.32102 18.8144C3.29735 18.804 3.28599 18.7757 3.29735 18.7522C3.30776 18.7286 3.33617 18.7182 3.35986 18.7286C3.41671 18.7541 3.47449 18.7776 3.53228 18.8003C3.5569 18.8097 3.56922 18.837 3.55975 18.8615C3.55215 18.8785 3.53417 18.8908 3.51523 18.8908ZM6.0871 18.8153C6.07003 18.8153 6.05394 18.8059 6.04541 18.7899C6.03311 18.7673 6.04162 18.738 6.06531 18.7258C6.12024 18.6966 6.17424 18.6654 6.2254 18.6334C6.2472 18.6192 6.27654 18.6258 6.29076 18.6475C6.30498 18.6692 6.29834 18.6984 6.27654 18.7126C6.22255 18.7465 6.16666 18.7786 6.10983 18.8087C6.10226 18.8144 6.09468 18.8153 6.0871 18.8153ZM32.8147 18.7484C32.8015 18.7484 32.7881 18.7428 32.7787 18.7324C32.737 18.6852 32.6953 18.6372 32.6545 18.5881C32.6375 18.5683 32.6404 18.5382 32.6603 18.5221C32.6802 18.5052 32.7106 18.508 32.7267 18.5278C32.7665 18.5759 32.808 18.623 32.8487 18.6702C32.8657 18.69 32.8641 18.7192 32.8442 18.7371C32.8374 18.7446 32.8262 18.7484 32.8147 18.7484ZM4.49093 18.7239C4.47672 18.7239 4.46346 18.7182 4.45399 18.706C4.41418 18.6569 4.37441 18.607 4.33557 18.558C4.31945 18.5372 4.32327 18.508 4.3441 18.492C4.36494 18.4759 4.39431 18.4797 4.4104 18.5004C4.44924 18.5495 4.48808 18.5985 4.52786 18.6475C4.54397 18.6673 4.54114 18.6975 4.52028 18.7135C4.51177 18.7211 4.50134 18.7239 4.49093 18.7239ZM3.0861 18.6918C3.07852 18.6918 3.07094 18.69 3.06337 18.6862C3.00748 18.6551 2.95159 18.623 2.89759 18.5891C2.8758 18.5749 2.86918 18.5457 2.88244 18.524C2.89663 18.5023 2.926 18.4957 2.9478 18.5089C2.9999 18.5419 3.0539 18.573 3.10883 18.6032C3.13158 18.6155 3.14009 18.6447 3.12779 18.6673C3.11926 18.6833 3.10314 18.6918 3.0861 18.6918ZM6.48116 18.5561C6.4679 18.5561 6.45368 18.5504 6.44421 18.5391C6.42716 18.5193 6.43095 18.4891 6.45085 18.4731C6.49821 18.4345 6.54463 18.393 6.58915 18.3506C6.60809 18.3326 6.63746 18.3326 6.6564 18.3515C6.67441 18.3703 6.67441 18.3996 6.65547 18.4184C6.60905 18.4627 6.56074 18.5061 6.51147 18.5466C6.502 18.5523 6.49159 18.5561 6.48116 18.5561ZM2.68919 18.4363C2.67972 18.4363 2.66929 18.4335 2.66077 18.4269C2.61057 18.3892 2.5594 18.3506 2.51015 18.311C2.48932 18.2949 2.48647 18.2648 2.50258 18.245C2.51869 18.2242 2.549 18.2214 2.56887 18.2374C2.61719 18.2761 2.66739 18.3147 2.71666 18.3515C2.7375 18.3666 2.74225 18.3967 2.72614 18.4175C2.71856 18.4298 2.70434 18.4363 2.68919 18.4363ZM32.5145 18.3845C32.5001 18.3845 32.4859 18.3779 32.4766 18.3666C32.4378 18.3166 32.3999 18.2657 32.362 18.2148C32.3466 18.1941 32.3514 18.1639 32.3723 18.1488C32.3932 18.1337 32.4234 18.1384 32.4387 18.1592C32.4756 18.2091 32.5135 18.26 32.5514 18.3091C32.5675 18.3298 32.5636 18.359 32.5428 18.3751C32.5353 18.3817 32.5248 18.3845 32.5145 18.3845ZM4.20106 18.3524C4.18684 18.3524 4.17264 18.3458 4.16317 18.3336C4.12527 18.2836 4.08738 18.2318 4.05139 18.1809C4.03622 18.1601 4.04096 18.1299 4.0618 18.1149C4.08264 18.0998 4.11297 18.1045 4.12812 18.1252C4.16507 18.1761 4.20199 18.2271 4.2399 18.277C4.25505 18.2978 4.25126 18.327 4.23043 18.343C4.22 18.3487 4.21053 18.3524 4.20106 18.3524ZM6.81367 18.2214C6.80324 18.2214 6.79283 18.2176 6.7843 18.211C6.7644 18.195 6.76061 18.1648 6.77765 18.145C6.8165 18.0979 6.85344 18.0479 6.8885 17.997C6.90365 17.9753 6.93302 17.9706 6.95482 17.9848C6.97659 17.9998 6.98134 18.0291 6.96712 18.0507C6.93113 18.1035 6.89229 18.1554 6.85155 18.2044C6.84112 18.2158 6.82693 18.2214 6.81367 18.2214ZM2.32354 18.1384C2.31217 18.1384 2.3008 18.1347 2.29228 18.1262C2.24586 18.0847 2.1985 18.0413 2.15303 17.997C2.13408 17.9791 2.13313 17.9489 2.15208 17.9301C2.17008 17.9112 2.20039 17.9103 2.21934 17.9291C2.26481 17.9725 2.31028 18.0149 2.35669 18.0564C2.37659 18.0734 2.37753 18.1035 2.36048 18.1233C2.35006 18.1337 2.3368 18.1384 2.32354 18.1384ZM32.2378 18.0036C32.2227 18.0036 32.2076 17.9961 32.199 17.9829C32.1639 17.931 32.1289 17.8773 32.0947 17.8245C32.0805 17.8028 32.0872 17.7736 32.109 17.7594C32.1309 17.7453 32.1601 17.7519 32.1743 17.7736C32.2076 17.8254 32.2426 17.8782 32.2776 17.9301C32.2917 17.9518 32.2862 17.981 32.2654 17.9951C32.2567 18.0008 32.2474 18.0036 32.2378 18.0036ZM3.92633 17.9687C3.91118 17.9687 3.89603 17.9612 3.88751 17.948C3.8515 17.8961 3.81645 17.8433 3.78142 17.7905C3.7672 17.7689 3.77288 17.7396 3.79468 17.7255C3.81645 17.7114 3.84582 17.717 3.86004 17.7387C3.89413 17.7905 3.93012 17.8433 3.96517 17.8942C3.98033 17.9159 3.97465 17.9452 3.95287 17.9603C3.94434 17.9659 3.93487 17.9687 3.92633 17.9687ZM7.07417 17.8302C7.0666 17.8302 7.059 17.8283 7.05142 17.8245C7.02869 17.8122 7.02018 17.784 7.03248 17.7604C7.06185 17.7066 7.08933 17.651 7.11489 17.5945C7.12532 17.5709 7.15373 17.5605 7.17742 17.5709C7.20111 17.5812 7.21151 17.6096 7.20111 17.6331C7.17459 17.6916 7.14615 17.7491 7.11584 17.8047C7.10731 17.8207 7.09122 17.8302 7.07417 17.8302ZM1.98536 17.8094C1.97304 17.8094 1.95978 17.8047 1.95125 17.7943C1.90768 17.7491 1.86505 17.7019 1.82243 17.6548C1.80537 17.635 1.80727 17.6058 1.82621 17.5879C1.84611 17.5709 1.87547 17.5728 1.89347 17.5916C1.93515 17.6378 1.97778 17.685 2.02041 17.7293C2.0384 17.7481 2.03746 17.7783 2.01851 17.7962C2.00904 17.8056 1.99767 17.8094 1.98536 17.8094ZM31.9858 17.6058C31.9697 17.6058 31.9537 17.5973 31.945 17.5822C31.9129 17.5285 31.8817 17.4728 31.8503 17.4182C31.8381 17.3955 31.8455 17.3663 31.8683 17.3541C31.8911 17.3418 31.9203 17.3493 31.9328 17.372C31.963 17.4257 31.9944 17.4804 32.0256 17.5341C32.0388 17.5567 32.0314 17.585 32.0086 17.5982C32.0028 17.6029 31.9944 17.6058 31.9858 17.6058ZM3.66868 17.5737C3.65257 17.5737 3.63648 17.5652 3.62794 17.5501C3.59574 17.4964 3.56448 17.4398 3.53417 17.3842C3.52185 17.3616 3.53038 17.3324 3.55405 17.3201C3.5768 17.3079 3.60615 17.3163 3.61847 17.3399C3.64784 17.3946 3.67911 17.4493 3.71035 17.5021C3.72363 17.5247 3.71603 17.553 3.6933 17.5662C3.68573 17.5718 3.67722 17.5737 3.66868 17.5737ZM1.67465 17.4549C1.66044 17.4549 1.64718 17.4493 1.63771 17.437C1.59792 17.388 1.55813 17.338 1.52024 17.2881C1.50414 17.2673 1.50887 17.2381 1.52877 17.2221C1.54961 17.206 1.57897 17.2107 1.59508 17.2305C1.63297 17.2796 1.67181 17.3295 1.71065 17.3776C1.72675 17.3974 1.72391 17.4276 1.70401 17.4436C1.69549 17.4521 1.68507 17.4549 1.67465 17.4549ZM7.26078 17.3984C7.25604 17.3984 7.25035 17.3974 7.24563 17.3955C7.22098 17.387 7.20772 17.3607 7.21626 17.3361C7.23616 17.2786 7.25414 17.2183 7.27025 17.1589C7.27687 17.1334 7.30341 17.1193 7.32804 17.1259C7.35362 17.1325 7.36781 17.1589 7.3612 17.1834C7.34415 17.2456 7.32614 17.3069 7.30531 17.3663C7.29963 17.3852 7.28066 17.3984 7.26078 17.3984ZM31.7595 17.1928C31.7424 17.1928 31.7254 17.1834 31.7168 17.1674C31.6885 17.1118 31.66 17.0542 31.6324 16.9977C31.6211 16.9741 31.6314 16.9458 31.6542 16.9345C31.6779 16.9232 31.7065 16.9336 31.7177 16.9562C31.7453 17.0128 31.7726 17.0684 31.8012 17.124C31.8134 17.1476 31.8041 17.1759 31.7803 17.1872C31.7736 17.191 31.7669 17.1928 31.7595 17.1928ZM3.44987 17.1561C3.43186 17.1561 3.41482 17.1457 3.40724 17.1287C3.3807 17.0712 3.35514 17.0128 3.33049 16.9543C3.32008 16.9298 3.33238 16.9025 3.35607 16.893C3.3807 16.8827 3.40817 16.8949 3.41764 16.9185C3.44133 16.976 3.46692 17.0335 3.49248 17.0891C3.50386 17.1127 3.49343 17.141 3.46881 17.1514C3.46313 17.1551 3.45649 17.1561 3.44987 17.1561ZM1.39046 17.0788C1.37531 17.0788 1.3611 17.0722 1.35163 17.059C1.31563 17.0071 1.27963 16.9543 1.24458 16.9015C1.23037 16.8798 1.23606 16.8506 1.25784 16.8365C1.27963 16.8223 1.309 16.828 1.32321 16.8497C1.35731 16.9015 1.39331 16.9534 1.42836 17.0043C1.44351 17.026 1.43783 17.0552 1.41699 17.0703C1.40941 17.0759 1.39994 17.0788 1.39046 17.0788ZM7.37824 16.9421C7.37539 16.9421 7.37256 16.9421 7.36971 16.9411C7.34415 16.9364 7.32708 16.9119 7.33183 16.8864C7.34319 16.8261 7.35266 16.7648 7.36024 16.7026C7.36403 16.6771 7.38772 16.6583 7.4133 16.6621C7.43886 16.6658 7.45782 16.6894 7.45403 16.7148C7.4455 16.778 7.43603 16.8421 7.42466 16.9034C7.42087 16.926 7.40097 16.9421 7.37824 16.9421ZM31.5576 16.7676C31.5396 16.7676 31.5216 16.7573 31.5142 16.7394C31.4885 16.6819 31.4638 16.6234 31.4401 16.565C31.4307 16.5405 31.442 16.5131 31.4657 16.5037C31.4904 16.4943 31.5178 16.5056 31.5274 16.5291C31.5511 16.5866 31.5756 16.6442 31.6003 16.7017C31.6108 16.7252 31.6003 16.7535 31.5756 16.7639C31.57 16.7667 31.5633 16.7676 31.5576 16.7676ZM3.27271 16.7196C3.25283 16.7196 3.23482 16.7073 3.22818 16.6885C3.20735 16.6291 3.18747 16.5687 3.1685 16.5084C3.16093 16.4839 3.17515 16.4575 3.19977 16.449C3.22439 16.4415 3.25094 16.4556 3.25945 16.4801C3.27745 16.5395 3.29735 16.5989 3.31819 16.6573C3.3267 16.6819 3.31344 16.7092 3.28882 16.7177C3.28314 16.7186 3.27839 16.7196 3.27271 16.7196ZM1.13375 16.6837C1.11765 16.6837 1.10154 16.6753 1.09302 16.6611C1.06081 16.6074 1.0286 16.5518 0.99734 16.4971C0.984079 16.4744 0.992605 16.4452 1.01534 16.433C1.03807 16.4198 1.06744 16.4282 1.07976 16.4509C1.11007 16.5046 1.14228 16.5593 1.17448 16.6131C1.18775 16.6357 1.18111 16.6639 1.15838 16.6781C1.14985 16.6809 1.14133 16.6837 1.13375 16.6837ZM7.43413 16.4744C7.43318 16.4744 7.43224 16.4744 7.43128 16.4744C7.40476 16.4726 7.38486 16.4509 7.38676 16.4245C7.39054 16.3632 7.39246 16.301 7.3934 16.2378C7.3934 16.2114 7.41519 16.1907 7.44171 16.1916C7.46823 16.1916 7.48906 16.2133 7.48813 16.2397C7.48717 16.3038 7.48434 16.3679 7.48055 16.4302C7.47959 16.4547 7.45876 16.4744 7.43413 16.4744ZM31.3804 16.3312C31.3614 16.3312 31.3435 16.3198 31.336 16.3001C31.3142 16.2416 31.2924 16.1813 31.2715 16.1219C31.2631 16.0974 31.2763 16.07 31.301 16.0615C31.3255 16.053 31.3531 16.0662 31.3614 16.0908C31.3823 16.1492 31.4032 16.2086 31.425 16.267C31.4346 16.2916 31.4211 16.3189 31.3976 16.3274C31.3909 16.3302 31.3852 16.3312 31.3804 16.3312ZM0.903561 16.2718C0.886509 16.2718 0.869459 16.2623 0.860933 16.2463C0.831566 16.1897 0.803149 16.1332 0.775677 16.0766C0.764309 16.053 0.77473 16.0248 0.797464 16.0135C0.821146 16.0021 0.849565 16.0125 0.860933 16.0351C0.887456 16.0908 0.915875 16.1473 0.944295 16.2029C0.956609 16.2265 0.947136 16.2548 0.923454 16.2661C0.917769 16.2699 0.911137 16.2718 0.903561 16.2718ZM3.1363 16.2689C3.11547 16.2689 3.09557 16.2548 3.09084 16.2331C3.07569 16.1718 3.06051 16.1096 3.04725 16.0483C3.04157 16.0229 3.05768 15.9974 3.08327 15.9927C3.10883 15.9871 3.13441 16.0031 3.13916 16.0285C3.15242 16.0889 3.16661 16.1501 3.18179 16.2105C3.1884 16.2359 3.17325 16.2614 3.14767 16.268C3.14484 16.268 3.14009 16.2689 3.1363 16.2689ZM7.43696 16.0031C7.4114 16.0031 7.39054 15.9833 7.38961 15.9578C7.38676 15.8965 7.38297 15.8334 7.37824 15.7711C7.37635 15.7447 7.39529 15.7221 7.42181 15.7203C7.44835 15.7183 7.47108 15.7372 7.47298 15.7636C7.4777 15.8268 7.48245 15.8909 7.48434 15.9531C7.48528 15.9795 7.4654 16.0012 7.43886 16.0021C7.43792 16.0031 7.43792 16.0031 7.43696 16.0031ZM31.2269 15.8852C31.207 15.8852 31.1881 15.872 31.1816 15.8522C31.1627 15.7928 31.1447 15.7316 31.1267 15.6712C31.119 15.6458 31.1341 15.6203 31.1588 15.6128C31.1845 15.6052 31.2099 15.6203 31.2176 15.6448C31.2346 15.7052 31.2535 15.7655 31.2715 15.8239C31.2792 15.8484 31.2648 15.8748 31.2404 15.8833C31.2365 15.8852 31.2317 15.8852 31.2269 15.8852ZM0.701788 15.8456C0.683791 15.8456 0.665792 15.8353 0.658213 15.8173C0.632637 15.7589 0.608008 15.7005 0.585274 15.642C0.5758 15.6175 0.587168 15.5902 0.611797 15.5807C0.636425 15.5713 0.663898 15.5826 0.673371 15.6071C0.696105 15.6646 0.720734 15.7231 0.745363 15.7806C0.755783 15.8042 0.744416 15.8324 0.720734 15.8428C0.714102 15.8447 0.707473 15.8456 0.701788 15.8456ZM3.04157 15.8079C3.01884 15.8079 2.99894 15.7909 2.99515 15.7683C2.98475 15.7061 2.97621 15.6429 2.96863 15.5798C2.96581 15.5543 2.98379 15.5307 3.01033 15.527C3.03589 15.5241 3.05958 15.5421 3.06337 15.5685C3.07094 15.6297 3.07948 15.6919 3.08988 15.7532C3.09367 15.7787 3.07663 15.8032 3.05104 15.807C3.04632 15.807 3.04347 15.8079 3.04157 15.8079ZM7.39529 15.5345C7.3716 15.5345 7.35173 15.5176 7.34794 15.494C7.3394 15.4327 7.33087 15.3705 7.32046 15.3092C7.31571 15.2837 7.33372 15.2592 7.3593 15.2555C7.38486 15.2508 7.40951 15.2687 7.4133 15.2941C7.4237 15.3563 7.43317 15.4195 7.44171 15.4817C7.4455 15.5072 7.42656 15.5307 7.40097 15.5345C7.39908 15.5345 7.39719 15.5345 7.39529 15.5345ZM31.0982 15.4327C31.0773 15.4327 31.0574 15.4186 31.0529 15.3969C31.0375 15.3365 31.0224 15.2743 31.0073 15.213C31.0016 15.1876 31.0167 15.1621 31.0423 15.1565C31.068 15.1508 31.0934 15.1659 31.0991 15.1913C31.1133 15.2526 31.1286 15.313 31.1437 15.3733C31.1502 15.3988 31.1351 15.4242 31.1097 15.4308C31.1068 15.4318 31.103 15.4327 31.0982 15.4327ZM0.528437 15.4073C0.508544 15.4073 0.490544 15.395 0.483912 15.3761C0.463074 15.3167 0.442234 15.2564 0.423288 15.1961C0.415709 15.1716 0.42897 15.1452 0.453601 15.1367C0.47823 15.1291 0.504753 15.1423 0.513279 15.1668C0.532225 15.2253 0.552119 15.2856 0.572959 15.3441C0.581483 15.3686 0.569169 15.3959 0.543593 15.4044C0.538857 15.4063 0.534119 15.4073 0.528437 15.4073ZM2.98758 15.3394C2.96295 15.3394 2.94212 15.3205 2.94022 15.295C2.93547 15.2319 2.93265 15.1678 2.93075 15.1056C2.92979 15.0792 2.95063 15.0575 2.97621 15.0565C3.00273 15.0556 3.02452 15.0763 3.02548 15.1018C3.02738 15.1631 3.03021 15.2262 3.03495 15.2885C3.03685 15.3149 3.01695 15.3365 2.99136 15.3384C2.99043 15.3394 2.98854 15.3394 2.98758 15.3394ZM7.31478 15.0707C7.29298 15.0707 7.27308 15.0556 7.26836 15.033C7.2551 14.9726 7.24088 14.9114 7.22669 14.851C7.22005 14.8255 7.23616 14.8001 7.26172 14.7944C7.2873 14.7878 7.31288 14.8039 7.31857 14.8293C7.33372 14.8906 7.34794 14.9528 7.3612 15.0141C7.36688 15.0396 7.35077 15.065 7.32518 15.0697C7.3214 15.0697 7.31761 15.0707 7.31478 15.0707ZM30.9932 14.9736C30.9713 14.9736 30.9514 14.9585 30.9466 14.9359C30.9344 14.8746 30.922 14.8124 30.9107 14.7501C30.9059 14.7247 30.9229 14.7002 30.9486 14.6954C30.9742 14.6907 30.9987 14.7077 31.0035 14.7332C31.0147 14.7944 31.0272 14.8567 31.0394 14.917C31.0452 14.9425 31.0282 14.967 31.0025 14.9726C30.9996 14.9736 30.9958 14.9736 30.9932 14.9736ZM0.387292 14.9575C0.366451 14.9575 0.347505 14.9434 0.341822 14.9227C0.33519 14.9 0.329506 14.8774 0.323823 14.8548C0.313403 14.8171 0.30393 14.7775 0.294457 14.7388C0.288774 14.7134 0.30393 14.6879 0.329506 14.6823C0.355084 14.6757 0.38066 14.6917 0.386344 14.7171C0.395815 14.7549 0.405288 14.7935 0.414762 14.8312C0.420446 14.8539 0.426129 14.8755 0.432761 14.8981C0.43939 14.9236 0.425182 14.9491 0.399606 14.9557C0.395815 14.9566 0.392027 14.9575 0.387292 14.9575ZM2.97811 14.8689H2.97717C2.95063 14.868 2.93075 14.8463 2.93075 14.8208C2.93265 14.7577 2.93548 14.6936 2.93926 14.6304C2.94116 14.604 2.96391 14.5842 2.98947 14.5861C3.01601 14.588 3.03495 14.6106 3.03399 14.6361C3.03021 14.6974 3.02738 14.7605 3.02548 14.8227C3.02452 14.8482 3.00369 14.8689 2.97811 14.8689ZM7.19732 14.6144C7.17742 14.6144 7.15847 14.6012 7.15183 14.5804C7.13385 14.521 7.11489 14.4607 7.09405 14.4022C7.08554 14.3777 7.0988 14.3504 7.12342 14.3419C7.14805 14.3334 7.17552 14.3466 7.18406 14.3711C7.20489 14.4305 7.22383 14.4918 7.24278 14.5522C7.25035 14.5767 7.23616 14.6031 7.21151 14.6106C7.20679 14.6134 7.20204 14.6144 7.19732 14.6144ZM30.9097 14.5097C30.8869 14.5097 30.8661 14.4928 30.8632 14.4701C30.8539 14.4089 30.8443 14.3457 30.8359 14.2825C30.832 14.2571 30.85 14.2326 30.8766 14.2297C30.9021 14.226 30.9268 14.2439 30.9296 14.2703C30.938 14.3325 30.9476 14.3947 30.957 14.456C30.9608 14.4814 30.9438 14.506 30.9174 14.5097C30.9145 14.5097 30.9116 14.5097 30.9097 14.5097ZM0.279301 14.4984C0.257513 14.4984 0.23762 14.4833 0.232884 14.4607C0.220569 14.3994 0.209201 14.3363 0.197834 14.274C0.193098 14.2486 0.211096 14.2241 0.236673 14.2194C0.262249 14.2146 0.28688 14.2326 0.291615 14.258C0.302036 14.3193 0.313403 14.3815 0.325717 14.4419C0.330453 14.4673 0.31435 14.4918 0.288774 14.4975C0.28593 14.4984 0.282142 14.4984 0.279301 14.4984ZM3.01505 14.3994C3.01316 14.3994 3.01033 14.3994 3.00748 14.3985C2.98189 14.3947 2.96391 14.3702 2.9677 14.3447C2.97717 14.2825 2.98947 14.2184 3.00462 14.1562C3.01033 14.1307 3.03589 14.1147 3.06147 14.1213C3.08705 14.127 3.10314 14.1524 3.09653 14.1779C3.08231 14.2382 3.07001 14.2985 3.06147 14.3589C3.05862 14.3834 3.03874 14.3994 3.01505 14.3994ZM7.04005 14.1703C7.02111 14.1703 7.00407 14.159 6.99649 14.1411C6.9728 14.0836 6.94722 14.0261 6.92166 13.9705C6.91029 13.9469 6.9207 13.9186 6.94532 13.9082C6.96901 13.8969 6.99742 13.9073 7.00785 13.9318C7.03437 13.9884 7.05996 14.0478 7.08364 14.1062C7.09311 14.1307 7.08175 14.1581 7.05806 14.1675C7.05142 14.1694 7.04574 14.1703 7.04005 14.1703ZM30.8481 14.0431C30.8244 14.0431 30.8035 14.0252 30.8009 14.0006C30.7942 13.9384 30.7874 13.8752 30.7819 13.8121C30.7791 13.7857 30.799 13.7631 30.8244 13.7612C30.851 13.7593 30.8738 13.7782 30.8757 13.8036C30.8812 13.8658 30.8879 13.928 30.8946 13.9903C30.8975 14.0157 30.8786 14.0393 30.8529 14.0421C30.851 14.0431 30.8491 14.0431 30.8481 14.0431ZM0.20257 14.0346C0.178888 14.0346 0.158995 14.0176 0.155206 13.994C0.146681 13.9318 0.139102 13.8687 0.132472 13.8055C0.12963 13.78 0.148575 13.7565 0.174152 13.7536C0.200676 13.7508 0.223411 13.7697 0.226253 13.7951C0.232884 13.8573 0.240461 13.9196 0.24804 13.9808C0.251828 14.0063 0.232884 14.0299 0.207307 14.0336C0.20636 14.0336 0.204465 14.0346 0.20257 14.0346ZM3.13251 13.9441C3.12683 13.9441 3.12211 13.9431 3.1164 13.9413C3.09178 13.9327 3.07948 13.9054 3.08799 13.8809C3.10979 13.8215 3.13441 13.7612 3.16093 13.7027C3.17136 13.6792 3.19977 13.6688 3.22346 13.6792C3.24715 13.6895 3.25755 13.7178 3.24715 13.7414C3.22156 13.7979 3.19788 13.8554 3.17704 13.913C3.1704 13.9327 3.15242 13.9441 3.13251 13.9441ZM6.83733 13.7442C6.82028 13.7442 6.8042 13.7357 6.79566 13.7197C6.76535 13.665 6.73409 13.6103 6.70282 13.5585C6.68956 13.5358 6.69621 13.5076 6.71894 13.4934C6.74167 13.4802 6.77008 13.4868 6.7843 13.5095C6.8165 13.5622 6.84872 13.6179 6.87996 13.6745C6.89229 13.6971 6.88375 13.7263 6.86102 13.7385C6.85251 13.7423 6.84493 13.7442 6.83733 13.7442ZM30.8064 13.5745C30.7819 13.5745 30.7611 13.5557 30.7592 13.5302C30.7553 13.468 30.7515 13.4039 30.7476 13.3416C30.7467 13.3153 30.7666 13.2936 30.7922 13.2926C30.8179 13.2917 30.8407 13.3115 30.8414 13.3369C30.8443 13.3992 30.8481 13.4623 30.8519 13.5245C30.8539 13.5509 30.834 13.5726 30.8073 13.5745C30.8083 13.5745 30.8073 13.5745 30.8064 13.5745ZM0.155206 13.566C0.130577 13.566 0.109737 13.5472 0.107842 13.5217C0.103106 13.4595 0.100264 13.3954 0.097422 13.3322C0.0964747 13.3058 0.116368 13.2841 0.142892 13.2832C0.168468 13.2823 0.191203 13.302 0.19215 13.3284C0.194992 13.3907 0.198781 13.4538 0.20257 13.5151C0.204465 13.5415 0.184572 13.5632 0.158995 13.5651C0.157101 13.5651 0.156154 13.566 0.155206 13.566ZM3.33428 13.5189C3.32577 13.5189 3.31819 13.517 3.31061 13.5123C3.28788 13.4991 3.28028 13.4699 3.29357 13.4482C3.32577 13.3935 3.36082 13.3388 3.39777 13.287C3.41292 13.2653 3.44227 13.2606 3.46406 13.2747C3.48586 13.2898 3.49058 13.319 3.47639 13.3407C3.44133 13.3907 3.40724 13.4435 3.37597 13.4963C3.3665 13.5104 3.35039 13.5189 3.33428 13.5189ZM6.58536 13.3464C6.57117 13.3464 6.55599 13.3398 6.54748 13.3266C6.51053 13.2756 6.47169 13.2266 6.43285 13.1804C6.4158 13.1606 6.41865 13.1305 6.43949 13.1144C6.45936 13.0975 6.4897 13.1003 6.50578 13.121C6.54558 13.1691 6.58536 13.22 6.6242 13.2719C6.63936 13.2926 6.63463 13.3228 6.61377 13.3379C6.60526 13.3435 6.59483 13.3464 6.58536 13.3464ZM3.6109 13.1371C3.59953 13.1371 3.5891 13.1333 3.57963 13.1258C3.55975 13.1088 3.55786 13.0786 3.57491 13.0588C3.61754 13.0107 3.66204 12.9636 3.70752 12.9193C3.72646 12.9014 3.75583 12.9014 3.77478 12.9202C3.79278 12.9391 3.79278 12.9683 3.77382 12.9872C3.73025 13.0296 3.68669 13.0749 3.64595 13.121C3.63741 13.1324 3.62416 13.1371 3.6109 13.1371ZM30.7855 13.1041C30.7601 13.1041 30.7393 13.0833 30.7383 13.0579C30.7364 12.9957 30.7354 12.9315 30.7354 12.8693C30.7354 12.8429 30.7563 12.8222 30.7829 12.8222C30.8083 12.8222 30.8301 12.8429 30.8301 12.8693C30.8311 12.9315 30.832 12.9947 30.833 13.0569C30.834 13.0833 30.8131 13.105 30.7865 13.105C30.7865 13.1041 30.7855 13.1041 30.7855 13.1041ZM0.137208 13.0947C0.111631 13.0947 0.0898438 13.0739 0.0898438 13.0475C0.0898438 13.0277 0.0898438 13.0079 0.0898438 12.9872C0.0898438 12.9447 0.0898437 12.9004 0.0907911 12.858C0.0907911 12.8316 0.112579 12.8109 0.139102 12.8118C0.165626 12.8118 0.186467 12.8335 0.18552 12.8599C0.184572 12.9023 0.184572 12.9457 0.184572 12.9881C0.184572 13.0079 0.184572 13.0277 0.184572 13.0475C0.184572 13.0739 0.163732 13.0947 0.137208 13.0947ZM6.27654 12.99C6.26424 12.99 6.25288 12.9853 6.24341 12.9768C6.19888 12.9334 6.15246 12.892 6.10509 12.8542C6.08521 12.8373 6.08236 12.8081 6.09847 12.7882C6.11552 12.7684 6.14489 12.7656 6.16476 12.7817C6.21308 12.8212 6.26235 12.8646 6.30877 12.9099C6.32771 12.9278 6.32771 12.9579 6.3097 12.9768C6.30119 12.9853 6.28887 12.99 6.27654 12.99ZM3.95666 12.8165C3.94244 12.8165 3.92823 12.8099 3.91876 12.7977C3.90267 12.7769 3.90739 12.7477 3.92823 12.7317C3.98033 12.693 4.03432 12.6563 4.08832 12.6233C4.11011 12.6091 4.13948 12.6167 4.15368 12.6383C4.1679 12.66 4.16032 12.6893 4.13853 12.7034C4.08738 12.7355 4.03528 12.7703 3.98601 12.8071C3.97654 12.8137 3.96707 12.8165 3.95666 12.8165ZM5.90522 12.7006C5.89668 12.7006 5.88817 12.6987 5.88059 12.694C5.82753 12.6619 5.77354 12.6327 5.71861 12.6063C5.69492 12.595 5.68545 12.5667 5.69681 12.5431C5.70818 12.5196 5.73659 12.5101 5.76028 12.5215C5.81806 12.5488 5.87491 12.5799 5.9308 12.6138C5.95353 12.627 5.96015 12.6563 5.94689 12.6789C5.93648 12.6921 5.92133 12.7006 5.90522 12.7006ZM30.7836 12.6327C30.7827 12.6327 30.7827 12.6327 30.7836 12.6327C30.7572 12.6327 30.7364 12.611 30.7364 12.5846C30.7373 12.5224 30.7393 12.4583 30.7412 12.3951C30.7421 12.3687 30.7637 12.3489 30.7903 12.3499C30.8169 12.3508 30.8368 12.3725 30.8359 12.3989C30.834 12.4611 30.832 12.5243 30.8311 12.5865C30.8301 12.6129 30.8093 12.6327 30.7836 12.6327ZM0.147628 12.6242C0.146681 12.6242 0.145733 12.6242 0.144786 12.6242C0.118262 12.6233 0.0983693 12.6006 0.100264 12.5752C0.103106 12.5129 0.107842 12.4489 0.111631 12.3857C0.113526 12.3593 0.136261 12.3404 0.161837 12.3423C0.188361 12.3442 0.207307 12.3668 0.205412 12.3932C0.200676 12.4554 0.196887 12.5186 0.194045 12.5799C0.194045 12.6044 0.173205 12.6242 0.147628 12.6242ZM4.36494 12.579C4.34693 12.579 4.32895 12.5686 4.32135 12.5507C4.31094 12.5271 4.32231 12.4988 4.34599 12.4884C4.40567 12.463 4.46724 12.4404 4.52786 12.4215C4.55251 12.414 4.57902 12.4281 4.5866 12.4526C4.59418 12.4771 4.57996 12.5035 4.55533 12.5111C4.49755 12.529 4.43977 12.5497 4.38294 12.5742C4.37724 12.578 4.37062 12.579 4.36494 12.579ZM5.47421 12.5092C5.46947 12.5092 5.46568 12.5082 5.46093 12.5073C5.40221 12.4903 5.34253 12.4762 5.2819 12.4658C5.25634 12.4611 5.23927 12.4366 5.24306 12.4111C5.2478 12.3857 5.27243 12.3687 5.29801 12.3725C5.36148 12.3838 5.42494 12.3979 5.48747 12.4159C5.51303 12.4234 5.52725 12.4489 5.51967 12.4743C5.51399 12.496 5.49505 12.5092 5.47421 12.5092ZM4.81869 12.4554C4.795 12.4554 4.7751 12.4375 4.77132 12.414C4.76849 12.3885 4.78647 12.365 4.81205 12.3612C4.87648 12.3527 4.94184 12.3489 5.00624 12.3489C5.03276 12.3489 5.05362 12.3697 5.05362 12.3961C5.05362 12.4225 5.03276 12.4432 5.00624 12.4432C4.94563 12.4432 4.88405 12.4479 4.82342 12.4554C4.82342 12.4554 4.82059 12.4554 4.81869 12.4554ZM30.7999 12.1622C30.799 12.1622 30.798 12.1622 30.797 12.1622C30.7704 12.1613 30.7505 12.1387 30.7524 12.1123C30.7563 12.0491 30.7601 11.9859 30.7637 11.9237C30.7656 11.8973 30.7884 11.8785 30.8141 11.8804C30.8407 11.8822 30.8596 11.9049 30.8577 11.9303C30.8529 11.9926 30.8491 12.0557 30.8462 12.1179C30.8452 12.1434 30.8244 12.1622 30.7999 12.1622ZM0.184572 12.1547C0.182678 12.1547 0.180783 12.1547 0.179836 12.1547C0.154259 12.1519 0.135313 12.1283 0.138155 12.1029C0.144786 12.0406 0.152364 11.9775 0.159943 11.9143C0.162785 11.8889 0.186467 11.87 0.212991 11.8738C0.238567 11.8766 0.257513 11.9011 0.253723 11.9266C0.246146 11.9888 0.238567 12.051 0.231936 12.1123C0.229094 12.1368 0.208254 12.1547 0.184572 12.1547ZM30.834 11.6927C30.832 11.6927 30.8311 11.6927 30.8292 11.6927C30.8035 11.6899 30.7836 11.6673 30.7865 11.6418C30.7922 11.5796 30.799 11.5155 30.8054 11.4533C30.8083 11.4278 30.832 11.409 30.8577 11.4118C30.8831 11.4146 30.9021 11.4382 30.8992 11.4637C30.8927 11.5259 30.886 11.5881 30.8802 11.6503C30.8793 11.6748 30.8587 11.6927 30.834 11.6927ZM0.247093 11.688C0.244252 11.688 0.242355 11.688 0.239515 11.6871C0.213938 11.6833 0.19594 11.6588 0.199729 11.6334C0.209201 11.5711 0.220569 11.5089 0.231936 11.4467C0.236673 11.4212 0.261302 11.4043 0.28688 11.409C0.312456 11.4137 0.329506 11.4382 0.32477 11.4637C0.313403 11.5249 0.302983 11.5872 0.293509 11.6484C0.289721 11.6711 0.269828 11.688 0.247093 11.688ZM0.332349 11.2251C0.329506 11.2251 0.325717 11.2251 0.322876 11.2242C0.297298 11.2185 0.281195 11.194 0.28593 11.1686C0.299194 11.1073 0.312456 11.0451 0.326664 10.9838C0.332349 10.9583 0.357925 10.9423 0.383501 10.9489C0.409079 10.9546 0.425182 10.98 0.418552 11.0055C0.404341 11.0658 0.39108 11.128 0.377818 11.1884C0.374028 11.2091 0.355084 11.2251 0.332349 11.2251ZM30.886 11.2242C30.8841 11.2242 30.8822 11.2242 30.8802 11.2242C30.8548 11.2204 30.8359 11.1969 30.8397 11.1714C30.8462 11.1233 30.8529 11.0743 30.8596 11.0253L30.8651 10.9838C30.869 10.9583 30.8927 10.9404 30.9191 10.9442C30.9447 10.948 30.9627 10.9715 30.9589 10.9979L30.9534 11.0394C30.9466 11.0875 30.9399 11.1365 30.9335 11.1837C30.9296 11.2072 30.9097 11.2242 30.886 11.2242ZM21.9077 10.8603C21.8811 10.8603 21.8603 10.8396 21.8603 10.8132C21.8603 10.7868 21.8811 10.766 21.9077 10.766C21.9702 10.766 22.0337 10.766 22.0971 10.7651C22.1227 10.7651 22.1445 10.7858 22.1445 10.8122C22.1445 10.8386 22.1237 10.8593 22.0971 10.8593C22.0346 10.8603 21.9702 10.8603 21.9077 10.8603ZM21.6235 10.8593C21.56 10.8584 21.4966 10.8584 21.4331 10.8575C21.4066 10.8575 21.3857 10.8358 21.3867 10.8094C21.3867 10.783 21.4085 10.7632 21.435 10.7632C21.4975 10.7641 21.561 10.7651 21.6235 10.7651C21.65 10.7651 21.6708 10.7868 21.6708 10.8122C21.6708 10.8386 21.65 10.8593 21.6235 10.8593ZM22.3813 10.8556C22.3557 10.8556 22.3349 10.8348 22.3339 10.8094C22.333 10.783 22.3538 10.7623 22.3804 10.7613C22.4429 10.7604 22.5064 10.7585 22.5689 10.7575H22.5698C22.5954 10.7575 22.6162 10.7783 22.6172 10.8037C22.6181 10.8301 22.5973 10.8518 22.5708 10.8518C22.5083 10.8537 22.4448 10.8546 22.3813 10.8556ZM21.1508 10.8509H21.1499C21.0873 10.849 21.0229 10.8471 20.9604 10.8452C20.9339 10.8443 20.914 10.8226 20.9149 10.7962C20.9159 10.7698 20.9377 10.75 20.9642 10.7509C21.0267 10.7528 21.0902 10.7547 21.1527 10.7566C21.1792 10.7575 21.1991 10.7792 21.1991 10.8047C21.1972 10.8311 21.1764 10.8509 21.1508 10.8509ZM22.854 10.8433C22.8284 10.8433 22.8076 10.8235 22.8066 10.7981C22.8057 10.7717 22.8265 10.75 22.8521 10.749C22.9146 10.7472 22.9781 10.7443 23.0406 10.7415C23.0671 10.7406 23.0889 10.7604 23.0899 10.7868C23.0908 10.8132 23.0709 10.8348 23.0444 10.8358C22.9809 10.8386 22.9184 10.8405 22.855 10.8433C22.855 10.8433 22.855 10.8433 22.854 10.8433ZM20.6781 10.8358C20.6772 10.8358 20.6772 10.8358 20.6762 10.8358C20.6137 10.8329 20.5493 10.8301 20.4868 10.8273C20.4602 10.8263 20.4403 10.8037 20.4422 10.7783C20.4432 10.7519 20.4659 10.7321 20.4915 10.734C20.554 10.7368 20.6175 10.7396 20.68 10.7424C20.7065 10.7434 20.7264 10.7651 20.7255 10.7915C20.7245 10.816 20.7027 10.8358 20.6781 10.8358ZM23.3267 10.8226C23.3021 10.8226 23.2812 10.8028 23.2793 10.7783C23.2784 10.7519 23.2983 10.7302 23.3239 10.7283C23.3864 10.7255 23.4499 10.7217 23.5124 10.7179C23.538 10.716 23.5607 10.7359 23.5626 10.7623C23.5645 10.7886 23.5446 10.8103 23.5181 10.8122C23.4546 10.816 23.3921 10.8198 23.3286 10.8226C23.3286 10.8226 23.3277 10.8226 23.3267 10.8226ZM20.2054 10.8113C20.2045 10.8113 20.2035 10.8113 20.2026 10.8113C20.14 10.8075 20.0766 10.8037 20.0131 10.8C19.9866 10.7981 19.9676 10.7754 19.9686 10.75C19.9695 10.7245 19.9932 10.7047 20.0188 10.7057C20.0813 10.7095 20.1448 10.7142 20.2073 10.717C20.2338 10.7189 20.2537 10.7406 20.2518 10.767C20.2509 10.7924 20.23 10.8113 20.2054 10.8113ZM23.7994 10.7943C23.7748 10.7943 23.7539 10.7754 23.752 10.75C23.7501 10.7236 23.77 10.7019 23.7956 10.7C23.8581 10.6953 23.9216 10.6915 23.9841 10.6868C24.0107 10.6849 24.0335 10.7047 24.0352 10.7302C24.0371 10.7566 24.0172 10.7792 23.9918 10.7811C23.9282 10.7858 23.8657 10.7905 23.8022 10.7943C23.8013 10.7943 23.8004 10.7943 23.7994 10.7943ZM19.7327 10.7801C19.7318 10.7801 19.7299 10.7801 19.7289 10.7801C19.6664 10.7754 19.602 10.7707 19.5395 10.7651C19.5129 10.7632 19.494 10.7406 19.4959 10.7142C19.4978 10.6878 19.5205 10.6689 19.547 10.6708C19.6096 10.6755 19.673 10.6812 19.7355 10.6859C19.7621 10.6878 19.781 10.7104 19.7791 10.7368C19.7782 10.7613 19.7573 10.7801 19.7327 10.7801ZM0.441287 10.766C0.437496 10.766 0.433708 10.7651 0.42897 10.7641C0.403394 10.7575 0.388239 10.7321 0.394868 10.7066C0.410973 10.6463 0.427076 10.585 0.444128 10.5237C0.450758 10.4983 0.477283 10.4841 0.502859 10.4907C0.528437 10.4973 0.542646 10.5237 0.536014 10.5492C0.518964 10.6095 0.502859 10.6698 0.486756 10.7302C0.481071 10.7519 0.462125 10.766 0.441287 10.766ZM30.9543 10.7585C30.9514 10.7585 30.9495 10.7585 30.9466 10.7575C30.921 10.7537 30.903 10.7292 30.9078 10.7038C30.9181 10.6416 30.9287 10.5784 30.939 10.5171C30.9438 10.4917 30.9685 10.4747 30.9941 10.4785C31.0195 10.4832 31.0366 10.5077 31.033 10.5332C31.0224 10.5944 31.0121 10.6567 31.0016 10.7179C30.9968 10.7424 30.9769 10.7585 30.9543 10.7585ZM24.2711 10.7585C24.2466 10.7585 24.2258 10.7396 24.2238 10.7151C24.2219 10.6887 24.2409 10.6661 24.2672 10.6642C24.3298 10.6585 24.3924 10.6529 24.4559 10.6472C24.4823 10.6444 24.5051 10.6642 24.507 10.6897C24.5099 10.7151 24.49 10.7387 24.4643 10.7406C24.4018 10.7462 24.3375 10.7519 24.2759 10.7575C24.274 10.7585 24.273 10.7585 24.2711 10.7585ZM19.2619 10.7406C19.26 10.7406 19.2591 10.7406 19.2572 10.7406C19.1947 10.7349 19.1312 10.7283 19.0687 10.7226C19.0431 10.7198 19.0232 10.6972 19.026 10.6708C19.0289 10.6453 19.0516 10.6255 19.0781 10.6284C19.1407 10.635 19.2032 10.6406 19.2666 10.6463C19.2932 10.6491 19.3121 10.6717 19.3093 10.6972C19.3064 10.7217 19.2856 10.7406 19.2619 10.7406ZM24.7429 10.7142C24.7192 10.7142 24.6983 10.6962 24.6955 10.6717C24.6926 10.6463 24.7115 10.6227 24.7381 10.6199C24.8007 10.6133 24.8633 10.6067 24.9256 10.6001C24.9513 10.5972 24.975 10.6161 24.9779 10.6416C24.9806 10.667 24.9616 10.6906 24.9362 10.6934C24.8736 10.7 24.8101 10.7066 24.7477 10.7132C24.7458 10.7142 24.7439 10.7142 24.7429 10.7142ZM18.7911 10.6925C18.7892 10.6925 18.7873 10.6925 18.7854 10.6925C18.7229 10.6859 18.6594 10.6783 18.5969 10.6708C18.5713 10.668 18.5524 10.6444 18.5552 10.6189C18.5581 10.5935 18.5818 10.5746 18.6073 10.5775C18.6699 10.585 18.7324 10.5916 18.7949 10.5982C18.8205 10.601 18.8394 10.6246 18.8366 10.65C18.8347 10.6746 18.8148 10.6925 18.7911 10.6925ZM25.2126 10.6623C25.1891 10.6623 25.1683 10.6444 25.1654 10.6208C25.1625 10.5954 25.1805 10.5718 25.2071 10.568C25.2695 10.5605 25.333 10.553 25.3946 10.5454C25.4203 10.5426 25.4438 10.5605 25.4476 10.5859C25.4505 10.6114 25.4325 10.635 25.4069 10.6387C25.3445 10.6463 25.2819 10.6548 25.2184 10.6614C25.2165 10.6623 25.2146 10.6623 25.2126 10.6623ZM18.3203 10.6369C18.3184 10.6369 18.3165 10.6369 18.3146 10.6369C18.2521 10.6293 18.1886 10.6208 18.1271 10.6123C18.1015 10.6086 18.0826 10.585 18.0863 10.5596C18.0901 10.5341 18.1138 10.5152 18.1394 10.519C18.2019 10.5275 18.2644 10.535 18.3269 10.5435C18.3525 10.5463 18.3715 10.5709 18.3677 10.5963C18.3648 10.6199 18.344 10.6369 18.3203 10.6369ZM25.6826 10.602C25.6588 10.602 25.6389 10.585 25.6361 10.5614C25.6325 10.536 25.6505 10.5115 25.6768 10.5086C25.7385 10.5002 25.802 10.4917 25.8646 10.4822C25.89 10.4785 25.9147 10.4964 25.9185 10.5218C25.9224 10.5473 25.9044 10.5718 25.8787 10.5756C25.8161 10.5841 25.7526 10.5935 25.6912 10.602C25.6864 10.602 25.6845 10.602 25.6826 10.602ZM17.8514 10.5737C17.8495 10.5737 17.8467 10.5737 17.8448 10.5727C17.7832 10.5643 17.7197 10.5548 17.6572 10.5454C17.6316 10.5416 17.6136 10.5171 17.6174 10.4917C17.6212 10.4662 17.6458 10.4483 17.6714 10.4521C17.7339 10.4615 17.7965 10.4709 17.858 10.4794C17.8836 10.4832 17.9016 10.5068 17.8978 10.5332C17.895 10.5567 17.8751 10.5737 17.8514 10.5737ZM26.1506 10.5341C26.1278 10.5341 26.107 10.5171 26.1041 10.4945C26.1003 10.469 26.1173 10.4445 26.1439 10.4408C26.2055 10.4313 26.2691 10.421 26.3304 10.4115C26.3561 10.4078 26.3808 10.4247 26.3846 10.4502C26.3882 10.4756 26.3712 10.5002 26.3458 10.5039C26.2832 10.5143 26.2206 10.5237 26.158 10.5332C26.1554 10.5341 26.1535 10.5341 26.1506 10.5341ZM17.3844 10.503C17.3815 10.503 17.3797 10.503 17.3768 10.502C17.3153 10.4917 17.2518 10.4813 17.1902 10.4709C17.1646 10.4662 17.1466 10.4426 17.1514 10.4162C17.1561 10.3908 17.1798 10.3729 17.2063 10.3776C17.2688 10.388 17.3313 10.3983 17.3929 10.4087C17.4185 10.4125 17.4365 10.437 17.4318 10.4624C17.427 10.486 17.4071 10.503 17.3844 10.503ZM26.6177 10.4587C26.5949 10.4587 26.575 10.4426 26.5712 10.4191C26.5664 10.3936 26.5843 10.3691 26.61 10.3644C26.6726 10.354 26.7349 10.3427 26.7965 10.3323C26.8222 10.3276 26.8469 10.3446 26.8514 10.3701C26.8562 10.3955 26.8392 10.42 26.8136 10.4247C26.7522 10.436 26.6896 10.4464 26.627 10.4577C26.6232 10.4577 26.6203 10.4587 26.6177 10.4587ZM16.9174 10.4238C16.9145 10.4238 16.9117 10.4238 16.9089 10.4229C16.8463 10.4115 16.7838 10.4002 16.7222 10.3889C16.6967 10.3842 16.6796 10.3597 16.6844 10.3342C16.6891 10.3088 16.7137 10.2918 16.7393 10.2965C16.8009 10.3078 16.8634 10.3191 16.925 10.3305C16.9505 10.3352 16.9676 10.3597 16.9628 10.3851C16.96 10.4078 16.9401 10.4238 16.9174 10.4238ZM27.0835 10.3748C27.061 10.3748 27.0411 10.3587 27.0373 10.3361C27.0325 10.3106 27.0495 10.2862 27.0751 10.2814C27.1368 10.2701 27.1991 10.2579 27.2607 10.2456C27.2864 10.2409 27.3111 10.2569 27.3166 10.2824C27.3214 10.3078 27.3053 10.3323 27.2797 10.338C27.218 10.3503 27.1557 10.3625 27.0931 10.3738C27.0893 10.3748 27.0864 10.3748 27.0835 10.3748ZM16.4523 10.3361C16.4494 10.3361 16.4466 10.3361 16.4428 10.3352C16.3812 10.3229 16.3187 10.3106 16.2571 10.2984C16.2316 10.2928 16.2145 10.2682 16.2202 10.2428C16.2259 10.2173 16.2505 10.2003 16.2761 10.206C16.3377 10.2183 16.3992 10.2305 16.4617 10.2428C16.4873 10.2475 16.5044 10.2729 16.4987 10.2984C16.494 10.321 16.475 10.3361 16.4523 10.3361ZM0.571063 10.3135C0.566327 10.3135 0.561592 10.3126 0.556854 10.3116C0.532225 10.3041 0.518017 10.2777 0.525593 10.2522C0.54454 10.1919 0.564433 10.1315 0.585274 10.0721C0.5938 10.0476 0.62127 10.0344 0.645898 10.0429C0.67053 10.0514 0.683791 10.0787 0.675265 10.1033C0.654425 10.1617 0.634531 10.2211 0.616534 10.2805C0.609902 10.3003 0.590956 10.3135 0.571063 10.3135ZM31.0366 10.2946C31.0337 10.2946 31.031 10.2946 31.0272 10.2937C31.0016 10.289 30.9845 10.2645 30.9893 10.2381C31.0016 10.1768 31.014 10.1136 31.0263 10.0524C31.032 10.0269 31.0565 10.0109 31.0821 10.0156C31.1078 10.0212 31.1238 10.0457 31.119 10.0712C31.1068 10.1325 31.0943 10.1938 31.0821 10.255C31.0792 10.2795 31.0593 10.2946 31.0366 10.2946ZM27.5477 10.2833C27.5259 10.2833 27.506 10.2682 27.5015 10.2456C27.4957 10.2202 27.5127 10.1947 27.5384 10.19C27.599 10.1777 27.6614 10.1645 27.723 10.1513C27.7487 10.1457 27.7743 10.1617 27.7789 10.1872C27.7846 10.2126 27.7686 10.2381 27.7429 10.2428C27.6813 10.256 27.6189 10.2692 27.5573 10.2814C27.5544 10.2824 27.5506 10.2833 27.5477 10.2833ZM15.9891 10.2418C15.9862 10.2418 15.9824 10.2418 15.9786 10.2409C15.9171 10.2277 15.8545 10.2145 15.793 10.2003C15.7674 10.1947 15.7513 10.1692 15.757 10.1438C15.7626 10.1183 15.7882 10.1023 15.8138 10.108C15.8744 10.1212 15.937 10.1353 15.9985 10.1485C16.0241 10.1542 16.0402 10.1787 16.0345 10.2041C16.0307 10.2267 16.0108 10.2418 15.9891 10.2418ZM28.01 10.1834C27.9882 10.1834 27.9692 10.1683 27.9637 10.1466C27.958 10.1212 27.974 10.0957 27.9997 10.09C28.0613 10.0759 28.1227 10.0618 28.1833 10.0476C28.209 10.042 28.2347 10.0571 28.2402 10.0825C28.2459 10.108 28.2308 10.1334 28.2052 10.1391C28.1445 10.1532 28.0822 10.1674 28.0205 10.1815C28.0167 10.1834 28.0138 10.1834 28.01 10.1834ZM15.5268 10.1391C15.523 10.1391 15.5192 10.1391 15.5164 10.1381C15.4548 10.124 15.3923 10.1089 15.3316 10.0948C15.3061 10.0891 15.2909 10.0637 15.2966 10.0382C15.3023 10.0127 15.3278 9.99765 15.3534 10.0033C15.4141 10.0175 15.4756 10.0325 15.5372 10.0467C15.5628 10.0524 15.5789 10.0778 15.5723 10.1033C15.5685 10.124 15.5486 10.1391 15.5268 10.1391ZM28.4703 10.0759C28.4488 10.0759 28.4298 10.0618 28.4241 10.0401C28.4174 10.0146 28.4334 9.98917 28.4591 9.98351C28.5197 9.96845 28.5823 9.95336 28.643 9.93827C28.6684 9.93166 28.694 9.9477 28.7008 9.9722C28.7072 9.99765 28.6912 10.0231 28.6665 10.0297C28.6058 10.0448 28.5435 10.0599 28.4828 10.075C28.478 10.0759 28.4742 10.0759 28.4703 10.0759ZM15.0674 10.0278C15.0636 10.0278 15.0598 10.0278 15.056 10.026C14.9944 10.0109 14.9328 9.99482 14.8722 9.97976C14.8466 9.97315 14.8315 9.9477 14.8381 9.92223C14.8447 9.89678 14.8703 9.88169 14.8959 9.8883C14.9565 9.90339 15.0181 9.9194 15.0787 9.93449C15.1043 9.9411 15.1195 9.96655 15.1128 9.992C15.1081 10.0137 15.0882 10.0278 15.0674 10.0278ZM28.93 9.96089C28.9091 9.96089 28.8902 9.94675 28.8844 9.92601C28.8777 9.90056 28.8931 9.87511 28.9185 9.8685C28.9791 9.85246 29.0408 9.83645 29.1014 9.82043C29.1268 9.81383 29.1525 9.82891 29.1592 9.85341C29.1657 9.87886 29.1506 9.90434 29.1259 9.91092C29.0654 9.92696 29.0029 9.94392 28.9432 9.95901C28.9374 9.95994 28.9336 9.96089 28.93 9.96089ZM14.6088 9.90904C14.6051 9.90904 14.6003 9.90809 14.5965 9.90716C14.5359 9.89112 14.4743 9.87416 14.4137 9.85719C14.3881 9.85059 14.3739 9.82419 14.3806 9.79874C14.3872 9.77329 14.4137 9.75915 14.4393 9.76573C14.4999 9.78272 14.5615 9.79874 14.6212 9.8157C14.6468 9.82231 14.6609 9.84871 14.6543 9.87321C14.6496 9.8949 14.6297 9.90904 14.6088 9.90904ZM0.730207 9.87038C0.724523 9.87038 0.717893 9.86945 0.712208 9.86663C0.687579 9.85719 0.676212 9.82891 0.685685 9.80534C0.709367 9.74689 0.734943 9.68843 0.760521 9.63093C0.770941 9.60736 0.799358 9.59604 0.82304 9.60736C0.846724 9.61774 0.858091 9.64602 0.846724 9.66959C0.821146 9.72614 0.796517 9.78365 0.773782 9.84115C0.767151 9.85907 0.749154 9.87038 0.730207 9.87038ZM29.3865 9.8374C29.3656 9.8374 29.3467 9.82419 29.3409 9.80344C29.3345 9.77799 29.3486 9.75254 29.3743 9.74501C29.4347 9.72802 29.4953 9.71105 29.556 9.69316C29.5817 9.6856 29.6071 9.70069 29.6147 9.72519C29.6224 9.75067 29.6071 9.77611 29.5826 9.78365C29.522 9.80061 29.4603 9.81853 29.3997 9.8355C29.3949 9.83645 29.3903 9.8374 29.3865 9.8374ZM31.1341 9.83457C31.1303 9.83457 31.1277 9.83457 31.1238 9.83362C31.0982 9.82796 31.0821 9.80252 31.0879 9.77707C31.102 9.71578 31.1162 9.65355 31.1303 9.59322C31.1361 9.56777 31.1617 9.55268 31.1874 9.55833C31.2128 9.56399 31.2279 9.58944 31.2224 9.61491C31.208 9.67524 31.1938 9.7365 31.1797 9.79779C31.1749 9.81948 31.156 9.83457 31.1341 9.83457ZM14.1532 9.78272C14.1485 9.78272 14.1447 9.78177 14.14 9.78082C14.0793 9.76385 14.0178 9.74594 13.9581 9.72802C13.9334 9.72049 13.9183 9.69409 13.9259 9.66959C13.9334 9.64507 13.96 9.62998 13.9846 9.63753C14.0443 9.65543 14.1058 9.67334 14.1655 9.69031C14.1911 9.69787 14.2053 9.72332 14.1977 9.74876C14.193 9.76951 14.1741 9.78272 14.1532 9.78272ZM29.8411 9.7054C29.8202 9.7054 29.8022 9.69221 29.7958 9.67146C29.7881 9.64694 29.8022 9.62057 29.8279 9.61301C29.8876 9.59509 29.9492 9.57625 30.0089 9.55833C30.0334 9.5508 30.06 9.56494 30.0677 9.58944C30.0751 9.61396 30.061 9.64036 30.0363 9.64789C29.9766 9.66676 29.9152 9.68465 29.8545 9.70257C29.8497 9.7054 29.8459 9.7054 29.8411 9.7054ZM13.6995 9.64789C13.6947 9.64789 13.69 9.64694 13.6852 9.64602C13.6246 9.62715 13.564 9.6083 13.5043 9.59039C13.4797 9.58286 13.4655 9.55646 13.4731 9.53098C13.4807 9.50648 13.5072 9.49234 13.5328 9.49988C13.5924 9.51874 13.653 9.53759 13.7127 9.5555C13.7373 9.56304 13.7516 9.58944 13.744 9.61396C13.7383 9.63563 13.7203 9.64789 13.6995 9.64789ZM30.293 9.56682C30.2731 9.56682 30.2542 9.55363 30.2475 9.53381C30.2401 9.50931 30.2532 9.48291 30.2779 9.47443C30.3386 9.45556 30.3981 9.43577 30.4578 9.41692C30.4825 9.40844 30.5091 9.42258 30.5175 9.44708C30.5261 9.4716 30.512 9.498 30.4873 9.50648C30.4276 9.52533 30.3669 9.54514 30.3072 9.56494C30.3024 9.56587 30.2978 9.56682 30.293 9.56682ZM13.2486 9.50553C13.2438 9.50553 13.2391 9.50461 13.2334 9.50366C13.1737 9.48386 13.1131 9.46407 13.0534 9.44425C13.0288 9.43577 13.0155 9.40937 13.0231 9.38487C13.0316 9.36034 13.0582 9.34716 13.0828 9.35469C13.1425 9.37448 13.2021 9.3943 13.2618 9.41409C13.2864 9.42258 13.3007 9.44898 13.2921 9.47348C13.2874 9.49327 13.2685 9.50553 13.2486 9.50553ZM0.926295 9.44142C0.918716 9.44142 0.912087 9.43954 0.905455 9.43672C0.881773 9.42541 0.8723 9.39618 0.884614 9.37356C0.913034 9.31698 0.943345 9.26042 0.973659 9.20575C0.985973 9.1831 1.01534 9.17462 1.03807 9.18688C1.06081 9.19914 1.06933 9.22837 1.05702 9.25099C1.02671 9.30567 0.99734 9.36129 0.96987 9.41597C0.960397 9.43201 0.943345 9.44142 0.926295 9.44142ZM30.7431 9.41975C30.7232 9.41975 30.7052 9.40749 30.6985 9.3877C30.6899 9.36317 30.7033 9.33585 30.7277 9.32829C30.7874 9.3085 30.8471 9.28775 30.9068 9.26703C30.9315 9.25852 30.9589 9.27174 30.9675 9.29623C30.9759 9.32076 30.9627 9.34811 30.938 9.35659C30.8786 9.37731 30.8189 9.39806 30.7592 9.41785C30.7524 9.4188 30.7476 9.41975 30.7431 9.41975ZM31.2459 9.37638C31.2423 9.37638 31.2384 9.37543 31.2337 9.37448C31.208 9.3679 31.1929 9.34245 31.1996 9.31698C31.2044 9.29718 31.2099 9.27739 31.2157 9.2576C31.2128 9.25852 31.209 9.25947 31.2063 9.26135C31.1816 9.26986 31.154 9.2576 31.1457 9.23307C31.137 9.20857 31.1493 9.18122 31.1739 9.17274C31.1977 9.16426 31.2214 9.15577 31.2459 9.14729C31.2468 9.14351 31.2478 9.13881 31.2497 9.13503C31.2564 9.10958 31.283 9.09544 31.3075 9.10202C31.3171 9.10485 31.3245 9.10958 31.3312 9.11619C31.3379 9.11336 31.3454 9.11146 31.3521 9.10863C31.3768 9.10015 31.4041 9.11241 31.4128 9.13691C31.4221 9.16143 31.4089 9.18878 31.3842 9.19726C31.3643 9.2048 31.3444 9.2114 31.3245 9.21893C31.3133 9.25947 31.3029 9.30096 31.2924 9.3415C31.2857 9.36225 31.2667 9.37638 31.2459 9.37638ZM12.8005 9.35564C12.7958 9.35564 12.7901 9.35469 12.7853 9.35281C12.7257 9.33207 12.666 9.31132 12.6063 9.29058C12.5817 9.2821 12.5684 9.25477 12.5779 9.23025C12.5864 9.20575 12.6139 9.19253 12.6385 9.20197C12.6972 9.22271 12.7579 9.24346 12.8166 9.2642C12.8412 9.27269 12.8545 9.30001 12.846 9.32453C12.8384 9.34338 12.8194 9.35564 12.8005 9.35564ZM12.3543 9.19726C12.3486 9.19726 12.343 9.19631 12.3382 9.19444C12.2795 9.17274 12.2198 9.15107 12.1601 9.12842C12.1355 9.11901 12.1232 9.09166 12.1327 9.06809C12.1421 9.04359 12.1696 9.03133 12.1933 9.04076C12.252 9.06244 12.3117 9.08506 12.3704 9.1058C12.3951 9.11524 12.4074 9.14164 12.3989 9.16613C12.3913 9.18595 12.3733 9.19726 12.3543 9.19726ZM31.6333 9.1011C31.6144 9.1011 31.5964 9.08979 31.589 9.07092C31.5794 9.04642 31.5919 9.01907 31.6163 9.01059C31.6751 8.98891 31.7348 8.96627 31.7925 8.94365C31.8172 8.93421 31.8446 8.94648 31.8542 8.971C31.8635 8.9955 31.8513 9.02285 31.8266 9.03228C31.7678 9.0549 31.7081 9.07752 31.6496 9.10015C31.6449 9.10015 31.6391 9.1011 31.6333 9.1011ZM11.911 9.03133C11.9053 9.03133 11.8996 9.03038 11.894 9.0285C11.8352 9.00588 11.7755 8.98231 11.7177 8.95969C11.6931 8.95025 11.6818 8.9229 11.6912 8.8984C11.7007 8.87388 11.7282 8.86257 11.7528 8.872C11.8106 8.89463 11.8703 8.9182 11.929 8.94082C11.9536 8.95025 11.9659 8.97758 11.9565 9.0021C11.9479 9.02002 11.9299 9.03133 11.911 9.03133ZM1.15649 9.03038C1.14796 9.03038 1.13943 9.0285 1.13186 9.02377C1.10912 9.01059 1.10249 8.98136 1.1167 8.95874C1.14985 8.90499 1.1849 8.85126 1.21901 8.79846C1.23322 8.77679 1.26258 8.77113 1.28437 8.78527C1.30616 8.79941 1.31184 8.82864 1.29763 8.85031C1.26353 8.90216 1.22943 8.95496 1.19627 9.00776C1.18775 9.02285 1.17259 9.03038 1.15649 9.03038ZM32.074 8.93046C32.0551 8.93046 32.0369 8.91915 32.0304 8.90123C32.0208 8.87671 32.0323 8.84938 32.0568 8.83995C32.1155 8.81638 32.1743 8.7928 32.232 8.76923C32.2567 8.75982 32.2843 8.77113 32.2937 8.79471C32.3032 8.8192 32.2917 8.84655 32.268 8.85596C32.2102 8.87954 32.1508 8.90311 32.092 8.92668C32.0863 8.92951 32.0805 8.93046 32.074 8.93046ZM31.371 8.9229C31.3662 8.9229 31.3624 8.92198 31.3578 8.92103C31.3322 8.91349 31.318 8.88709 31.3255 8.86257C31.3435 8.80224 31.3614 8.74191 31.3797 8.68157C31.3871 8.65705 31.4137 8.64291 31.4384 8.65044C31.4629 8.658 31.477 8.6844 31.4696 8.7089C31.4516 8.7683 31.4336 8.82864 31.4156 8.88802C31.4108 8.90972 31.3919 8.9229 31.371 8.9229ZM11.4715 8.85786C11.4658 8.85786 11.4591 8.85691 11.4535 8.85409C11.3947 8.83051 11.336 8.80602 11.2782 8.78244C11.2545 8.77206 11.2422 8.74473 11.2526 8.72116C11.2631 8.69759 11.2905 8.68533 11.3142 8.69571C11.372 8.71928 11.4307 8.74378 11.4885 8.76735C11.5131 8.77679 11.5245 8.80507 11.5141 8.82864C11.5074 8.84655 11.4904 8.85786 11.4715 8.85786ZM32.5126 8.75227C32.4936 8.75227 32.4766 8.74191 32.4689 8.72304C32.4586 8.69947 32.4699 8.67119 32.4946 8.66175C32.5399 8.64291 32.5864 8.62312 32.632 8.60425L32.6689 8.58823C32.6924 8.57785 32.7209 8.58916 32.7312 8.61273C32.7418 8.63631 32.7303 8.66458 32.7068 8.67497L32.6698 8.69098C32.6243 8.71078 32.5778 8.72964 32.5325 8.74944C32.5248 8.75039 32.5181 8.75227 32.5126 8.75227ZM11.0347 8.67592C11.0281 8.67592 11.0224 8.67497 11.0158 8.67214C10.958 8.64762 10.8993 8.62217 10.8415 8.59672C10.8178 8.58633 10.8065 8.55806 10.8169 8.53448C10.8273 8.51091 10.8557 8.4996 10.8794 8.50998C10.9372 8.53543 10.995 8.55996 11.0528 8.58446C11.0764 8.59484 11.0878 8.62217 11.0774 8.64669C11.0708 8.66553 11.0528 8.67592 11.0347 8.67592ZM1.42172 8.64008C1.41225 8.64008 1.40183 8.63726 1.39331 8.63065C1.37247 8.61556 1.36773 8.58541 1.38383 8.56466C1.42172 8.51374 1.46056 8.46284 1.50035 8.41382C1.51645 8.39307 1.54677 8.39025 1.56666 8.40629C1.5875 8.4223 1.59034 8.45248 1.57424 8.47227C1.5354 8.52034 1.49751 8.57032 1.45962 8.62029C1.45014 8.63348 1.43593 8.64008 1.42172 8.64008ZM32.9463 8.56561C32.9283 8.56561 32.9113 8.55523 32.9029 8.53731C32.8924 8.51374 32.9029 8.48546 32.9264 8.4751C32.9842 8.44965 33.042 8.42325 33.0988 8.39778C33.1225 8.38742 33.1511 8.39778 33.1614 8.42135C33.1719 8.44492 33.1614 8.4732 33.1376 8.48358C33.0808 8.50903 33.023 8.53543 32.9643 8.56088C32.9597 8.56371 32.953 8.56561 32.9463 8.56561ZM10.6019 8.48641C10.5952 8.48641 10.5886 8.48546 10.5829 8.48263C10.5251 8.45718 10.4683 8.43078 10.4105 8.40533C10.3868 8.39495 10.3764 8.36667 10.3868 8.3431C10.3972 8.31953 10.4256 8.30917 10.4493 8.31953C10.5071 8.345 10.5649 8.3714 10.6218 8.39685C10.6454 8.40721 10.6558 8.43549 10.6454 8.45906C10.6369 8.47603 10.6198 8.48641 10.6019 8.48641ZM31.5103 8.47415C31.5055 8.47415 31.5007 8.4732 31.4962 8.47227C31.4715 8.46379 31.4573 8.43739 31.4657 8.41287C31.4847 8.35348 31.5055 8.29315 31.5254 8.23375C31.5341 8.20925 31.5604 8.19604 31.5851 8.20452C31.6098 8.213 31.623 8.2394 31.6144 8.26393C31.5945 8.32331 31.5746 8.38271 31.5547 8.44209C31.5492 8.46096 31.5302 8.47415 31.5103 8.47415ZM33.3764 8.3695C33.3585 8.3695 33.3414 8.35914 33.3338 8.34217C33.3225 8.3186 33.3328 8.29032 33.3565 8.27899C33.4143 8.25261 33.4711 8.22526 33.527 8.19791C33.5507 8.1866 33.579 8.19604 33.5905 8.21961C33.6018 8.24318 33.5925 8.27146 33.5687 8.28277C33.5129 8.31012 33.4551 8.33652 33.3973 8.36385C33.3906 8.36857 33.3841 8.3695 33.3764 8.3695ZM10.1699 8.2922C10.1632 8.2922 10.1566 8.29125 10.15 8.2875L9.9776 8.20925C9.95391 8.19886 9.94348 8.17059 9.95391 8.14701C9.96434 8.12344 9.99275 8.11308 10.0164 8.12344L10.1888 8.20169C10.2125 8.21208 10.2229 8.24035 10.2125 8.26393C10.2049 8.28184 10.1879 8.2922 10.1699 8.2922ZM1.71917 8.27429C1.7078 8.27429 1.69644 8.27051 1.68791 8.26202C1.66802 8.24506 1.66612 8.2149 1.68412 8.19508C1.72675 8.14796 1.77032 8.10082 1.8139 8.05558C1.8319 8.03671 1.86221 8.03576 1.88116 8.05368C1.9001 8.07159 1.90105 8.10177 1.88305 8.12061C1.84042 8.16493 1.79779 8.21113 1.75612 8.25827C1.7457 8.26863 1.73243 8.27429 1.71917 8.27429ZM33.8027 8.16398C33.7857 8.16398 33.7687 8.15455 33.7601 8.13758C33.7488 8.11401 33.7581 8.08573 33.7809 8.07442C33.8377 8.04614 33.8936 8.01787 33.9495 7.98956C33.9732 7.97733 34.0018 7.98674 34.013 8.01031C34.0252 8.03388 34.0159 8.06216 33.9922 8.07347C33.9363 8.10177 33.8795 8.131 33.8226 8.15928C33.8169 8.16303 33.8102 8.16398 33.8027 8.16398ZM9.73886 8.09704C9.73224 8.09704 9.7256 8.09612 9.71898 8.09329C9.6612 8.06689 9.60435 8.04141 9.54657 8.01504C9.52288 8.00465 9.51248 7.97638 9.52288 7.9528C9.53331 7.92923 9.56172 7.91887 9.58541 7.92923C9.6432 7.95563 9.70098 7.98108 9.75783 8.00748C9.78149 8.01787 9.79192 8.04614 9.78149 8.06971C9.77392 8.08668 9.75687 8.09704 9.73886 8.09704ZM31.6638 8.02918C31.658 8.02918 31.6532 8.02823 31.6477 8.02635C31.623 8.01787 31.6098 7.99051 31.6192 7.96599C31.641 7.90661 31.6628 7.8472 31.6847 7.78877C31.694 7.76425 31.7206 7.75199 31.7453 7.76142C31.7698 7.77086 31.7822 7.79726 31.7726 7.82175C31.7508 7.88021 31.729 7.93962 31.7081 7.99805C31.7007 8.01692 31.6827 8.02918 31.6638 8.02918ZM34.2233 7.9481C34.2063 7.9481 34.1902 7.93867 34.1816 7.92358C34.1693 7.90095 34.1777 7.87173 34.2015 7.85947C34.2573 7.83024 34.3132 7.80008 34.3674 7.7699C34.3899 7.75764 34.4194 7.76613 34.4317 7.78877C34.4441 7.81139 34.4364 7.84062 34.4127 7.85288C34.3578 7.88304 34.3019 7.91322 34.2461 7.94337C34.2384 7.9462 34.231 7.9481 34.2233 7.9481ZM2.04977 7.93679C2.03746 7.93679 2.0242 7.93206 2.01472 7.9217C1.99673 7.90283 1.99767 7.87268 2.01662 7.85476C2.06304 7.81139 2.11135 7.76895 2.15871 7.72749C2.1786 7.71052 2.20797 7.7124 2.22597 7.73219C2.24302 7.75199 2.24112 7.78122 2.22123 7.79913C2.17387 7.83967 2.12745 7.88116 2.08198 7.92358C2.07346 7.93301 2.06114 7.93679 2.04977 7.93679ZM9.3069 7.90283C9.30028 7.90283 9.29364 7.90191 9.28796 7.89908C9.23017 7.8736 9.17239 7.84816 9.11461 7.82271C9.09094 7.81235 9.07955 7.78404 9.08998 7.76047C9.10041 7.73692 9.12883 7.72559 9.15251 7.73597C9.2103 7.76142 9.26808 7.78687 9.32586 7.81234C9.34953 7.8227 9.36089 7.85098 9.34953 7.87455C9.34195 7.89247 9.32491 7.90283 9.3069 7.90283ZM34.6374 7.71901C34.6211 7.71901 34.605 7.71052 34.5966 7.69543C34.5832 7.67281 34.5909 7.64358 34.6136 7.63132C34.6685 7.60022 34.7234 7.56816 34.7764 7.53706C34.7992 7.52385 34.8277 7.53138 34.8409 7.55402C34.8541 7.57665 34.8467 7.60492 34.8239 7.61813C34.77 7.65017 34.7151 7.68222 34.6599 7.71335C34.6534 7.7171 34.6448 7.71901 34.6374 7.71901ZM8.87307 7.71335C8.86642 7.71335 8.86074 7.7124 8.8541 7.70957C8.79538 7.68412 8.73664 7.6596 8.68075 7.63603C8.65708 7.62567 8.6457 7.59832 8.65519 7.57382C8.6656 7.55025 8.69307 7.53893 8.7177 7.54837C8.77359 7.57192 8.83233 7.59739 8.89201 7.62284C8.91567 7.6332 8.92706 7.66055 8.91663 7.68505C8.90905 7.70297 8.89201 7.71335 8.87307 7.71335ZM2.41163 7.6332C2.39743 7.6332 2.38322 7.62662 2.37374 7.61436C2.35764 7.59361 2.36238 7.56438 2.38227 7.54837C2.43343 7.50971 2.48457 7.472 2.53667 7.43616C2.55847 7.4211 2.58784 7.42675 2.60299 7.44747C2.61814 7.46917 2.61246 7.4984 2.59163 7.51348C2.54046 7.54837 2.49025 7.58608 2.44005 7.62379C2.43153 7.63037 2.4211 7.6332 2.41163 7.6332ZM31.8295 7.58891C31.824 7.58891 31.8182 7.58796 31.8124 7.58608C31.7877 7.57665 31.7765 7.54929 31.7858 7.5248C31.8086 7.46634 31.8323 7.40789 31.8561 7.34943C31.8654 7.32493 31.893 7.31362 31.9177 7.32303C31.9422 7.33246 31.9537 7.36074 31.9441 7.38431C31.9203 7.44277 31.8968 7.50122 31.8741 7.55873C31.8664 7.57665 31.8484 7.58891 31.8295 7.58891ZM8.43731 7.53138C8.43163 7.53138 8.42499 7.53045 8.41931 7.52762C8.36057 7.50405 8.30089 7.48048 8.24406 7.45786C8.21944 7.44842 8.20805 7.4211 8.21755 7.39657C8.22702 7.37205 8.25447 7.36074 8.27912 7.37017C8.33594 7.3928 8.39562 7.41637 8.4553 7.44089C8.47992 7.4503 8.49131 7.4786 8.48088 7.50217C8.4733 7.52007 8.4553 7.53138 8.43731 7.53138ZM35.0435 7.47765C35.0275 7.47765 35.0124 7.47012 35.003 7.45503C34.9886 7.43333 34.9963 7.40411 35.0181 7.38997C35.0711 7.35699 35.1251 7.32303 35.1783 7.29005C35.1999 7.27591 35.2294 7.28249 35.2435 7.30419C35.2576 7.32586 35.2512 7.35508 35.2294 7.36922C35.1764 7.40318 35.1222 7.43711 35.0682 7.47012C35.0608 7.47577 35.0522 7.47765 35.0435 7.47765ZM2.80193 7.3683C2.78581 7.3683 2.77066 7.35981 2.76119 7.34567C2.74793 7.32303 2.75455 7.29475 2.77728 7.28061C2.83127 7.24761 2.88716 7.21555 2.94305 7.1854C2.96581 7.17314 2.99515 7.18162 3.00748 7.20424C3.0198 7.22689 3.01127 7.25609 2.98854 7.26835C2.93454 7.29758 2.87959 7.32964 2.82655 7.36169C2.81897 7.36547 2.81044 7.3683 2.80193 7.3683ZM7.99682 7.35886C7.99113 7.35886 7.98545 7.35791 7.97977 7.35604C7.92009 7.33341 7.86135 7.31172 7.80263 7.29097C7.77801 7.28249 7.76568 7.25516 7.77422 7.23064C7.78273 7.20614 7.81021 7.19388 7.83483 7.20236C7.89261 7.22311 7.95325 7.24573 8.01293 7.26835C8.03755 7.27779 8.04988 7.30514 8.04038 7.32868C8.03376 7.34755 8.01576 7.35886 7.99682 7.35886ZM35.4415 7.22216C35.4264 7.22216 35.4111 7.21463 35.4017 7.20141C35.3876 7.17974 35.3931 7.15051 35.4149 7.13638C35.4672 7.10149 35.5202 7.06566 35.5703 7.03078C35.5921 7.01569 35.6216 7.02134 35.6367 7.04209C35.6518 7.06378 35.6461 7.09301 35.6252 7.1081C35.5741 7.14391 35.5211 7.17974 35.4679 7.21463C35.4595 7.21933 35.4499 7.22216 35.4415 7.22216ZM7.5516 7.20049C7.54685 7.20049 7.54117 7.19954 7.53644 7.19766C7.47676 7.17691 7.41613 7.15712 7.35741 7.1392C7.33276 7.13165 7.31857 7.10432 7.32708 7.0798C7.33465 7.0553 7.36213 7.04116 7.38676 7.04964C7.4455 7.06849 7.50614 7.08828 7.56675 7.10903C7.59137 7.11751 7.60463 7.14391 7.59612 7.16843C7.59044 7.18728 7.5715 7.20049 7.5516 7.20049ZM32.0086 7.15239C32.0019 7.15239 31.9963 7.15146 31.9906 7.14864C31.9669 7.13825 31.9556 7.11093 31.9649 7.0864C31.9896 7.0289 32.0153 6.97044 32.0397 6.91294C32.0503 6.88937 32.0776 6.87806 32.1023 6.88842C32.1261 6.8988 32.1373 6.92708 32.127 6.95065C32.1023 7.00815 32.0767 7.06566 32.0522 7.12316C32.0445 7.14203 32.0266 7.15239 32.0086 7.15239ZM3.21871 7.14674C3.20073 7.14674 3.18368 7.13638 3.1761 7.11941C3.16472 7.09584 3.17515 7.06756 3.19883 7.05718C3.25662 7.03078 3.31534 7.00533 3.37408 6.9808C3.3987 6.97139 3.42618 6.9827 3.43565 7.00628C3.44512 7.03078 3.43376 7.05813 3.41007 7.06756C3.35324 7.09111 3.29546 7.11563 3.23861 7.14203C3.23293 7.14486 3.22535 7.14674 3.21871 7.14674ZM7.10163 7.05813C7.0969 7.05813 7.09311 7.05718 7.08837 7.05623C7.02775 7.03833 6.96712 7.02134 6.90744 7.00533C6.88186 6.99872 6.86766 6.97232 6.87428 6.94782C6.88092 6.92237 6.90744 6.90823 6.93206 6.91482C6.99174 6.93086 7.05331 6.94877 7.11489 6.96667C7.13953 6.97422 7.15469 7.00062 7.14711 7.02512C7.14047 7.04491 7.12153 7.05813 7.10163 7.05813ZM3.65825 6.97327C3.63837 6.97327 3.62037 6.96101 3.61375 6.94122C3.60521 6.91672 3.61847 6.88937 3.64406 6.88183C3.70467 6.86202 3.76624 6.84317 3.82688 6.82526C3.85246 6.81772 3.87802 6.83281 3.88562 6.85731C3.8932 6.88276 3.87802 6.90823 3.8534 6.91577C3.79372 6.93273 3.7331 6.9516 3.67436 6.97044C3.66868 6.97232 3.66393 6.97327 3.65825 6.97327ZM35.829 6.9516C35.8146 6.9516 35.7995 6.94499 35.7911 6.93273C35.776 6.91199 35.7796 6.88183 35.8014 6.86674C35.8527 6.82998 35.9029 6.79227 35.953 6.75456C35.9738 6.73852 36.0033 6.74323 36.0194 6.76397C36.0354 6.78472 36.0307 6.81394 36.0098 6.82998C35.9597 6.86767 35.9086 6.90538 35.8573 6.94309C35.8479 6.94877 35.8384 6.9516 35.829 6.9516ZM6.64504 6.93651C6.64125 6.93651 6.63746 6.93651 6.63367 6.93556C6.5721 6.92142 6.51053 6.90728 6.45085 6.89407C6.42527 6.88842 6.40918 6.86392 6.41486 6.83847C6.42055 6.81299 6.44517 6.79698 6.47075 6.80263C6.53137 6.81582 6.5939 6.82998 6.6564 6.84412C6.68199 6.84978 6.69714 6.87523 6.69146 6.90068C6.68578 6.92237 6.66683 6.93651 6.64504 6.93651ZM4.11486 6.84883C4.09307 6.84883 4.07316 6.83374 4.06844 6.81207C4.06276 6.78659 4.07885 6.76114 4.10443 6.75644C4.166 6.74323 4.22947 6.73099 4.292 6.71968C4.31756 6.71495 4.34221 6.73287 4.34693 6.75832C4.35168 6.78377 4.33367 6.80829 4.30809 6.81299C4.24652 6.82338 4.18494 6.83564 4.12433 6.84883C4.12148 6.84883 4.11865 6.84883 4.11486 6.84883ZM6.18277 6.84034C6.17992 6.84034 6.17709 6.84034 6.17424 6.83939C6.11266 6.82808 6.05016 6.81865 5.98952 6.80924C5.96394 6.80546 5.94595 6.78189 5.94974 6.75549C5.95353 6.73004 5.97815 6.71212 6.00374 6.7159C6.06531 6.72533 6.12878 6.73569 6.19131 6.74606C6.21687 6.75078 6.23391 6.77528 6.23012 6.80076C6.2254 6.82431 6.2055 6.84034 6.18277 6.84034ZM5.71482 6.77436C5.71292 6.77436 5.71197 6.77436 5.71007 6.77436C5.64756 6.76775 5.58503 6.76209 5.52346 6.75832C5.49694 6.75644 5.478 6.73382 5.4799 6.70834C5.48179 6.68197 5.50452 6.6631 5.5301 6.66498C5.59261 6.66971 5.65608 6.67536 5.71954 6.68197C5.74513 6.6848 5.76407 6.70742 5.76217 6.73382C5.75934 6.75644 5.73848 6.77436 5.71482 6.77436ZM4.58185 6.77341C4.55819 6.77341 4.53733 6.75549 4.5345 6.73099C4.53165 6.70552 4.55061 6.68197 4.57617 6.67914C4.6387 6.67253 4.7031 6.66688 4.76659 6.66215C4.79215 6.66027 4.81488 6.68007 4.8168 6.70552C4.81869 6.73192 4.79879 6.75361 4.77321 6.75549C4.7107 6.76022 4.64817 6.76587 4.5866 6.77246C4.58564 6.77341 4.58375 6.77341 4.58185 6.77341ZM5.24306 6.74513H5.24212C5.17959 6.74418 5.11708 6.74323 5.05455 6.74418C5.02803 6.74513 5.0072 6.72343 5.00624 6.69798C5.00624 6.67158 5.02707 6.65084 5.05266 6.64991C5.11612 6.64896 5.17959 6.64896 5.24306 6.65084C5.2696 6.65179 5.29043 6.67253 5.28947 6.69893C5.28947 6.72438 5.26864 6.74513 5.24306 6.74513ZM32.199 6.72061C32.1922 6.72061 32.1858 6.71968 32.179 6.71685C32.1553 6.70647 32.145 6.67819 32.1553 6.65462C32.181 6.59806 32.2085 6.54053 32.2349 6.48303C32.2464 6.45946 32.2738 6.4491 32.2975 6.46041C32.3212 6.47172 32.3315 6.49907 32.3203 6.52264C32.2937 6.5792 32.2673 6.6367 32.2407 6.69328C32.234 6.71117 32.2169 6.72061 32.199 6.72061ZM36.204 6.66498C36.1899 6.66498 36.1767 6.65932 36.1671 6.64709C36.151 6.62634 36.1539 6.59711 36.1747 6.58107C36.2239 6.54148 36.2733 6.5019 36.3205 6.46229C36.3404 6.44532 36.3709 6.44815 36.3869 6.46794C36.404 6.48776 36.4011 6.51791 36.3812 6.53395C36.333 6.57354 36.2836 6.61408 36.2345 6.65367C36.2249 6.66122 36.2146 6.66498 36.204 6.66498ZM36.5668 6.36141C36.5536 6.36141 36.5404 6.35576 36.5318 6.3454C36.5147 6.3256 36.5167 6.29638 36.5356 6.27846C36.5831 6.23697 36.6293 6.19455 36.6759 6.15307C36.6948 6.13515 36.725 6.13705 36.743 6.15589C36.761 6.17476 36.7593 6.20491 36.7401 6.22283C36.6938 6.26525 36.6464 6.30769 36.5991 6.3501C36.5886 6.35766 36.5773 6.36141 36.5668 6.36141ZM32.3999 6.29448C32.3932 6.29448 32.3855 6.2926 32.379 6.28977C32.3553 6.27846 32.3457 6.25018 32.3572 6.22661C32.3845 6.17003 32.4131 6.11253 32.4406 6.0569C32.4519 6.03333 32.4802 6.02392 32.5039 6.03523C32.5277 6.04654 32.5373 6.07482 32.5257 6.09839C32.4984 6.15402 32.4699 6.21057 32.4423 6.26715C32.4349 6.28507 32.4179 6.29448 32.3999 6.29448ZM36.9128 6.04088C36.9003 6.04088 36.8881 6.03615 36.8785 6.02674C36.8605 6.00788 36.8605 5.97865 36.8794 5.95981C36.924 5.91644 36.9696 5.87117 37.012 5.82688C37.03 5.80801 37.0604 5.80801 37.0794 5.82593C37.0983 5.84385 37.0983 5.874 37.0803 5.89287C37.0367 5.93718 36.9912 5.98243 36.9458 6.02674C36.9372 6.03615 36.925 6.04088 36.9128 6.04088ZM32.6121 5.87212C32.6044 5.87212 32.5977 5.87025 32.5902 5.86647C32.5665 5.85421 32.5579 5.82593 32.5694 5.80331C32.5977 5.74768 32.6272 5.69112 32.6564 5.6355C32.6689 5.61287 32.6972 5.60344 32.72 5.6157C32.7427 5.62794 32.7521 5.65624 32.7399 5.67886C32.7106 5.73449 32.6811 5.79105 32.6528 5.84572C32.6452 5.86269 32.6291 5.87212 32.6121 5.87212ZM37.2412 5.70244C37.23 5.70244 37.2187 5.69866 37.2091 5.69017C37.1902 5.67226 37.1882 5.64303 37.2062 5.62324C37.2489 5.57704 37.2906 5.5299 37.3314 5.4837C37.3484 5.46391 37.3786 5.46203 37.3985 5.479C37.4184 5.49596 37.4203 5.52612 37.4033 5.54594C37.3616 5.59306 37.3189 5.6402 37.2765 5.68735C37.2669 5.69678 37.2547 5.70244 37.2412 5.70244ZM32.8326 5.45448C32.8252 5.45448 32.8175 5.4526 32.8099 5.44882C32.7873 5.43656 32.7787 5.40828 32.7909 5.38471C32.8214 5.33003 32.8516 5.27348 32.882 5.2188C32.8943 5.19615 32.9235 5.18767 32.9463 5.19993C32.9691 5.21219 32.9777 5.24142 32.9652 5.26404C32.935 5.31872 32.9046 5.37435 32.8744 5.42998C32.8657 5.44599 32.8487 5.45448 32.8326 5.45448ZM37.551 5.34607C37.5407 5.34607 37.5304 5.34229 37.5208 5.33569C37.5009 5.31967 37.4971 5.28949 37.5141 5.2697C37.5539 5.22163 37.5927 5.17166 37.6316 5.12356C37.6476 5.10284 37.6771 5.09906 37.698 5.11508C37.7188 5.13112 37.7227 5.16034 37.7064 5.18109C37.6675 5.23011 37.6277 5.28006 37.5882 5.32908C37.5786 5.34042 37.5644 5.34607 37.551 5.34607ZM33.0609 5.04156C33.0535 5.04156 33.0448 5.03966 33.0374 5.0359C33.0146 5.02269 33.006 4.99441 33.0194 4.97179C33.0506 4.91711 33.0818 4.86149 33.1132 4.80773C33.1264 4.78511 33.1547 4.77758 33.1774 4.78984C33.2002 4.80303 33.2079 4.83131 33.1954 4.85393C33.1642 4.90768 33.1331 4.96236 33.1017 5.01703C33.0942 5.03307 33.0779 5.04156 33.0609 5.04156ZM37.8382 4.97179C37.8287 4.97179 37.8193 4.96896 37.8107 4.96331C37.7889 4.94822 37.7841 4.91899 37.7994 4.89729C37.8363 4.84545 37.8723 4.7936 37.9054 4.74362C37.9195 4.72195 37.949 4.7163 37.9708 4.73044C37.9927 4.74457 37.9982 4.7738 37.984 4.7955C37.95 4.84735 37.914 4.8992 37.8761 4.952C37.8675 4.96518 37.8534 4.97179 37.8382 4.97179ZM33.2968 4.63334C33.2884 4.63334 33.2808 4.63144 33.2731 4.62674C33.2506 4.61352 33.2429 4.5843 33.2561 4.56263C33.2884 4.50888 33.3206 4.4542 33.3527 4.40047C33.3661 4.37785 33.3954 4.37029 33.4182 4.38443C33.4409 4.39764 33.4484 4.42687 33.4342 4.44949C33.4021 4.50322 33.3697 4.55792 33.3386 4.61165C33.329 4.62484 33.3139 4.63334 33.2968 4.63334ZM38.0948 4.57676C38.0864 4.57676 38.0787 4.57489 38.0711 4.57016C38.0485 4.55697 38.0409 4.52869 38.054 4.50605C38.0864 4.45137 38.1166 4.39669 38.1442 4.34297C38.1564 4.32034 38.1849 4.31091 38.2075 4.32317C38.2303 4.33541 38.2399 4.36371 38.2274 4.38633C38.1991 4.44101 38.1677 4.49756 38.1346 4.55319C38.1272 4.56828 38.1109 4.57676 38.0948 4.57676ZM33.5395 4.22888C33.5308 4.22888 33.5222 4.22701 33.5148 4.22228C33.492 4.20909 33.4853 4.17986 33.4987 4.15724C33.5308 4.10349 33.5639 4.04976 33.5973 3.99601C33.6105 3.97339 33.6397 3.96681 33.6625 3.98095C33.6853 3.99413 33.692 4.02336 33.6776 4.04598C33.6445 4.09973 33.6114 4.15346 33.579 4.20626C33.5716 4.2204 33.5555 4.22888 33.5395 4.22888ZM38.3079 4.15629C38.3015 4.15629 38.2957 4.15534 38.289 4.15251C38.2653 4.14215 38.254 4.1148 38.2643 4.0903C38.289 4.0328 38.3118 3.97434 38.3326 3.91776C38.341 3.89326 38.3686 3.88005 38.3933 3.88949C38.4178 3.89797 38.4312 3.92532 38.4216 3.94982C38.4007 4.00827 38.3772 4.06861 38.3516 4.12801C38.3439 4.14593 38.3259 4.15629 38.3079 4.15629ZM33.7876 3.82728C33.779 3.82728 33.7706 3.82537 33.7629 3.81972C33.7411 3.80558 33.7335 3.7773 33.7478 3.75468C33.762 3.73206 33.7761 3.71036 33.7905 3.68774C33.8095 3.65756 33.8301 3.62646 33.8509 3.5944C33.8653 3.57273 33.8946 3.56705 33.9164 3.58122C33.9382 3.59535 33.944 3.62458 33.9296 3.64625C33.9087 3.67736 33.8888 3.70754 33.8708 3.73676C33.8567 3.75939 33.8425 3.78108 33.8284 3.8037C33.8188 3.81972 33.8037 3.82728 33.7876 3.82728ZM38.4585 3.71036C38.4549 3.71036 38.4511 3.71036 38.4473 3.70941C38.4216 3.70283 38.4065 3.67736 38.4122 3.65191C38.4273 3.59158 38.4396 3.53124 38.4501 3.47091C38.4549 3.44544 38.4784 3.42754 38.505 3.43225C38.5307 3.43695 38.5487 3.46053 38.5439 3.48693C38.5333 3.54916 38.5201 3.61232 38.5041 3.67453C38.4993 3.69623 38.4803 3.71036 38.4585 3.71036ZM34.0557 3.43978C34.0451 3.43978 34.0358 3.43695 34.0272 3.43037C34.0063 3.41433 34.0025 3.3851 34.0188 3.36436C34.0557 3.31629 34.0955 3.26539 34.1372 3.21542C34.1533 3.19562 34.1835 3.19185 34.2034 3.20881C34.2233 3.22485 34.2271 3.25501 34.2101 3.2748C34.1693 3.32477 34.1305 3.37379 34.0936 3.42189C34.084 3.4332 34.0698 3.43978 34.0557 3.43978ZM38.5278 3.24557C38.5269 3.24557 38.5269 3.24557 38.5259 3.24557C38.4993 3.24465 38.4794 3.22295 38.4803 3.19655C38.4813 3.16922 38.4823 3.14187 38.4823 3.11455C38.4823 3.08059 38.4813 3.04571 38.4794 3.01177C38.4784 2.98537 38.4983 2.9637 38.524 2.96275C38.5506 2.9618 38.5722 2.98162 38.5731 3.00707C38.575 3.04288 38.576 3.07871 38.576 3.11455C38.576 3.14282 38.575 3.17205 38.5741 3.20033C38.5741 3.22578 38.5532 3.24557 38.5278 3.24557ZM34.3568 3.07588C34.3456 3.07588 34.335 3.07211 34.3257 3.06457C34.3058 3.04761 34.3039 3.01743 34.3209 2.99764C34.3616 2.95144 34.4053 2.90337 34.4477 2.85623C34.4657 2.83736 34.4952 2.83548 34.5151 2.8534C34.534 2.87131 34.5359 2.90052 34.518 2.92034C34.4753 2.96653 34.4326 3.01365 34.3918 3.05987C34.3825 3.07023 34.3691 3.07588 34.3568 3.07588ZM38.4938 2.77607C38.471 2.77607 38.4511 2.76006 38.4473 2.73744C38.436 2.6771 38.4216 2.61675 38.4046 2.55832C38.3971 2.53284 38.4122 2.50739 38.4369 2.49986C38.4624 2.4923 38.488 2.50739 38.4954 2.53192C38.5137 2.5932 38.5278 2.65636 38.54 2.71952C38.5448 2.74497 38.5278 2.76949 38.5022 2.7742C38.4993 2.77607 38.4964 2.77607 38.4938 2.77607ZM34.6779 2.72988C34.6657 2.72988 34.6544 2.72518 34.6448 2.71669C34.6259 2.69878 34.6259 2.66862 34.6438 2.64975C34.6884 2.60451 34.734 2.55924 34.7784 2.51588C34.7973 2.49796 34.8268 2.49796 34.8457 2.51683C34.8637 2.53567 34.8637 2.5649 34.8448 2.58377C34.8002 2.62713 34.7556 2.67238 34.7122 2.71669C34.7026 2.72518 34.6904 2.72988 34.6779 2.72988ZM35.0181 2.40087C35.0056 2.40087 34.9925 2.39616 34.9831 2.38578C34.9651 2.36692 34.9668 2.33676 34.9857 2.31884C35.0332 2.27548 35.0807 2.23305 35.127 2.19157C35.1469 2.1746 35.1764 2.17649 35.1943 2.19534C35.2114 2.21514 35.2094 2.24437 35.1905 2.26228C35.144 2.30282 35.0977 2.34524 35.0502 2.38766C35.0409 2.39709 35.0294 2.40087 35.0181 2.40087ZM38.3516 2.32827C38.3336 2.32827 38.3166 2.3179 38.3089 2.30093C38.2833 2.24531 38.254 2.19063 38.2228 2.13878C38.2094 2.11615 38.2161 2.08787 38.2389 2.07373C38.2617 2.06053 38.29 2.06713 38.3041 2.08975C38.3374 2.14443 38.3676 2.20194 38.3952 2.26134C38.4065 2.2849 38.3962 2.31319 38.3715 2.32356C38.3648 2.32733 38.3583 2.32827 38.3516 2.32827ZM35.3742 2.09164C35.36 2.09164 35.3468 2.08598 35.3372 2.07467C35.3212 2.05487 35.3241 2.0247 35.344 2.00868C35.395 1.96719 35.4454 1.9276 35.4936 1.89083C35.5144 1.8748 35.5439 1.87952 35.56 1.89931C35.5761 1.92005 35.5713 1.94928 35.5514 1.96531C35.5041 2.00113 35.4538 2.04073 35.4037 2.08127C35.396 2.08787 35.3857 2.09164 35.3742 2.09164ZM38.0967 1.93325C38.0835 1.93325 38.0703 1.9276 38.0607 1.91723C38.02 1.87103 37.9764 1.82766 37.931 1.78901C37.9111 1.77204 37.9092 1.74187 37.9262 1.72208C37.9433 1.70228 37.9737 1.70039 37.9934 1.71736C38.0418 1.75978 38.0883 1.80598 38.1317 1.855C38.1487 1.8748 38.1471 1.90403 38.1272 1.92194C38.1195 1.92948 38.1082 1.93325 38.0967 1.93325ZM35.7552 1.8107C35.7398 1.8107 35.7247 1.80315 35.7154 1.78901C35.701 1.76733 35.7077 1.7381 35.7295 1.72396C35.7825 1.68908 35.8393 1.65608 35.8952 1.62591C35.918 1.61366 35.9475 1.62214 35.9597 1.64477C35.9719 1.66739 35.9635 1.69662 35.9407 1.70888C35.8858 1.7381 35.8328 1.77016 35.7815 1.80315C35.7722 1.80881 35.7635 1.8107 35.7552 1.8107ZM37.732 1.63722C37.7244 1.63722 37.716 1.63534 37.7083 1.63157C37.6553 1.60234 37.6004 1.575 37.5436 1.55238C37.5189 1.54295 37.5076 1.51561 37.517 1.4911C37.5266 1.46658 37.5539 1.45527 37.5786 1.4647C37.6392 1.48921 37.6989 1.5175 37.7548 1.54861C37.7776 1.56181 37.785 1.59009 37.7728 1.61271C37.7642 1.62874 37.7481 1.63722 37.732 1.63722ZM36.1747 1.59669C36.1558 1.59669 36.1378 1.58537 36.1302 1.56652C36.1208 1.54201 36.133 1.51467 36.1568 1.50524C36.2165 1.48167 36.2779 1.46093 36.3395 1.44207C36.3642 1.43453 36.3908 1.44867 36.3982 1.47413C36.4059 1.49864 36.3917 1.52504 36.3661 1.53258C36.3073 1.55049 36.2486 1.57029 36.1908 1.59292C36.187 1.5948 36.1812 1.59669 36.1747 1.59669ZM37.2897 1.47601C37.2868 1.47601 37.2839 1.47601 37.2801 1.47507C37.2216 1.46376 37.1599 1.45527 37.0983 1.44962C37.0717 1.44773 37.0528 1.4251 37.0547 1.39871C37.0566 1.37231 37.0794 1.35345 37.106 1.35534C37.1712 1.361 37.2357 1.36948 37.2983 1.38174C37.3237 1.38645 37.3407 1.41191 37.3352 1.43736C37.3314 1.45999 37.3115 1.47601 37.2897 1.47601ZM36.6303 1.4713C36.6075 1.4713 36.5876 1.45527 36.584 1.4317C36.5802 1.40625 36.5972 1.38174 36.6229 1.37797C36.6871 1.3676 36.7516 1.36005 36.8152 1.35534C36.8406 1.35345 36.8634 1.37325 36.8653 1.39871C36.8672 1.4251 36.8473 1.44679 36.8216 1.44867C36.761 1.45339 36.6996 1.45999 36.638 1.47036C36.6351 1.47036 36.6332 1.4713 36.6303 1.4713Z" fill="#85C74C"/>
<path d="M40.8815 21.8443C40.8805 21.8443 40.8805 21.8443 40.8815 21.8443C40.8493 21.8443 40.817 21.8434 40.7858 21.8424C40.7592 21.8424 40.7383 21.8207 40.7393 21.7943C40.7393 21.7689 40.7611 21.7481 40.7868 21.7481H40.7877C40.8189 21.7491 40.8501 21.7491 40.8824 21.75C40.9088 21.75 40.9297 21.7717 40.9287 21.7981C40.928 21.8236 40.9071 21.8443 40.8815 21.8443Z" fill="#85C74C"/>
<path d="M29.6132 16.8525C29.418 16.8525 29.2598 16.695 29.2598 16.5008C29.2598 16.3066 29.418 16.1491 29.6132 16.1491C29.8084 16.1491 29.9666 16.3066 29.9666 16.5008C29.9666 16.695 29.8084 16.8525 29.6132 16.8525ZM29.6132 16.2934C29.4986 16.2934 29.4048 16.3867 29.4048 16.5008C29.4048 16.6149 29.4986 16.7082 29.6132 16.7082C29.7278 16.7082 29.8215 16.6149 29.8215 16.5008C29.8215 16.3867 29.7278 16.2934 29.6132 16.2934Z" fill="#FFC057"/>
<path d="M8.79768 5.76396C8.60253 5.76396 8.44434 5.60651 8.44434 5.4123C8.44434 5.21809 8.60253 5.06067 8.79768 5.06067C8.99283 5.06067 9.15102 5.21809 9.15102 5.4123C9.15102 5.60651 8.99283 5.76396 8.79768 5.76396ZM8.79768 5.20491C8.68305 5.20491 8.58927 5.29825 8.58927 5.4123C8.58927 5.52639 8.68305 5.61973 8.79768 5.61973C8.91231 5.61973 9.00608 5.52639 9.00608 5.4123C9.00608 5.29825 8.91325 5.20491 8.79768 5.20491Z" fill="#FFC057"/>
<path d="M4.77456 20.8397H4.58795V20.5776C4.58795 20.5484 4.56427 20.5248 4.53492 20.5248C4.50555 20.5248 4.48186 20.5484 4.48186 20.5776V20.8387H4.29525C4.26588 20.8387 4.24219 20.8623 4.24219 20.8915C4.24219 20.9207 4.26588 20.9443 4.29525 20.9443H4.48186V21.2055C4.48186 21.2347 4.50555 21.2583 4.53492 21.2583C4.56427 21.2583 4.58795 21.2347 4.58795 21.2055V20.9443H4.77456C4.80394 20.9443 4.82762 20.9207 4.82762 20.8915C4.82762 20.8632 4.80394 20.8397 4.77456 20.8397Z" fill="#85C74C"/>
<path d="M32.5946 2.99799H32.315V2.60581C32.315 2.56244 32.28 2.52661 32.2354 2.52661C32.192 2.52661 32.156 2.56149 32.156 2.60581V2.99799H31.8765C31.8328 2.99799 31.7969 3.03287 31.7969 3.07719C31.7969 3.12055 31.8319 3.15639 31.8765 3.15639H32.156V3.54856C32.156 3.59195 32.1911 3.62776 32.2354 3.62776C32.279 3.62776 32.315 3.59288 32.315 3.54856V3.15639H32.5946C32.6382 3.15639 32.6742 3.1215 32.6742 3.07719C32.6742 3.03287 32.6382 2.99799 32.5946 2.99799Z" fill="#85C74C"/>
<path d="M12.369 3.62685L11.2362 3.45457C11.1497 3.44083 11.0907 3.36092 11.1045 3.27604C11.1183 3.1899 11.1986 3.13123 11.2839 3.14497L12.4166 3.31725C12.5032 3.33098 12.5622 3.41087 12.5483 3.49575C12.5346 3.58065 12.4543 3.63932 12.369 3.62685Z" fill="#85C74C"/>
<path d="M14.0263 2.41356C13.9398 2.39982 13.8808 2.31992 13.8946 2.23503L14.0677 1.10772C14.0815 1.02158 14.1618 0.962901 14.2471 0.976633C14.3336 0.990366 14.3926 1.07026 14.3788 1.15516L14.2057 2.28247C14.1931 2.36736 14.1128 2.42729 14.0263 2.41356Z" fill="#85C74C"/>
<path d="M12.926 2.65255C12.8859 2.6463 12.8483 2.62508 12.8231 2.59013L12.1633 1.69627C12.1119 1.62636 12.127 1.52773 12.1972 1.47655C12.2675 1.42536 12.3666 1.44034 12.418 1.51026L13.0765 2.40286C13.128 2.47279 13.1129 2.5714 13.0427 2.62259C13.0088 2.6488 12.9661 2.6588 12.926 2.65255Z" fill="#85C74C"/>
<path d="M15.2021 7.91028V18.3665C15.2021 20.8605 17.2422 22.8823 19.7587 22.8823H22.7688C25.2854 22.8823 27.3253 20.8605 27.3253 18.3665V7.91028H15.2021Z" fill="#457B9D"/>
<path d="M25.9091 7.91029V18.3664C25.9091 20.8607 23.8689 22.8823 21.3525 22.8823H22.7686C25.285 22.8823 27.3252 20.8607 27.3252 18.3664V7.91029H25.9091Z" fill="#B9D1DF"/>
<path d="M27.3253 8.05299V5.46275C27.3253 5.24069 27.1438 5.06067 26.9197 5.06067H15.6079C15.3838 5.06067 15.2021 5.24069 15.2021 5.46275V8.05299H27.3253Z" fill="#F5F7F8"/>
<path d="M25.9089 5.46261V8.05297H27.3252V5.46261C27.3252 5.24065 27.1434 5.06067 26.919 5.06067H25.5029C25.7274 5.06067 25.9089 5.24065 25.9089 5.46261Z" fill="#D9E7EB"/>
<path d="M23.4911 6.78261H19.0367C18.3956 6.78261 17.8455 6.3301 17.7275 5.70567L17.6055 5.06067H24.9222L24.8004 5.70567C24.6822 6.33008 24.1322 6.78261 23.4911 6.78261Z" fill="#457B9D"/>
<path d="M24.9219 5.06067L24.7999 5.70575C24.6819 6.33001 24.1317 6.78254 23.4909 6.78254H22.4033C23.0441 6.78254 23.5944 6.33001 23.7123 5.70575L23.8343 5.06067H24.9219Z" fill="#B9D1DF"/>
<path d="M22.7027 21.7192H19.8247C19.6249 21.7192 19.4629 21.5587 19.4629 21.3606V20.4229C19.4629 20.2249 19.6249 20.0644 19.8247 20.0644H22.7027C22.9025 20.0644 23.0645 20.2249 23.0645 20.4229V21.3606C23.0645 21.5587 22.9025 21.7192 22.7027 21.7192Z" fill="#F5F7F8"/>
<path d="M23.0646 20.4229V21.3606C23.0646 21.5586 22.9026 21.7192 22.7028 21.7192H21.6152C21.815 21.7192 21.9771 21.5586 21.9771 21.3606V20.4229C21.9771 20.225 21.815 20.0644 21.6152 20.0644H22.7028C22.9026 20.0644 23.0646 20.225 23.0646 20.4229Z" fill="#D9E7EB"/>
<path d="M24.7939 18.9988H17.7322C17.4325 18.9988 17.1895 18.758 17.1895 18.4609V8.59111C17.1895 8.29406 17.4324 8.05322 17.7322 8.05322H24.7941C25.0938 8.05322 25.3367 8.29403 25.3367 8.59111V18.4609C25.3367 18.758 25.0936 18.9988 24.7939 18.9988Z" fill="#596D76"/>
<path d="M25.3367 8.59111V18.4609C25.3367 18.7581 25.0936 18.9988 24.7939 18.9988H23.5352C23.8347 18.9988 24.0779 18.7581 24.0779 18.4609V8.59111C24.0779 8.2942 23.8347 8.05322 23.5352 8.05322H24.7939C25.0936 8.05327 25.3367 8.2942 25.3367 8.59111Z" fill="#475A61"/>
<path d="M20.2027 9.66089H19.8696C19.5323 9.66089 19.2578 9.93292 19.2578 10.2673V10.4898C19.2578 10.6146 19.2961 10.7307 19.3616 10.8272C19.2961 10.9238 19.2578 11.0399 19.2578 11.1647V11.3872C19.2578 11.7216 19.5323 11.9936 19.8696 11.9936H20.2027C20.5401 11.9936 20.8146 11.7216 20.8146 11.3872V11.1647C20.8146 11.0399 20.7763 10.9238 20.7107 10.8272C20.7763 10.7307 20.8146 10.6146 20.8146 10.4898V10.2673C20.8145 9.93292 20.5401 9.66089 20.2027 9.66089ZM19.8005 10.2673C19.8005 10.2295 19.8315 10.1988 19.8696 10.1988H20.2027C20.2409 10.1988 20.2719 10.2295 20.2719 10.2673V10.4898C20.2719 10.5276 20.2409 10.5583 20.2027 10.5583H19.8696C19.8315 10.5583 19.8005 10.5276 19.8005 10.4898V10.2673ZM20.2718 11.3872C20.2718 11.425 20.2408 11.4557 20.2027 11.4557H19.8696C19.8315 11.4557 19.8005 11.425 19.8005 11.3872V11.1647C19.8005 11.1269 19.8315 11.0962 19.8696 11.0962H20.2027C20.2408 11.0962 20.2718 11.1269 20.2718 11.1647V11.3872Z" fill="#FFC107"/>
<path d="M22.0016 9.66089H21.6685C21.3311 9.66089 21.0566 9.93292 21.0566 10.2673V11.3872C21.0566 11.7216 21.3311 11.9936 21.6685 11.9936H22.0016C22.3389 11.9936 22.6134 11.7216 22.6134 11.3872V10.2673C22.6134 9.93292 22.3389 9.66089 22.0016 9.66089ZM22.0707 11.3872C22.0707 11.425 22.0397 11.4557 22.0016 11.4557H21.6685C21.6303 11.4557 21.5994 11.425 21.5994 11.3872V10.2673C21.5994 10.2295 21.6303 10.1988 21.6685 10.1988H22.0016C22.0397 10.1988 22.0707 10.2295 22.0707 10.2673V11.3872Z" fill="#FFC107"/>
<path d="M24.0843 11.9809H23.5379C23.388 11.9809 23.2666 11.8605 23.2666 11.712C23.2666 11.5635 23.3881 11.4431 23.5379 11.4431H24.0843C24.2342 11.4431 24.3557 11.5635 24.3557 11.712C24.3557 11.8605 24.2342 11.9809 24.0843 11.9809Z" fill="#F5F7F8"/>
<path d="M24.0843 12.963H23.5379C23.388 12.963 23.2666 12.8426 23.2666 12.6941C23.2666 12.5455 23.3881 12.4251 23.5379 12.4251H24.0843C24.2342 12.4251 24.3557 12.5455 24.3557 12.6941C24.3557 12.8426 24.2342 12.963 24.0843 12.963Z" fill="#F5F7F8"/>
<path d="M24.0843 13.9432H23.5379C23.388 13.9432 23.2666 13.8228 23.2666 13.6743C23.2666 13.5257 23.3881 13.4053 23.5379 13.4053H24.0843C24.2342 13.4053 24.3557 13.5257 24.3557 13.6743C24.3557 13.8228 24.2342 13.9432 24.0843 13.9432Z" fill="#F5F7F8"/>
<path d="M24.0843 14.9234H23.5379C23.388 14.9234 23.2666 14.803 23.2666 14.6545C23.2666 14.5059 23.3881 14.3855 23.5379 14.3855H24.0843C24.2342 14.3855 24.3557 14.5059 24.3557 14.6545C24.3557 14.803 24.2342 14.9234 24.0843 14.9234Z" fill="#F5F7F8"/>
<path d="M24.0843 15.9054H23.5379C23.388 15.9054 23.2666 15.785 23.2666 15.6365C23.2666 15.488 23.3881 15.3676 23.5379 15.3676H24.0843C24.2342 15.3676 24.3557 15.488 24.3557 15.6365C24.3557 15.785 24.2342 15.9054 24.0843 15.9054Z" fill="#F5F7F8"/>
<path d="M18.4434 17.7892H23.6181C23.7832 17.7892 23.862 17.588 23.7402 17.4776L22.9528 16.764C22.9124 16.7273 22.8574 16.7108 22.8032 16.7191L22.2372 16.8053L21.3072 15.448C21.2338 15.3409 21.0735 15.3438 21.0042 15.4536L20.1489 16.808L19.4012 16.2478C19.3303 16.1946 19.231 16.2004 19.1669 16.2614L18.4434 16.9497V17.7892H18.4434Z" fill="#FFF3CD"/>
<path d="M18.4432 18.0574C18.2933 18.0574 18.1719 17.937 18.1719 17.7884V9.40445C18.1719 9.25593 18.2934 9.13553 18.4432 9.13553C18.5931 9.13553 18.7146 9.25593 18.7146 9.40445V17.7884C18.7146 17.937 18.5931 18.0574 18.4432 18.0574Z" fill="#FFC107"/>
<path d="M24.1685 17.5192H18.4546C18.306 17.5192 18.1764 17.6327 18.172 17.7799C18.1674 17.9322 18.2906 18.0571 18.4432 18.0571H24.1685C24.3183 18.0571 24.4397 17.9367 24.4397 17.7881C24.4397 17.6396 24.3183 17.5192 24.1685 17.5192Z" fill="#FFC107"/>
<path d="M20.5432 13.286H19.5292C19.3793 13.286 19.2578 13.1656 19.2578 13.0171C19.2578 12.8685 19.3793 12.7481 19.5292 12.7481H20.5432C20.6931 12.7481 20.8145 12.8685 20.8145 13.0171C20.8145 13.1655 20.693 13.286 20.5432 13.286Z" fill="#F5F7F8"/>
<path d="M21.9542 14.2681H19.5292C19.3793 14.2681 19.2578 14.1477 19.2578 13.9991C19.2578 13.8506 19.3793 13.7302 19.5292 13.7302H21.9542C22.1041 13.7302 22.2256 13.8506 22.2256 13.9991C22.2256 14.1477 22.1041 14.2681 21.9542 14.2681Z" fill="#F5F7F8"/>
</g>
<defs>
<clipPath id="clip0_319_10715">
<rect width="41" height="24" fill="white"/>
</clipPath>
</defs>
</svg>
