<svg width="13" height="14" viewBox="0 0 13 14" fill="none" xmlns="http://www.w3.org/2000/svg">
<path d="M7.20155 1.21527C7.07273 0.94791 6.8005 0.777771 6.50155 0.777771C6.20259 0.777771 5.9328 0.94791 5.80155 1.21527L4.2387 4.4309L0.748421 4.94617C0.456754 4.98992 0.213698 5.19409 0.123768 5.4736C0.0338372 5.75312 0.106754 6.0618 0.315782 6.2684L2.84842 8.7743L2.2505 12.3156C2.20189 12.6073 2.32342 12.9038 2.56405 13.0764C2.80467 13.249 3.12307 13.2708 3.38557 13.1323L6.50398 11.4674L9.62238 13.1323C9.88488 13.2708 10.2033 13.2514 10.4439 13.0764C10.6845 12.9014 10.8061 12.6073 10.7574 12.3156L10.1571 8.7743L12.6897 6.2684C12.8988 6.0618 12.9741 5.75312 12.8818 5.4736C12.7894 5.19409 12.5488 4.98992 12.2571 4.94617L8.76439 4.4309L7.20155 1.21527Z" fill="#EAE312"/>
</svg>
